<?xml version="1.0" encoding="utf-8"?>
<!-- Generator: Adobe Illustrator 27.5.0, SVG Export Plug-In . SVG Version: 6.00 Build 0)  -->
<svg version="1.1" xmlns="http://www.w3.org/2000/svg" xmlns:xlink="http://www.w3.org/1999/xlink" x="0px" y="0px" width="100px"
	 height="30px" viewBox="0 0 100 30" style="enable-background:new 0 0 100 30;" xml:space="preserve">
<style type="text/css">
	.st0{display:none;}
	.st1{display:inline;}
	.st2{fill:none;stroke:#6A93BF;stroke-width:0.25;stroke-linecap:round;stroke-linejoin:round;stroke-miterlimit:10;}
	
		.st3{display:inline;fill:none;stroke:#6A93BF;stroke-width:0.25;stroke-linecap:round;stroke-linejoin:round;stroke-miterlimit:10;}
	.st4{fill:none;stroke:#FC8754;stroke-width:2;stroke-miterlimit:10;}
	.st5{fill:#FFFFFF;stroke:#000000;stroke-miterlimit:10;}
	.st6{fill:none;stroke:#CAEAFF;stroke-linecap:square;stroke-miterlimit:10;}
	.st7{fill:#CAEAFF;}
	.st8{opacity:0.3;fill:#F21616;}
	.st9{fill:none;stroke:#CAEAFF;stroke-linecap:round;stroke-miterlimit:10;}
	.st10{fill:#FC8754;}
	.st11{fill:none;stroke:#000000;stroke-miterlimit:10;}
	.st12{fill:none;stroke:#000000;stroke-width:0.5;stroke-linecap:round;stroke-linejoin:round;stroke-miterlimit:10;}
	.st13{stroke:#000000;stroke-width:0.5;stroke-linecap:round;stroke-linejoin:round;stroke-miterlimit:10;}
	.st14{font-family:'Courier-Bold';}
	.st15{font-size:4px;}
	.st16{fill:#E55D1E;}
	.st17{fill:#E55D1E;stroke:#E55D1E;stroke-width:0.5;stroke-linecap:round;stroke-linejoin:round;stroke-miterlimit:10;}
	.st18{fill:none;stroke:#E55D1E;stroke-width:0.5;stroke-linecap:round;stroke-linejoin:round;stroke-miterlimit:10;}
	.st19{fill:none;}
	.st20{fill:#1075A1;}
	.st21{fill:none;stroke:#1075A1;stroke-width:0.5;stroke-linecap:round;stroke-linejoin:round;stroke-miterlimit:10;}
	.st22{fill:none;stroke:#000000;stroke-width:0.25;stroke-miterlimit:10;}
</style>
<g id="Layer_2">
</g>
<g id="Layer_1">
	<g>
		<line class="st12" x1="20.6" y1="27.4" x2="40.5" y2="27.4"/>
		<line class="st12" x1="60.6" y1="27.4" x2="80.6" y2="27.4"/>
		<path class="st12" d="M60.6,7.4l-5.5,0c-0.1-1-0.7-1.7-1.5-1.7s-1.4,0.7-1.5,1.7c-0.1-1-0.7-1.7-1.5-1.7s-1.4,0.7-1.5,1.7
			c-0.1-1-0.7-1.7-1.5-1.7s-1.4,0.7-1.5,1.7l-5.5,0"/>
		<polyline class="st12" points="80.6,27.4 80.6,21.9 82.1,20.7 79.1,19.4 82.1,18.1 79.1,16.8 82.1,15.5 79.1,14.2 80.6,12.9 
			80.6,7.4 		"/>
		<g>
			<line class="st12" x1="60.6" y1="16.4" x2="60.6" y2="7.4"/>
			<line class="st12" x1="60.6" y1="27.4" x2="60.6" y2="18.4"/>
			<line class="st12" x1="58.1" y1="18.4" x2="63.1" y2="18.4"/>
			<line class="st12" x1="58.1" y1="16.4" x2="63.1" y2="16.4"/>
		</g>
		<g>
			<g>
				<line class="st13" x1="40.6" y1="16.4" x2="40.6" y2="7.4"/>
				<line class="st13" x1="40.6" y1="27.4" x2="40.6" y2="18.4"/>
			</g>
			<g>
				<line class="st13" x1="39.1" y1="15.4" x2="42.1" y2="15.4"/>
				<polygon class="st13" points="40.6,15.4 39.1,19.4 42.1,19.4 				"/>
			</g>
			<line class="st13" x1="40.6" y1="16.4" x2="40.6" y2="20.4"/>
		</g>
		<line class="st12" x1="40.6" y1="27.4" x2="60.6" y2="27.4"/>
		<line class="st12" x1="60.6" y1="7.4" x2="80.6" y2="7.4"/>
		<g>
			<polyline class="st12" points="27.6,10.4 27.6,7.4 20.6,7.4 			"/>
			<polyline class="st12" points="30.6,9.4 30.6,7.4 33.6,7.4 			"/>
			<polyline class="st12" points="33.6,10.4 33.6,7.4 40.6,7.4 			"/>
			<line class="st12" x1="34" y1="10.4" x2="33" y2="10.4"/>
			<line class="st12" x1="31.1" y1="10.4" x2="30.1" y2="10.4"/>
			<line class="st12" x1="28.1" y1="10.4" x2="27.1" y2="10.4"/>
			<polygon class="st12" points="30.6,9.8 31.1,8.8 30,8.8 			"/>
			<line class="st12" x1="29.7" y1="5.2" x2="29.7" y2="3.7"/>
			<polygon class="st13" points="30,4.4 31.6,5.4 31.6,3.5 			"/>
			<polyline class="st12" points="34,11.9 27.1,11.9 27.1,13.3 			"/>
			<polyline class="st12" points="33.6,7.4 33.6,4.4 31.4,4.4 			"/>
			<polyline class="st12" points="27.6,7.4 27.6,4.4 29.7,4.4 			"/>
		</g>
	</g>
	<text transform="matrix(1 0 0 1 35.5515 18.4424)" class="st14 st15">L</text>
	<text transform="matrix(1 0 0 1 12.5676 21.4518)" class="st14 st15">V</text>
	<text transform="matrix(0.583 0 0 0.583 14.9679 22.7838)" class="st14 st15">in</text>
	<text transform="matrix(1 0 0 1 27.5668 15.8605)" class="st14 st15">Q</text>
	<g>
		<text transform="matrix(1 0 0 1 53.6532 18.5961)" class="st14 st15">C</text>
		<text transform="matrix(0.583 0 0 0.583 56.0536 19.9281)" class="st14 st15">o</text>
	</g>
	<g>
		<text transform="matrix(1 0 0 1 75.0764 18.4426)" class="st14 st15">R</text>
	</g>
	<g>
		<text transform="matrix(1 0 0 1 54.3999 24.4498)" class="st16 st14 st15">i</text>
		<text transform="matrix(0.583 0 0 0.583 56.8003 25.7819)" class="st16 st14 st15">co</text>
		<g>
			<polygon class="st17" points="60.6,25.8 60.1,24.4 61.1,24.4 			"/>
		</g>
		<line class="st18" x1="60.6" y1="22.8" x2="60.6" y2="25"/>
	</g>
	<g>
		<text transform="matrix(1 0 0 1 35.7682 12.1014)" class="st16 st14 st15">i</text>
		<text transform="matrix(0.583 0 0 0.583 38.1685 13.4334)" class="st16 st14 st15">D</text>
		<g>
			<polygon class="st17" points="40.5,10.5 41,11.8 40,11.8 			"/>
		</g>
		<line class="st18" x1="40.5" y1="13.4" x2="40.5" y2="11.2"/>
	</g>
	<g>
		<text transform="matrix(1 0 0 1 75.799 10.8748)" class="st16 st14 st15">i</text>
		<text transform="matrix(0.583 0 0 0.583 78.1994 12.2068)" class="st16 st14 st15">o</text>
		<g>
			<polygon class="st17" points="80.6,12.2 80.1,10.9 81.1,10.9 			"/>
		</g>
		<line class="st18" x1="80.6" y1="9.2" x2="80.6" y2="11.5"/>
	</g>
	<g>
		<text transform="matrix(1 0 0 1 22.1023 4.8978)" class="st16 st14 st15">i</text>
		<text transform="matrix(0.583 0 0 0.583 24.5027 6.2298)" class="st16 st14 st15">Q</text>
		<g>
			<polygon class="st17" points="24.9,7.4 23.5,7.9 23.5,6.9 			"/>
		</g>
		<line class="st18" x1="21.9" y1="7.4" x2="24.1" y2="7.4"/>
	</g>
	<g>
		<text transform="matrix(1 0 0 1 56.3003 4.8978)" class="st16 st14 st15">i</text>
		<text transform="matrix(0.583 0 0 0.583 58.7006 6.2298)" class="st16 st14 st15">L</text>
		<g>
			<polygon class="st17" points="59.1,7.4 57.7,7.9 57.7,6.9 			"/>
		</g>
		<line class="st18" x1="56.1" y1="7.4" x2="58.3" y2="7.4"/>
	</g>
	<g>
		<line class="st19" x1="40.6" y1="9.9" x2="60.6" y2="9.9"/>
		<text transform="matrix(1 0 0 1 49.3161 10.6092)" class="st20 st14 st15">v</text>
		<text transform="matrix(0.583 0 0 0.583 51.7165 11.9412)" class="st20 st14 st15">L</text>
		<line class="st21" x1="42.8" y1="9.9" x2="44.3" y2="9.9"/>
		<line class="st21" x1="43.5" y1="9.1" x2="43.5" y2="10.6"/>
		<line class="st21" x1="58.3" y1="9.9" x2="56.8" y2="9.9"/>
	</g>
	<g>
		<text transform="matrix(1 0 0 1 83.5886 18.5962)" class="st20 st14 st15">v</text>
		<text transform="matrix(0.583 0 0 0.583 85.9889 19.9283)" class="st20 st14 st15">o</text>
		<line class="st21" x1="84.7" y1="9.7" x2="84.7" y2="11.2"/>
		<line class="st21" x1="85.4" y1="10.4" x2="83.9" y2="10.4"/>
		<line class="st21" x1="85.4" y1="24.5" x2="83.9" y2="24.5"/>
	</g>
	<g>
		<line class="st12" x1="20.6" y1="13.7" x2="20.6" y2="7.4"/>
		<line class="st12" x1="20.6" y1="27.4" x2="20.6" y2="21.1"/>
		<circle class="st12" cx="20.6" cy="17.4" r="3.7"/>
		<g>
			<line class="st12" x1="20.6" y1="15.3" x2="20.6" y2="16.8"/>
			<line class="st12" x1="21.3" y1="16" x2="19.8" y2="16"/>
			<line class="st12" x1="21.3" y1="19.6" x2="19.8" y2="19.6"/>
		</g>
	</g>
	<g>
		<text transform="matrix(1 0 0 1 39.3021 5.3677)" class="st20 st14 st15">v</text>
		<text transform="matrix(0.583 0 0 0.583 41.7024 6.6997)" class="st20 st14 st15">sw</text>
		<circle id="XMLID_00000029042278632952801040000015632711695199375279_" cx="40.6" cy="7.4" r="0.7"/>
	</g>
</g>
</svg>
