<?xml version="1.0" encoding="utf-8"?>
<!-- Generator: Adobe Illustrator 27.5.0, SVG Export Plug-In . SVG Version: 6.00 Build 0)  -->
<svg version="1.1" xmlns="http://www.w3.org/2000/svg" xmlns:xlink="http://www.w3.org/1999/xlink" x="0px" y="0px" width="107.9px"
	 height="31.3px" viewBox="0 0 107.9 31.3" style="enable-background:new 0 0 107.9 31.3;" xml:space="preserve">
<style type="text/css">
	.st0{display:none;}
	.st1{display:inline;}
	.st2{fill:none;stroke:#6A93BF;stroke-width:0.25;stroke-linecap:round;stroke-linejoin:round;stroke-miterlimit:10;}
	
		.st3{display:inline;fill:none;stroke:#6A93BF;stroke-width:0.25;stroke-linecap:round;stroke-linejoin:round;stroke-miterlimit:10;}
	.st4{fill:none;stroke:#FC8754;stroke-width:2;stroke-miterlimit:10;}
	.st5{fill:#FFFFFF;stroke:#000000;stroke-miterlimit:10;}
	.st6{fill:none;stroke:#CAEAFF;stroke-linecap:square;stroke-miterlimit:10;}
	.st7{fill:#CAEAFF;}
	.st8{opacity:0.3;fill:#F21616;}
	.st9{fill:none;stroke:#CAEAFF;stroke-linecap:round;stroke-miterlimit:10;}
	.st10{fill:#FC8754;}
	.st11{fill:none;stroke:#000000;stroke-miterlimit:10;}
	.st12{fill:none;stroke:#000000;stroke-width:0.5;stroke-linecap:round;stroke-linejoin:round;stroke-miterlimit:10;}
	.st13{stroke:#000000;stroke-width:0.5;stroke-linecap:round;stroke-linejoin:round;stroke-miterlimit:10;}
	.st14{fill:#E55D1E;stroke:#E55D1E;stroke-width:0.5;stroke-linecap:round;stroke-linejoin:round;stroke-miterlimit:10;}
	.st15{fill:none;stroke:#E55D1E;stroke-width:0.5;stroke-linecap:round;stroke-linejoin:round;stroke-miterlimit:10;}
	.st16{font-family:'Courier-Bold';}
	.st17{font-size:4px;}
	.st18{fill:#E55D1E;}
	.st19{fill:none;}
	.st20{fill:#1075A1;}
	.st21{fill:none;stroke:#1075A1;stroke-width:0.5;stroke-linecap:round;stroke-linejoin:round;stroke-miterlimit:10;}
	.st22{fill:none;stroke:#000000;stroke-width:0.25;stroke-miterlimit:10;}
</style>
<g id="Layer_2">
</g>
<g id="Layer_1">
	<g>
		<line class="st12" x1="19.8" y1="27.2" x2="39.8" y2="27.2"/>
		<line class="st12" x1="59.8" y1="27.2" x2="79.8" y2="27.2"/>
		<path class="st12" d="M59.8,7.2l-5.5,0c-0.1-1-0.7-1.7-1.5-1.7c-0.8,0-1.4,0.7-1.5,1.7c-0.1-1-0.7-1.7-1.5-1.7
			c-0.8,0-1.4,0.7-1.5,1.7c-0.1-1-0.7-1.7-1.5-1.7c-0.8,0-1.4,0.7-1.5,1.7l-5.5,0"/>
		<polyline class="st12" points="79.8,27.2 79.8,21.7 81.3,20.4 78.3,19.1 81.3,17.8 78.3,16.5 81.3,15.2 78.3,13.9 79.8,12.7 
			79.8,7.2 		"/>
		<g>
			<line class="st12" x1="59.8" y1="16.2" x2="59.8" y2="7.2"/>
			<line class="st12" x1="59.8" y1="27.2" x2="59.8" y2="18.2"/>
			<line class="st12" x1="57.3" y1="18.2" x2="62.3" y2="18.2"/>
			<line class="st12" x1="57.3" y1="16.2" x2="62.3" y2="16.2"/>
		</g>
		<g>
			<g>
				<line class="st13" x1="39.8" y1="16.2" x2="39.8" y2="7.2"/>
				<line class="st13" x1="39.8" y1="27.2" x2="39.8" y2="18.2"/>
			</g>
			<g>
				<line class="st13" x1="38.3" y1="15.2" x2="41.3" y2="15.2"/>
				<polygon class="st13" points="39.8,15.2 38.3,19.2 41.3,19.2 				"/>
			</g>
			<line class="st13" x1="39.8" y1="16.2" x2="39.8" y2="20.2"/>
		</g>
		<line class="st12" x1="39.8" y1="27.2" x2="59.8" y2="27.2"/>
		<line class="st12" x1="59.8" y1="7.2" x2="79.8" y2="7.2"/>
		<g>
			<polyline class="st12" points="26.8,10.2 26.8,7.2 19.8,7.2 			"/>
			<polyline class="st12" points="29.8,9.2 29.8,7.2 32.8,7.2 			"/>
			<polyline class="st12" points="32.8,10.2 32.8,7.2 39.8,7.2 			"/>
			<line class="st12" x1="33.3" y1="10.2" x2="32.3" y2="10.2"/>
			<line class="st12" x1="30.3" y1="10.2" x2="29.3" y2="10.2"/>
			<line class="st12" x1="27.3" y1="10.2" x2="26.3" y2="10.2"/>
			<polygon class="st12" points="29.8,9.5 30.4,8.5 29.2,8.5 			"/>
			<line class="st12" x1="29" y1="4.9" x2="29" y2="3.4"/>
			<polygon class="st13" points="29.2,4.2 30.8,5.1 30.8,3.2 			"/>
			<polyline class="st12" points="33.3,11.7 26.3,11.7 26.3,13.1 			"/>
			<polyline class="st12" points="32.8,7.2 32.8,4.2 30.6,4.2 			"/>
			<polyline class="st12" points="26.8,7.2 26.8,4.2 29,4.2 			"/>
		</g>
	</g>
	<text transform="matrix(1 0 0 1 34.7938 18.1638)" class="st16 st17">L</text>
	<text transform="matrix(1 0 0 1 11.8098 21.1733)" class="st16 st17">V</text>
	<text transform="matrix(0.583 0 0 0.583 14.2102 22.5053)" class="st16 st17">in</text>
	<text transform="matrix(1 0 0 1 26.809 15.5819)" class="st16 st17">Q</text>
	<g>
		<text transform="matrix(1 0 0 1 52.8954 18.3175)" class="st16 st17">C</text>
		<text transform="matrix(0.583 0 0 0.583 55.2958 19.6495)" class="st16 st17">o</text>
	</g>
	<g>
		<text transform="matrix(1 0 0 1 74.3187 18.1639)" class="st16 st17">R</text>
	</g>
	<g>
		<text transform="matrix(1 0 0 1 53.6422 24.1713)" class="st18 st16 st17">i</text>
		<text transform="matrix(0.583 0 0 0.583 56.0426 25.5034)" class="st18 st16 st17">co</text>
		<g>
			<polygon class="st14" points="59.8,25.5 59.3,24.2 60.3,24.2 			"/>
		</g>
		<line class="st15" x1="59.8" y1="22.5" x2="59.8" y2="24.8"/>
	</g>
	<g>
		<text transform="matrix(1 0 0 1 35.0104 11.8227)" class="st18 st16 st17">i</text>
		<text transform="matrix(0.583 0 0 0.583 37.4108 13.1548)" class="st18 st16 st17">D</text>
		<g>
			<polygon class="st14" points="39.8,10.2 40.3,11.5 39.3,11.5 			"/>
		</g>
		<line class="st15" x1="39.8" y1="13.1" x2="39.8" y2="10.9"/>
	</g>
	<g>
		<text transform="matrix(1 0 0 1 75.0413 10.5961)" class="st18 st16 st17">i</text>
		<text transform="matrix(0.583 0 0 0.583 77.4417 11.9282)" class="st18 st16 st17">o</text>
		<g>
			<polygon class="st14" points="79.8,11.9 79.3,10.6 80.3,10.6 			"/>
		</g>
		<line class="st15" x1="79.8" y1="9" x2="79.8" y2="11.2"/>
	</g>
	<g>
		<text transform="matrix(1 0 0 1 21.3445 4.6192)" class="st18 st16 st17">i</text>
		<text transform="matrix(0.583 0 0 0.583 23.7449 5.9512)" class="st18 st16 st17">Q</text>
		<g>
			<polygon class="st14" points="24.1,7.2 22.8,7.7 22.8,6.7 			"/>
		</g>
		<line class="st15" x1="21.2" y1="7.2" x2="23.4" y2="7.2"/>
	</g>
	<g>
		<text transform="matrix(1 0 0 1 55.5425 4.6192)" class="st18 st16 st17">i</text>
		<text transform="matrix(0.583 0 0 0.583 57.9429 5.9512)" class="st18 st16 st17">L</text>
		<g>
			<polygon class="st14" points="58.3,7.2 57,7.7 57,6.7 			"/>
		</g>
		<line class="st15" x1="55.4" y1="7.2" x2="57.6" y2="7.2"/>
	</g>
	<g>
		<line class="st19" x1="39.8" y1="9.6" x2="59.8" y2="9.6"/>
		<text transform="matrix(1 0 0 1 48.5584 10.3306)" class="st20 st16 st17">v</text>
		<text transform="matrix(0.583 0 0 0.583 50.9588 11.6626)" class="st20 st16 st17">L</text>
		<line class="st21" x1="42" y1="9.6" x2="43.5" y2="9.6"/>
		<line class="st21" x1="42.8" y1="8.8" x2="42.8" y2="10.3"/>
		<line class="st21" x1="57.6" y1="9.6" x2="56.1" y2="9.6"/>
	</g>
	<g>
		<text transform="matrix(1 0 0 1 82.8308 18.3176)" class="st20 st16 st17">v</text>
		<text transform="matrix(0.583 0 0 0.583 85.2312 19.6497)" class="st20 st16 st17">o</text>
		<line class="st21" x1="83.9" y1="9.4" x2="83.9" y2="10.9"/>
		<line class="st21" x1="84.7" y1="10.1" x2="83.2" y2="10.1"/>
		<line class="st21" x1="84.7" y1="24.2" x2="83.2" y2="24.2"/>
	</g>
	<g>
		<line class="st12" x1="19.8" y1="13.5" x2="19.8" y2="7.2"/>
		<line class="st12" x1="19.8" y1="27.2" x2="19.8" y2="20.9"/>
		<circle class="st12" cx="19.8" cy="17.2" r="3.7"/>
		<g>
			<line class="st12" x1="19.8" y1="15" x2="19.8" y2="16.5"/>
			<line class="st12" x1="20.6" y1="15.8" x2="19.1" y2="15.8"/>
			<line class="st12" x1="20.6" y1="19.3" x2="19.1" y2="19.3"/>
		</g>
	</g>
	<g>
		<text transform="matrix(1 0 0 1 38.5443 5.089)" class="st20 st16 st17">v</text>
		<text transform="matrix(0.583 0 0 0.583 40.9447 6.4211)" class="st20 st16 st17">sw</text>
		<circle id="XMLID_00000029042278632952801040000015632711695199375279_" cx="39.8" cy="7.2" r="0.7"/>
	</g>
</g>
</svg>
