<?xml version="1.0" encoding="utf-8"?>
<!-- Generator: Adobe Illustrator 27.5.0, SVG Export Plug-In . SVG Version: 6.00 Build 0)  -->
<svg version="1.1" xmlns="http://www.w3.org/2000/svg" xmlns:xlink="http://www.w3.org/1999/xlink" x="0px" y="0px" width="75.9px"
	 height="26.8px" viewBox="0 0 75.9 26.8" style="enable-background:new 0 0 75.9 26.8;" xml:space="preserve">
<style type="text/css">
	.st0{display:none;}
	.st1{display:inline;}
	.st2{fill:none;stroke:#6A93BF;stroke-width:0.25;stroke-linecap:round;stroke-linejoin:round;stroke-miterlimit:10;}
	
		.st3{display:inline;fill:none;stroke:#6A93BF;stroke-width:0.25;stroke-linecap:round;stroke-linejoin:round;stroke-miterlimit:10;}
	.st4{fill:none;stroke:#FC8754;stroke-width:2;stroke-miterlimit:10;}
	.st5{fill:#FFFFFF;stroke:#000000;stroke-miterlimit:10;}
	.st6{fill:none;stroke:#CAEAFF;stroke-linecap:square;stroke-miterlimit:10;}
	.st7{fill:#CAEAFF;}
	.st8{opacity:0.3;fill:#F21616;}
	.st9{fill:none;stroke:#CAEAFF;stroke-linecap:round;stroke-miterlimit:10;}
	.st10{fill:#FC8754;}
	.st11{fill:none;stroke:#000000;stroke-miterlimit:10;}
	.st12{fill:none;stroke:#000000;stroke-width:0.5;stroke-linecap:round;stroke-linejoin:round;stroke-miterlimit:10;}
	.st13{stroke:#000000;stroke-width:0.5;stroke-linecap:round;stroke-linejoin:round;stroke-miterlimit:10;}
	.st14{fill:#E55D1E;stroke:#E55D1E;stroke-width:0.5;stroke-linecap:round;stroke-linejoin:round;stroke-miterlimit:10;}
	.st15{fill:none;stroke:#E55D1E;stroke-width:0.5;stroke-linecap:round;stroke-linejoin:round;stroke-miterlimit:10;}
	.st16{font-family:'Courier-Bold';}
	.st17{font-size:4px;}
	.st18{fill:#E55D1E;}
	.st19{fill:none;}
	.st20{fill:#1075A1;}
	.st21{fill:none;stroke:#1075A1;stroke-width:0.5;stroke-linecap:round;stroke-linejoin:round;stroke-miterlimit:10;}
	.st22{fill:none;stroke:#000000;stroke-width:0.25;stroke-miterlimit:10;}
</style>
<g id="Layer_2">
</g>
<g id="Layer_1">
	<g>
		<line class="st12" x1="8.5" y1="25.8" x2="28.5" y2="25.8"/>
		<line class="st12" x1="48.5" y1="25.8" x2="68.5" y2="25.8"/>
		<path class="st12" d="M48.5,5.8l-5.5,0c-0.1-1-0.7-1.7-1.5-1.7c-0.8,0-1.4,0.7-1.5,1.7c-0.1-1-0.7-1.7-1.5-1.7
			c-0.8,0-1.4,0.7-1.5,1.7c-0.1-1-0.7-1.7-1.5-1.7c-0.8,0-1.4,0.7-1.5,1.7l-5.5,0"/>
		<polyline class="st12" points="68.5,25.8 68.5,20.3 70,19 67,17.8 70,16.5 67,15.2 70,13.9 67,12.6 68.5,11.3 68.5,5.8 		"/>
		<g>
			<line class="st12" x1="48.5" y1="14.8" x2="48.5" y2="5.8"/>
			<line class="st12" x1="48.5" y1="25.8" x2="48.5" y2="16.8"/>
			<line class="st12" x1="46" y1="16.8" x2="51" y2="16.8"/>
			<line class="st12" x1="46" y1="14.8" x2="51" y2="14.8"/>
		</g>
		<g>
			<g>
				<line class="st13" x1="28.5" y1="14.8" x2="28.5" y2="5.8"/>
				<line class="st13" x1="28.5" y1="25.8" x2="28.5" y2="16.8"/>
			</g>
			<g>
				<line class="st13" x1="27" y1="13.8" x2="30" y2="13.8"/>
				<polygon class="st13" points="28.5,13.8 27,17.8 30,17.8 				"/>
			</g>
			<line class="st13" x1="28.5" y1="14.8" x2="28.5" y2="18.8"/>
		</g>
		<line class="st12" x1="28.5" y1="25.8" x2="48.5" y2="25.8"/>
		<line class="st12" x1="48.5" y1="5.8" x2="68.5" y2="5.8"/>
		<g>
			<polyline class="st12" points="15.5,8.8 15.5,5.8 8.5,5.8 			"/>
			<polyline class="st12" points="18.5,7.8 18.5,5.8 21.5,5.8 			"/>
			<polyline class="st12" points="21.5,8.8 21.5,5.8 28.5,5.8 			"/>
			<line class="st12" x1="22" y1="8.8" x2="21" y2="8.8"/>
			<line class="st12" x1="19" y1="8.8" x2="18" y2="8.8"/>
			<line class="st12" x1="16" y1="8.8" x2="15" y2="8.8"/>
			<polygon class="st12" points="18.5,8.2 19.1,7.2 18,7.2 			"/>
			<line class="st12" x1="17.7" y1="3.6" x2="17.7" y2="2.1"/>
			<polygon class="st13" points="18,2.8 19.6,3.8 19.6,1.9 			"/>
			<polyline class="st12" points="22,10.3 15,10.3 15,11.7 			"/>
			<polyline class="st12" points="21.5,5.8 21.5,2.8 19.4,2.8 			"/>
			<polyline class="st12" points="15.5,5.8 15.5,2.8 17.7,2.8 			"/>
		</g>
	</g>
	<text transform="matrix(1 0 0 1 23.5186 16.8291)" class="st16 st17">L</text>
	<text transform="matrix(1 0 0 1 0.5346 19.8386)" class="st16 st17">V</text>
	<text transform="matrix(0.583 0 0 0.583 2.935 21.1707)" class="st16 st17">in</text>
	<text transform="matrix(1 0 0 1 15.5338 14.2472)" class="st16 st17">Q</text>
	<g>
		<text transform="matrix(1 0 0 1 41.6202 16.9829)" class="st16 st17">C</text>
		<text transform="matrix(0.583 0 0 0.583 44.0206 18.3149)" class="st16 st17">o</text>
	</g>
	<g>
		<text transform="matrix(1 0 0 1 63.0435 16.8293)" class="st16 st17">R</text>
	</g>
	<g>
		<text transform="matrix(1 0 0 1 42.367 22.8367)" class="st18 st16 st17">i</text>
		<text transform="matrix(0.583 0 0 0.583 44.7674 24.1687)" class="st18 st16 st17">co</text>
		<g>
			<polygon class="st14" points="48.5,24.2 48,22.8 49,22.8 			"/>
		</g>
		<line class="st15" x1="48.5" y1="21.2" x2="48.5" y2="23.4"/>
	</g>
	<g>
		<text transform="matrix(1 0 0 1 23.7352 10.4881)" class="st18 st16 st17">i</text>
		<text transform="matrix(0.583 0 0 0.583 26.1356 11.8201)" class="st18 st16 st17">D</text>
		<g>
			<polygon class="st14" points="28.5,8.9 29,10.2 28,10.2 			"/>
		</g>
		<line class="st15" x1="28.5" y1="11.8" x2="28.5" y2="9.6"/>
	</g>
	<g>
		<text transform="matrix(1 0 0 1 63.766 9.2615)" class="st18 st16 st17">i</text>
		<text transform="matrix(0.583 0 0 0.583 66.1664 10.5935)" class="st18 st16 st17">o</text>
		<g>
			<polygon class="st14" points="68.5,10.6 68,9.3 69,9.3 			"/>
		</g>
		<line class="st15" x1="68.5" y1="7.6" x2="68.5" y2="9.8"/>
	</g>
	<g>
		<text transform="matrix(1 0 0 1 10.0693 3.2845)" class="st18 st16 st17">i</text>
		<text transform="matrix(0.583 0 0 0.583 12.4697 4.6166)" class="st18 st16 st17">Q</text>
		<g>
			<polygon class="st14" points="12.8,5.8 11.5,6.3 11.5,5.3 			"/>
		</g>
		<line class="st15" x1="9.9" y1="5.8" x2="12.1" y2="5.8"/>
	</g>
	<g>
		<text transform="matrix(1 0 0 1 44.2673 3.2845)" class="st18 st16 st17">i</text>
		<text transform="matrix(0.583 0 0 0.583 46.6677 4.6166)" class="st18 st16 st17">L</text>
		<g>
			<polygon class="st14" points="47,5.8 45.7,6.3 45.7,5.3 			"/>
		</g>
		<line class="st15" x1="44.1" y1="5.8" x2="46.3" y2="5.8"/>
	</g>
	<g>
		<line class="st19" x1="28.5" y1="8.2" x2="48.5" y2="8.2"/>
		<text transform="matrix(1 0 0 1 37.2832 8.9959)" class="st20 st16 st17">v</text>
		<text transform="matrix(0.583 0 0 0.583 39.6836 10.328)" class="st20 st16 st17">L</text>
		<line class="st21" x1="30.8" y1="8.2" x2="32.3" y2="8.2"/>
		<line class="st21" x1="31.5" y1="7.5" x2="31.5" y2="9"/>
		<line class="st21" x1="46.3" y1="8.2" x2="44.8" y2="8.2"/>
	</g>
	<g>
		<text transform="matrix(1 0 0 1 71.5556 16.983)" class="st20 st16 st17">v</text>
		<text transform="matrix(0.583 0 0 0.583 73.956 18.315)" class="st20 st16 st17">o</text>
		<line class="st21" x1="72.6" y1="8.1" x2="72.6" y2="9.6"/>
		<line class="st21" x1="73.4" y1="8.8" x2="71.9" y2="8.8"/>
		<line class="st21" x1="73.4" y1="22.8" x2="71.9" y2="22.8"/>
	</g>
	<g>
		<line class="st12" x1="8.5" y1="12.1" x2="8.5" y2="5.8"/>
		<line class="st12" x1="8.5" y1="25.8" x2="8.5" y2="19.5"/>
		<circle class="st12" cx="8.5" cy="15.8" r="3.7"/>
		<g>
			<line class="st12" x1="8.5" y1="13.7" x2="8.5" y2="15.2"/>
			<line class="st12" x1="9.3" y1="14.4" x2="7.8" y2="14.4"/>
			<line class="st12" x1="9.3" y1="18" x2="7.8" y2="18"/>
		</g>
	</g>
	<g>
		<text transform="matrix(1 0 0 1 27.2691 3.7544)" class="st20 st16 st17">v</text>
		<text transform="matrix(0.583 0 0 0.583 29.6695 5.0864)" class="st20 st16 st17">sw</text>
		<circle id="XMLID_00000029042278632952801040000015632711695199375279_" cx="28.5" cy="5.8" r="0.7"/>
	</g>
</g>
</svg>
