<?xml version="1.0" encoding="utf-8"?>
<!-- Generator: Adobe Illustrator 27.5.0, SVG Export Plug-In . SVG Version: 6.00 Build 0)  -->
<svg version="1.1" xmlns="http://www.w3.org/2000/svg" xmlns:xlink="http://www.w3.org/1999/xlink" x="0px" y="0px" width="100px"
	 height="30px" viewBox="0 0 100 30" style="enable-background:new 0 0 100 30;" xml:space="preserve">
<style type="text/css">
	.st0{display:none;}
	.st1{display:inline;}
	.st2{fill:none;stroke:#6A93BF;stroke-width:0.25;stroke-linecap:round;stroke-linejoin:round;stroke-miterlimit:10;}
	
		.st3{display:inline;fill:none;stroke:#6A93BF;stroke-width:0.25;stroke-linecap:round;stroke-linejoin:round;stroke-miterlimit:10;}
	.st4{fill:none;stroke:#FC8754;stroke-width:2;stroke-miterlimit:10;}
	.st5{fill:#FFFFFF;stroke:#000000;stroke-miterlimit:10;}
	.st6{fill:none;stroke:#CAEAFF;stroke-linecap:square;stroke-miterlimit:10;}
	.st7{fill:#CAEAFF;}
	.st8{opacity:0.3;fill:#F21616;}
	.st9{fill:none;stroke:#CAEAFF;stroke-linecap:round;stroke-miterlimit:10;}
	.st10{fill:#FC8754;}
	.st11{fill:none;stroke:#000000;stroke-miterlimit:10;}
	.st12{fill:none;stroke:#000000;stroke-width:0.5;stroke-linecap:round;stroke-linejoin:round;stroke-miterlimit:10;}
	.st13{stroke:#000000;stroke-width:0.5;stroke-linecap:round;stroke-linejoin:round;stroke-miterlimit:10;}
	.st14{fill:#E55D1E;stroke:#E55D1E;stroke-width:0.5;stroke-linecap:round;stroke-linejoin:round;stroke-miterlimit:10;}
	.st15{fill:none;stroke:#E55D1E;stroke-width:0.5;stroke-linecap:round;stroke-linejoin:round;stroke-miterlimit:10;}
	.st16{fill:none;}
	.st17{fill:none;stroke:#1075A1;stroke-width:0.5;stroke-linecap:round;stroke-linejoin:round;stroke-miterlimit:10;}
	.st18{fill:none;stroke:#000000;stroke-width:0.25;stroke-miterlimit:10;}
	.st19{font-family:'Courier-Bold';}
	.st20{font-size:4px;}
	.st21{fill:#E55D1E;}
	.st22{fill:#1075A1;}
	.st23{fill:none;stroke:#29ABE2;stroke-width:0.5;stroke-linecap:round;stroke-linejoin:round;stroke-miterlimit:10;}
	.st24{fill:none;stroke:#ED1C24;stroke-width:0.5;stroke-linecap:round;stroke-linejoin:round;stroke-miterlimit:10;}
	.st25{display:inline;fill:none;stroke:#ED1C24;stroke-width:0.1;stroke-miterlimit:10;}
	.st26{opacity:0.3;}
	.st27{fill:none;stroke:#000000;stroke-width:0.5;stroke-linecap:round;stroke-miterlimit:10;}
	.st28{opacity:0.3;stroke:#000000;stroke-width:0.25;stroke-linecap:round;stroke-miterlimit:10;}
	.st29{fill:none;stroke:#000000;stroke-width:0.25;stroke-linecap:round;stroke-miterlimit:10;}
	.st30{fill:none;stroke:#000000;stroke-width:0.25;stroke-linecap:round;stroke-miterlimit:10;stroke-dasharray:0.4994,0.9989;}
	.st31{fill:none;stroke:#000000;stroke-width:0.25;stroke-linecap:round;stroke-miterlimit:10;stroke-dasharray:0.4998,0.9996;}
	.st32{fill:none;stroke:#000000;stroke-width:0.25;stroke-linecap:round;stroke-miterlimit:10;stroke-dasharray:0.5222,1.0444;}
	.st33{opacity:0.8;fill:none;stroke:#F7931E;stroke-width:0.5;stroke-linecap:round;stroke-miterlimit:10;}
	.st34{opacity:0.8;fill:none;stroke:#009245;stroke-width:0.5;stroke-linecap:round;stroke-linejoin:round;stroke-miterlimit:10;}
	.st35{fill:none;stroke:#3FA9F5;stroke-width:0.5;stroke-linecap:round;stroke-linejoin:round;stroke-miterlimit:10;}
	.st36{fill:none;stroke:#000000;stroke-width:0.25;stroke-linecap:round;stroke-miterlimit:10;stroke-dasharray:0.5079,1.0157;}
	.st37{fill:none;stroke:#1075A1;stroke-width:0.5;stroke-linecap:round;stroke-miterlimit:10;}
	.st38{fill:none;stroke:#29ABE2;stroke-width:0.5;stroke-linecap:round;stroke-miterlimit:10;}
	.st39{fill:none;stroke:#29ABE2;stroke-width:0.5;stroke-linecap:round;stroke-miterlimit:10;stroke-dasharray:0.7061,1.0087;}
	.st40{fill:none;stroke:#29ABE2;stroke-width:0.5;stroke-linecap:round;stroke-miterlimit:10;stroke-dasharray:0.7663,1.0947;}
	.st41{fill:none;stroke:#29ABE2;stroke-width:0.5;stroke-linecap:round;stroke-miterlimit:10;stroke-dasharray:0.71,1.0142;}
	.st42{fill:none;stroke:#29ABE2;stroke-width:0.5;stroke-linecap:round;stroke-miterlimit:10;stroke-dasharray:0.7248,1.0355;}
	.st43{fill:none;stroke:#ED1C24;stroke-width:0.5;stroke-linecap:round;stroke-miterlimit:10;}
	.st44{fill:none;stroke:#ED1C24;stroke-width:0.5;stroke-linecap:round;stroke-miterlimit:10;stroke-dasharray:0.4655,0.9309;}
	.st45{fill:none;stroke:#ED1C24;stroke-width:0.5;stroke-linecap:round;stroke-miterlimit:10;stroke-dasharray:0.4929,0.9858;}
	.st46{fill:none;stroke:#ED1C24;stroke-width:0.5;stroke-linecap:round;stroke-miterlimit:10;stroke-dasharray:0.4882,0.9763;}
	.st47{fill:none;stroke:#ED1C24;stroke-width:0.5;stroke-linecap:round;stroke-miterlimit:10;stroke-dasharray:0.4951,0.9903;}
</style>
<g id="Layer_2">
</g>
<g id="Layer_1">
	<g>
		<g>
			<line class="st12" x1="25.1" y1="27.9" x2="45.1" y2="27.9"/>
			<line class="st12" x1="56.1" y1="27.9" x2="76.1" y2="27.9"/>
			<path class="st12" d="M45.1,7.9l-5.5,0c-0.1-1-0.7-1.7-1.5-1.7s-1.4,0.7-1.5,1.7c-0.1-1-0.7-1.7-1.5-1.7s-1.4,0.7-1.5,1.7
				c-0.1-1-0.7-1.7-1.5-1.7s-1.4,0.7-1.5,1.7l-5.5,0"/>
			<polyline class="st12" points="76.1,27.9 76.1,22.4 77.6,21.1 74.6,19.8 77.6,18.5 74.6,17.2 77.6,15.9 74.6,14.6 76.1,13.4 
				76.1,7.9 			"/>
			<g>
				<line class="st12" x1="65.1" y1="16.9" x2="65.1" y2="7.9"/>
				<line class="st12" x1="65.1" y1="27.9" x2="65.1" y2="18.9"/>
				<line class="st12" x1="62.6" y1="18.9" x2="67.6" y2="18.9"/>
				<line class="st12" x1="62.6" y1="16.9" x2="67.6" y2="16.9"/>
			</g>
			<g>
				<g>
					<line class="st13" x1="56.1" y1="7.9" x2="65.1" y2="7.9"/>
					<line class="st13" x1="45.1" y1="7.9" x2="54.1" y2="7.9"/>
				</g>
				<g>
					<line class="st13" x1="57.1" y1="6.4" x2="57.1" y2="9.4"/>
					<polygon class="st13" points="57.1,7.9 53.1,6.4 53.1,9.4 					"/>
				</g>
				<line class="st13" x1="56.1" y1="7.9" x2="52.1" y2="7.9"/>
			</g>
			<line class="st12" x1="45.1" y1="27.9" x2="65.1" y2="27.9"/>
			<line class="st12" x1="56.1" y1="7.9" x2="76.1" y2="7.9"/>
			<g>
				<polyline class="st12" points="42.1,14.9 45.1,14.9 45.1,7.9 				"/>
				<polyline class="st12" points="43.1,17.9 45.1,17.9 45.1,20.9 				"/>
				<polyline class="st12" points="42.1,20.9 45.1,20.9 45.1,27.9 				"/>
				<line class="st12" x1="42.1" y1="21.3" x2="42.1" y2="20.3"/>
				<line class="st12" x1="42.1" y1="18.4" x2="42.1" y2="17.4"/>
				<line class="st12" x1="42.1" y1="15.4" x2="42.1" y2="14.4"/>
				<polygon class="st12" points="42.8,17.9 43.8,18.4 43.8,17.3 				"/>
				<line class="st12" x1="47.3" y1="17" x2="48.8" y2="17"/>
				<polygon class="st13" points="48.1,17.3 47.2,18.9 49,18.9 				"/>
				<polyline class="st12" points="40.6,21.3 40.6,14.4 39.2,14.4 				"/>
				<polyline class="st12" points="45.1,20.9 48.1,20.9 48.1,18.7 				"/>
				<polyline class="st12" points="45.1,14.9 48.1,14.9 48.1,17 				"/>
			</g>
		</g>
		<text transform="matrix(1 0 0 1 17.0894 21.8608)" class="st19 st20">V</text>
		<text transform="matrix(0.583 0 0 0.583 19.4898 23.1928)" class="st19 st20">in</text>
		<text transform="matrix(1 0 0 1 36.661 17.1939)" class="st19 st20">Q</text>
		<g>
			<text transform="matrix(1 0 0 1 58.175 19.005)" class="st19 st20">C</text>
			<text transform="matrix(0.583 0 0 0.583 60.5754 20.337)" class="st19 st20">o</text>
		</g>
		<g>
			<text transform="matrix(1 0 0 1 70.5983 18.8514)" class="st19 st20">R</text>
		</g>
		<g>
			<text transform="matrix(1 0 0 1 58.9218 12.5102)" class="st21 st19 st20">i</text>
			<text transform="matrix(0.583 0 0 0.583 61.3222 13.8423)" class="st21 st19 st20">co</text>
			<g>
				<polygon class="st14" points="65.1,13.8 64.6,12.5 65.6,12.5 				"/>
			</g>
			<line class="st15" x1="65.1" y1="10.9" x2="65.1" y2="13.1"/>
		</g>
		<g>
			<text transform="matrix(1 0 0 1 40.3211 24.9043)" class="st21 st19 st20">i</text>
			<text transform="matrix(0.583 0 0 0.583 42.7215 26.2363)" class="st21 st19 st20">Q</text>
			<g>
				<polygon class="st14" points="45.1,26.2 44.6,24.9 45.6,24.9 				"/>
			</g>
			<line class="st15" x1="45.1" y1="23.3" x2="45.1" y2="25.5"/>
		</g>
		<g>
			<text transform="matrix(1 0 0 1 71.3209 11.2836)" class="st21 st19 st20">i</text>
			<text transform="matrix(0.583 0 0 0.583 73.7213 12.6157)" class="st21 st19 st20">o</text>
			<g>
				<polygon class="st14" points="76.1,12.6 75.6,11.3 76.6,11.3 				"/>
			</g>
			<line class="st15" x1="76.1" y1="9.7" x2="76.1" y2="11.9"/>
		</g>
		<g>
			<text transform="matrix(1 0 0 1 60.0684 5.3068)" class="st21 st19 st20">i</text>
			<text transform="matrix(0.583 0 0 0.583 62.4688 6.6389)" class="st21 st19 st20">D</text>
			<g>
				<polygon class="st14" points="62.8,7.9 61.5,8.3 61.5,7.4 				"/>
			</g>
			<line class="st15" x1="59.9" y1="7.9" x2="62.1" y2="7.9"/>
		</g>
		<g>
			<text transform="matrix(1 0 0 1 26.2908 5.3067)" class="st21 st19 st20">i</text>
			<text transform="matrix(0.583 0 0 0.583 28.6912 6.6387)" class="st21 st19 st20">L</text>
			<g>
				<polygon class="st14" points="29,7.9 27.7,8.3 27.7,7.4 				"/>
			</g>
			<line class="st15" x1="26.1" y1="7.9" x2="28.3" y2="7.9"/>
		</g>
		<g>
			<text transform="matrix(1 0 0 1 79.1105 19.0051)" class="st22 st19 st20">v</text>
			<text transform="matrix(0.583 0 0 0.583 81.5108 20.3371)" class="st22 st19 st20">o</text>
			<line class="st17" x1="80.2" y1="10.1" x2="80.2" y2="11.6"/>
			<line class="st17" x1="81" y1="10.8" x2="79.5" y2="10.8"/>
			<line class="st17" x1="81" y1="24.9" x2="79.5" y2="24.9"/>
		</g>
		<g>
			<line class="st12" x1="25.1" y1="14.2" x2="25.1" y2="7.9"/>
			<line class="st12" x1="25.1" y1="27.9" x2="25.1" y2="21.5"/>
			<circle class="st12" cx="25.1" cy="17.9" r="3.7"/>
			<g>
				<line class="st12" x1="25.1" y1="15.7" x2="25.1" y2="17.2"/>
				<line class="st12" x1="25.8" y1="16.4" x2="24.3" y2="16.4"/>
				<line class="st12" x1="25.8" y1="20" x2="24.3" y2="20"/>
			</g>
		</g>
		<g>
			<line class="st16" x1="25.1" y1="10.1" x2="45.1" y2="10.1"/>
			<text transform="matrix(1 0 0 1 33.8275 10.8332)" class="st22 st19 st20">v</text>
			<text transform="matrix(0.583 0 0 0.583 36.2279 12.1652)" class="st22 st19 st20">L</text>
			<line class="st17" x1="27.3" y1="10.1" x2="28.8" y2="10.1"/>
			<line class="st17" x1="28.1" y1="9.3" x2="28.1" y2="10.8"/>
			<line class="st17" x1="42.8" y1="10.1" x2="41.3" y2="10.1"/>
		</g>
		<g>
			<text transform="matrix(1 0 0 1 43.8239 5.7765)" class="st22 st19 st20">v</text>
			<text transform="matrix(0.583 0 0 0.583 46.2243 7.1086)" class="st22 st19 st20">sw</text>
			<circle id="XMLID_00000127758593201478874070000002647419888092288398_" cx="45.1" cy="7.9" r="0.7"/>
		</g>
		<text transform="matrix(1 0 0 1 33.9398 5.1358)" class="st19 st20">L</text>
		<g>
			<text transform="matrix(1 0 0 1 54.0889 5.1356)" class="st19 st20">D</text>
		</g>
	</g>
</g>
</svg>
