<?xml version="1.0" encoding="utf-8"?>
<!-- Generator: Adobe Illustrator 27.5.0, SVG Export Plug-In . SVG Version: 6.00 Build 0)  -->
<svg version="1.1" xmlns="http://www.w3.org/2000/svg" xmlns:xlink="http://www.w3.org/1999/xlink" x="0px" y="0px" width="76.5px"
	 height="26.7px" viewBox="0 0 76.5 26.7" style="enable-background:new 0 0 76.5 26.7;" xml:space="preserve">
<style type="text/css">
	.st0{display:none;}
	.st1{display:inline;}
	.st2{fill:none;stroke:#6A93BF;stroke-width:0.25;stroke-linecap:round;stroke-linejoin:round;stroke-miterlimit:10;}
	
		.st3{display:inline;fill:none;stroke:#6A93BF;stroke-width:0.25;stroke-linecap:round;stroke-linejoin:round;stroke-miterlimit:10;}
	.st4{fill:none;stroke:#FC8754;stroke-width:2;stroke-miterlimit:10;}
	.st5{fill:#FFFFFF;stroke:#000000;stroke-miterlimit:10;}
	.st6{fill:none;stroke:#CAEAFF;stroke-linecap:square;stroke-miterlimit:10;}
	.st7{fill:#CAEAFF;}
	.st8{opacity:0.3;fill:#F21616;}
	.st9{fill:none;stroke:#CAEAFF;stroke-linecap:round;stroke-miterlimit:10;}
	.st10{fill:#FC8754;}
	.st11{fill:none;stroke:#000000;stroke-miterlimit:10;}
	.st12{fill:none;stroke:#000000;stroke-width:0.5;stroke-linecap:round;stroke-linejoin:round;stroke-miterlimit:10;}
	.st13{stroke:#000000;stroke-width:0.5;stroke-linecap:round;stroke-linejoin:round;stroke-miterlimit:10;}
	.st14{fill:#E55D1E;stroke:#E55D1E;stroke-width:0.5;stroke-linecap:round;stroke-linejoin:round;stroke-miterlimit:10;}
	.st15{fill:none;stroke:#E55D1E;stroke-width:0.5;stroke-linecap:round;stroke-linejoin:round;stroke-miterlimit:10;}
	.st16{fill:none;}
	.st17{fill:none;stroke:#1075A1;stroke-width:0.5;stroke-linecap:round;stroke-linejoin:round;stroke-miterlimit:10;}
	.st18{fill:none;stroke:#000000;stroke-width:0.25;stroke-miterlimit:10;}
	.st19{font-family:'Courier-Bold';}
	.st20{font-size:4px;}
	.st21{fill:#E55D1E;}
	.st22{fill:#1075A1;}
</style>
<g id="Layer_2">
</g>
<g id="Layer_1">
	<g>
		<line class="st12" x1="8.8" y1="25.8" x2="28.7" y2="25.8"/>
		<line class="st12" x1="48.8" y1="25.8" x2="68.8" y2="25.8"/>
		<path class="st12" d="M28.8,5.8l-5.5,0c-0.1-1-0.7-1.7-1.5-1.7s-1.4,0.7-1.5,1.7c-0.1-1-0.7-1.7-1.5-1.7s-1.4,0.7-1.5,1.7
			c-0.1-1-0.7-1.7-1.5-1.7c-0.8,0-1.4,0.7-1.5,1.7l-5.5,0"/>
		<polyline class="st12" points="68.8,25.8 68.8,20.3 70.3,19 67.3,17.8 70.3,16.4 67.3,15.2 70.3,13.9 67.3,12.6 68.8,11.3 
			68.8,5.8 		"/>
		<g>
			<line class="st12" x1="48.8" y1="14.8" x2="48.8" y2="5.8"/>
			<line class="st12" x1="48.8" y1="25.8" x2="48.8" y2="16.8"/>
			<line class="st12" x1="46.3" y1="16.8" x2="51.3" y2="16.8"/>
			<line class="st12" x1="46.3" y1="14.8" x2="51.3" y2="14.8"/>
		</g>
		<g>
			<g>
				<line class="st13" x1="39.8" y1="5.8" x2="48.8" y2="5.8"/>
				<line class="st13" x1="28.8" y1="5.8" x2="37.8" y2="5.8"/>
			</g>
			<g>
				<line class="st13" x1="40.8" y1="4.3" x2="40.8" y2="7.3"/>
				<polygon class="st13" points="40.8,5.8 36.8,4.3 36.8,7.3 				"/>
			</g>
			<line class="st13" x1="39.8" y1="5.8" x2="35.8" y2="5.8"/>
		</g>
		<line class="st12" x1="28.8" y1="25.8" x2="48.8" y2="25.8"/>
		<line class="st12" x1="48.8" y1="5.8" x2="68.8" y2="5.8"/>
		<g>
			<polyline class="st12" points="25.8,12.8 28.8,12.8 28.8,5.8 			"/>
			<polyline class="st12" points="26.8,15.8 28.8,15.8 28.8,18.8 			"/>
			<polyline class="st12" points="25.8,18.8 28.8,18.8 28.8,25.8 			"/>
			<line class="st12" x1="25.8" y1="19.3" x2="25.8" y2="18.3"/>
			<line class="st12" x1="25.8" y1="16.3" x2="25.8" y2="15.3"/>
			<line class="st12" x1="25.8" y1="13.3" x2="25.8" y2="12.3"/>
			<polygon class="st12" points="26.4,15.8 27.4,16.4 27.4,15.2 			"/>
			<line class="st12" x1="31" y1="15" x2="32.5" y2="15"/>
			<polygon class="st13" points="31.8,15.2 30.8,16.8 32.7,16.8 			"/>
			<polyline class="st12" points="24.3,19.3 24.3,12.3 22.9,12.3 			"/>
			<polyline class="st12" points="28.8,18.8 31.8,18.8 31.8,16.6 			"/>
			<polyline class="st12" points="28.8,12.8 31.8,12.8 31.8,15 			"/>
		</g>
	</g>
	<text transform="matrix(1 0 0 1 0.7583 19.8134)" class="st19 st20">V</text>
	<text transform="matrix(0.583 0 0 0.583 3.1587 21.1455)" class="st19 st20">in</text>
	<text transform="matrix(1 0 0 1 20.3299 15.1466)" class="st19 st20">Q</text>
	<g>
		<text transform="matrix(1 0 0 1 41.844 16.9576)" class="st19 st20">C</text>
		<text transform="matrix(0.583 0 0 0.583 44.2444 18.2897)" class="st19 st20">o</text>
	</g>
	<g>
		<text transform="matrix(1 0 0 1 63.2672 16.8041)" class="st19 st20">R</text>
	</g>
	<g>
		<text transform="matrix(1 0 0 1 42.5907 10.4629)" class="st21 st19 st20">i</text>
		<text transform="matrix(0.583 0 0 0.583 44.9911 11.7949)" class="st21 st19 st20">co</text>
		<g>
			<polygon class="st14" points="48.8,11.8 48.3,10.5 49.3,10.5 			"/>
		</g>
		<line class="st15" x1="48.8" y1="8.8" x2="48.8" y2="11"/>
	</g>
	<g>
		<text transform="matrix(1 0 0 1 23.9901 22.857)" class="st21 st19 st20">i</text>
		<text transform="matrix(0.583 0 0 0.583 26.3905 24.189)" class="st21 st19 st20">Q</text>
		<g>
			<polygon class="st14" points="28.8,24.2 28.3,22.9 29.3,22.9 			"/>
		</g>
		<line class="st15" x1="28.8" y1="21.2" x2="28.8" y2="23.4"/>
	</g>
	<g>
		<text transform="matrix(1 0 0 1 63.9898 9.2363)" class="st21 st19 st20">i</text>
		<text transform="matrix(0.583 0 0 0.583 66.3902 10.5683)" class="st21 st19 st20">o</text>
		<g>
			<polygon class="st14" points="68.8,10.6 68.3,9.2 69.3,9.2 			"/>
		</g>
		<line class="st15" x1="68.8" y1="7.6" x2="68.8" y2="9.8"/>
	</g>
	<g>
		<text transform="matrix(1 0 0 1 43.7373 3.2595)" class="st21 st19 st20">i</text>
		<text transform="matrix(0.583 0 0 0.583 46.1377 4.5915)" class="st21 st19 st20">D</text>
		<g>
			<polygon class="st14" points="46.5,5.8 45.2,6.3 45.2,5.3 			"/>
		</g>
		<line class="st15" x1="43.5" y1="5.8" x2="45.8" y2="5.8"/>
	</g>
	<g>
		<text transform="matrix(1 0 0 1 9.9598 3.2593)" class="st21 st19 st20">i</text>
		<text transform="matrix(0.583 0 0 0.583 12.3602 4.5914)" class="st21 st19 st20">L</text>
		<g>
			<polygon class="st14" points="12.7,5.8 11.4,6.3 11.4,5.3 			"/>
		</g>
		<line class="st15" x1="9.8" y1="5.8" x2="12" y2="5.8"/>
	</g>
	<g>
		<text transform="matrix(1 0 0 1 71.7794 16.9578)" class="st22 st19 st20">v</text>
		<text transform="matrix(0.583 0 0 0.583 74.1798 18.2898)" class="st22 st19 st20">o</text>
		<line class="st17" x1="72.9" y1="8" x2="72.9" y2="9.5"/>
		<line class="st17" x1="73.6" y1="8.8" x2="72.1" y2="8.8"/>
		<line class="st17" x1="73.6" y1="22.8" x2="72.1" y2="22.8"/>
	</g>
	<g>
		<line class="st12" x1="8.8" y1="12.1" x2="8.8" y2="5.8"/>
		<line class="st12" x1="8.8" y1="25.8" x2="8.8" y2="19.5"/>
		<circle class="st12" cx="8.8" cy="15.8" r="3.7"/>
		<g>
			<line class="st12" x1="8.8" y1="13.6" x2="8.8" y2="15.1"/>
			<line class="st12" x1="9.5" y1="14.4" x2="8" y2="14.4"/>
			<line class="st12" x1="9.5" y1="18" x2="8" y2="18"/>
		</g>
	</g>
	<g>
		<line class="st16" x1="8.7" y1="8" x2="28.7" y2="8"/>
		<text transform="matrix(1 0 0 1 17.4964 8.7859)" class="st22 st19 st20">v</text>
		<text transform="matrix(0.583 0 0 0.583 19.8968 10.1179)" class="st22 st19 st20">L</text>
		<line class="st17" x1="11" y1="8" x2="12.5" y2="8"/>
		<line class="st17" x1="11.7" y1="7.3" x2="11.7" y2="8.8"/>
		<line class="st17" x1="26.5" y1="8" x2="25" y2="8"/>
	</g>
	<g>
		<text transform="matrix(1 0 0 1 27.4928 3.7292)" class="st22 st19 st20">v</text>
		<text transform="matrix(0.583 0 0 0.583 29.8932 5.0612)" class="st22 st19 st20">sw</text>
		<circle id="XMLID_00000127758593201478874070000002647419888092288398_" cx="28.8" cy="5.8" r="0.7"/>
	</g>
</g>
</svg>
