<?xml version="1.0" encoding="utf-8"?>
<!-- Generator: Adobe Illustrator 27.5.0, SVG Export Plug-In . SVG Version: 6.00 Build 0)  -->
<svg version="1.1" xmlns="http://www.w3.org/2000/svg" xmlns:xlink="http://www.w3.org/1999/xlink" x="0px" y="0px" width="80px"
	 height="45px" viewBox="0 0 80 45" style="enable-background:new 0 0 80 45;" xml:space="preserve">
<style type="text/css">
	.st0{display:none;}
	.st1{display:inline;}
	.st2{fill:none;stroke:#6A93BF;stroke-width:0.25;stroke-linecap:round;stroke-linejoin:round;stroke-miterlimit:10;}
	
		.st3{display:inline;fill:none;stroke:#6A93BF;stroke-width:0.25;stroke-linecap:round;stroke-linejoin:round;stroke-miterlimit:10;}
	.st4{fill:none;stroke:#FC8754;stroke-width:2;stroke-miterlimit:10;}
	.st5{fill:#FFFFFF;stroke:#000000;stroke-miterlimit:10;}
	.st6{fill:none;stroke:#CAEAFF;stroke-linecap:square;stroke-miterlimit:10;}
	.st7{fill:#CAEAFF;}
	.st8{opacity:0.3;fill:#F21616;}
	.st9{fill:none;stroke:#CAEAFF;stroke-linecap:round;stroke-miterlimit:10;}
	.st10{fill:#FC8754;}
	.st11{fill:none;stroke:#000000;stroke-miterlimit:10;}
	.st12{fill:none;stroke:#000000;stroke-width:0.5;stroke-linecap:round;stroke-linejoin:round;stroke-miterlimit:10;}
	.st13{stroke:#000000;stroke-width:0.5;stroke-linecap:round;stroke-linejoin:round;stroke-miterlimit:10;}
	.st14{fill:#E55D1E;stroke:#E55D1E;stroke-width:0.5;stroke-linecap:round;stroke-linejoin:round;stroke-miterlimit:10;}
	.st15{fill:none;stroke:#E55D1E;stroke-width:0.5;stroke-linecap:round;stroke-linejoin:round;stroke-miterlimit:10;}
	.st16{fill:none;}
	.st17{fill:none;stroke:#1075A1;stroke-width:0.5;stroke-linecap:round;stroke-linejoin:round;stroke-miterlimit:10;}
	.st18{fill:none;stroke:#000000;stroke-width:0.25;stroke-miterlimit:10;}
	.st19{fill:none;stroke:#29ABE2;stroke-width:0.5;stroke-linecap:round;stroke-linejoin:round;stroke-miterlimit:10;}
	.st20{fill:none;stroke:#ED1C24;stroke-width:0.5;stroke-linecap:round;stroke-linejoin:round;stroke-miterlimit:10;}
	.st21{display:inline;fill:none;stroke:#ED1C24;stroke-width:0.1;stroke-miterlimit:10;}
	.st22{opacity:0.3;}
	.st23{fill:none;stroke:#000000;stroke-width:0.5;stroke-linecap:round;stroke-miterlimit:10;}
	.st24{opacity:0.3;stroke:#000000;stroke-width:0.25;stroke-linecap:round;stroke-miterlimit:10;}
	.st25{fill:none;stroke:#000000;stroke-width:0.25;stroke-linecap:round;stroke-miterlimit:10;}
	.st26{fill:none;stroke:#000000;stroke-width:0.25;stroke-linecap:round;stroke-miterlimit:10;stroke-dasharray:0.4994,0.9989;}
	.st27{fill:none;stroke:#000000;stroke-width:0.25;stroke-linecap:round;stroke-miterlimit:10;stroke-dasharray:0.4998,0.9996;}
	.st28{fill:none;stroke:#000000;stroke-width:0.25;stroke-linecap:round;stroke-miterlimit:10;stroke-dasharray:0.5222,1.0444;}
	.st29{opacity:0.8;fill:none;stroke:#F7931E;stroke-width:0.5;stroke-linecap:round;stroke-miterlimit:10;}
	.st30{opacity:0.8;fill:none;stroke:#009245;stroke-width:0.5;stroke-linecap:round;stroke-linejoin:round;stroke-miterlimit:10;}
	.st31{fill:none;stroke:#3FA9F5;stroke-width:0.5;stroke-linecap:round;stroke-linejoin:round;stroke-miterlimit:10;}
	.st32{fill:none;stroke:#000000;stroke-width:0.25;stroke-linecap:round;stroke-miterlimit:10;stroke-dasharray:0.5079,1.0157;}
	.st33{opacity:0.5;}
	.st34{font-family:'Times-BoldItalic';}
	.st35{font-size:4px;}
	.st36{fill:none;stroke:#1075A1;stroke-width:0.5;stroke-linecap:round;stroke-miterlimit:10;}
	.st37{fill:#29ABE2;}
	.st38{font-family:'Courier-Bold';}
	.st39{fill:#ED1C24;}
	.st40{fill:none;stroke:#29ABE2;stroke-width:0.5;stroke-linecap:round;stroke-miterlimit:10;}
	.st41{fill:none;stroke:#29ABE2;stroke-width:0.5;stroke-linecap:round;stroke-miterlimit:10;stroke-dasharray:0.7061,1.0087;}
	.st42{fill:none;stroke:#29ABE2;stroke-width:0.5;stroke-linecap:round;stroke-miterlimit:10;stroke-dasharray:0.7663,1.0947;}
	.st43{fill:none;stroke:#29ABE2;stroke-width:0.5;stroke-linecap:round;stroke-miterlimit:10;stroke-dasharray:0.71,1.0142;}
	.st44{fill:none;stroke:#29ABE2;stroke-width:0.5;stroke-linecap:round;stroke-miterlimit:10;stroke-dasharray:0.7248,1.0355;}
	.st45{fill:none;stroke:#ED1C24;stroke-width:0.5;stroke-linecap:round;stroke-miterlimit:10;}
	.st46{fill:none;stroke:#ED1C24;stroke-width:0.5;stroke-linecap:round;stroke-miterlimit:10;stroke-dasharray:0.4655,0.9309;}
	.st47{fill:none;stroke:#ED1C24;stroke-width:0.5;stroke-linecap:round;stroke-miterlimit:10;stroke-dasharray:0.4929,0.9858;}
	.st48{fill:none;stroke:#ED1C24;stroke-width:0.5;stroke-linecap:round;stroke-miterlimit:10;stroke-dasharray:0.4882,0.9763;}
	.st49{fill:none;stroke:#ED1C24;stroke-width:0.5;stroke-linecap:round;stroke-miterlimit:10;stroke-dasharray:0.4951,0.9903;}
	.st50{font-size:3px;}
	.st51{fill:#1075A1;}
	.st52{opacity:0.5;fill:none;stroke:#1075A1;stroke-width:0.5;stroke-linecap:round;stroke-miterlimit:10;stroke-dasharray:0.5,1;}
</style>
<g id="Layer_2">
</g>
<g id="Layer_1">
	<g>
		<g class="st22">
			<g>
				<line class="st25" x1="15.5" y1="18.9" x2="15.5" y2="19.1"/>
				<line class="st32" x1="15.5" y1="20.1" x2="15.5" y2="37.9"/>
				<line class="st25" x1="15.5" y1="38.4" x2="15.5" y2="38.7"/>
			</g>
		</g>
		<g class="st22">
			<g>
				<line class="st25" x1="30.8" y1="18.9" x2="30.8" y2="19.1"/>
				<line class="st32" x1="30.8" y1="20.1" x2="30.8" y2="37.9"/>
				<line class="st25" x1="30.8" y1="38.4" x2="30.8" y2="38.7"/>
			</g>
		</g>
		<g>
			<g class="st22">
				<g>
					<line class="st23" x1="8.5" y1="25.9" x2="8.5" y2="4.2"/>
					<g>
						<polygon points="9.3,4.8 8.5,1.6 7.6,4.8 						"/>
					</g>
				</g>
			</g>
			<text transform="matrix(1 0 0 1 74.0904 17.8565)" class="st33 st34 st35">ωt</text>
			<text transform="matrix(1 0 0 1 9.7588 4.2181)" class="st33 st34 st35">V</text>
			<text transform="matrix(1 0 0 1 2.7391 6.9209)" class="st34 st35">V</text>
			<text transform="matrix(0.583 0 0 0.583 5.4071 8.2529)" class="st34 st35">in</text>
			<text transform="matrix(1 0 0 1 1.7821 23.8451)" class="st34 st35">-V</text>
			<text transform="matrix(0.583 0 0 0.583 5.7821 25.1771)" class="st34 st35">in</text>
			<line class="st24" x1="8.5" y1="6.3" x2="7.2" y2="6.3"/>
			<line class="st24" x1="15.5" y1="14.7" x2="15.5" y2="18.9"/>
			<line class="st24" x1="30.8" y1="14.7" x2="30.8" y2="18.9"/>
			<line class="st24" x1="37.8" y1="14.7" x2="37.8" y2="18.9"/>
			<line class="st24" x1="67.1" y1="14.8" x2="67.1" y2="16.3"/>
			<line class="st24" x1="8.5" y1="23.1" x2="7.2" y2="23.1"/>
			<text transform="matrix(1 0 0 1 64.5049 19.3952)" class="st33 st34 st35">2π</text>
			<text transform="matrix(1 0 0 1 36.0816 21.5903)" class="st33 st34 st35">π</text>
			<text transform="matrix(1 0 0 1 33.1556 18.1299)" class="st34 st35">α</text>
			<text transform="matrix(1 0 0 1 21.3147 18.5077)" class="st34 st35">Φ</text>
			<g class="st22">
				<g>
					<line class="st23" x1="8.5" y1="14.7" x2="72.7" y2="14.7"/>
					<g>
						<polygon points="72.1,15.6 75.4,14.7 72.1,13.8 						"/>
					</g>
				</g>
			</g>
			<polyline class="st36" points="67.1,14.7 60.1,14.7 60.1,23.1 52.4,23.1 44.8,23.1 44.8,14.7 37.8,14.7 30.8,14.7 30.8,6.3 
				23.1,6.3 15.5,6.3 15.5,14.7 8.5,14.7 			"/>
			<line class="st24" x1="15.5" y1="17.1" x2="20.9" y2="17.1"/>
			<line class="st24" x1="25.3" y1="17.1" x2="30.8" y2="17.1"/>
			<line class="st24" x1="30.8" y1="17.1" x2="32.5" y2="17.1"/>
			<line class="st24" x1="36" y1="17.1" x2="37.8" y2="17.1"/>
			<text transform="matrix(1 0 0 1 10.8704 18.1299)" class="st34 st35">α</text>
			<line class="st24" x1="8.5" y1="17.1" x2="10.3" y2="17.1"/>
			<line class="st24" x1="13.7" y1="17.1" x2="15.5" y2="17.1"/>
		</g>
		<text transform="matrix(1 0 0 1 21.0351 29.1076)" class="st37 st38 st35">Q</text>
		<text transform="matrix(0.583 0 0 0.583 23.4355 30.4396)" class="st37 st38 st35">1</text>
		<text transform="matrix(1 0 0 1 61.3757 30.4394)" class="st39 st38 st35">Q</text>
		<text transform="matrix(0.583 0 0 0.583 63.7761 31.7714)" class="st39 st38 st35">2</text>
		<g>
			<g class="st22">
				<g>
					<line class="st23" x1="8.5" y1="39.7" x2="8.5" y2="30"/>
					<g>
						<polygon points="9.4,30.6 8.5,27.4 7.6,30.6 						"/>
					</g>
				</g>
			</g>
			<text transform="matrix(1 0 0 1 74.1015 42.8189)" class="st33 st34 st35">ωt</text>
			<line class="st24" x1="67.1" y1="39.7" x2="67.1" y2="41.3"/>
			<line class="st24" x1="37.8" y1="41.2" x2="37.8" y2="39.7"/>
			<text transform="matrix(1 0 0 1 64.5161 44.3576)" class="st33 st34 st35">2π</text>
			<text transform="matrix(1 0 0 1 36.082 43.8461)" class="st33 st34 st35">π</text>
			<g class="st22">
				<g>
					<line class="st23" x1="8.5" y1="39.7" x2="72.7" y2="39.7"/>
					<g>
						<polygon points="72.1,40.6 75.4,39.7 72.1,38.8 						"/>
					</g>
				</g>
			</g>
			<g>
				<g>
					<line class="st40" x1="67.1" y1="39.7" x2="66.7" y2="39.7"/>
					<line class="st41" x1="65.7" y1="39.7" x2="45.7" y2="39.7"/>
					<polyline class="st40" points="45.2,39.7 44.8,39.7 44.8,39.3 					"/>
					<line class="st42" x1="44.8" y1="38.2" x2="44.8" y2="33.2"/>
					<polyline class="st40" points="44.8,32.7 44.8,32.3 44.5,32.3 					"/>
					<polyline class="st43" points="43.4,32.3 37.8,32.3 16.4,32.3 					"/>
					<polyline class="st40" points="15.9,32.3 15.5,32.3 15.5,32.7 					"/>
					<line class="st42" x1="15.5" y1="33.7" x2="15.5" y2="38.8"/>
					<polyline class="st40" points="15.5,39.3 15.5,39.7 15.2,39.7 					"/>
					<line class="st44" x1="14.1" y1="39.7" x2="9.4" y2="39.7"/>
					<line class="st40" x1="8.8" y1="39.7" x2="8.5" y2="39.7"/>
				</g>
			</g>
			<g>
				<g>
					<line class="st45" x1="67.1" y1="39.7" x2="66.8" y2="39.7"/>
					<line class="st46" x1="65.9" y1="39.7" x2="60.8" y2="39.7"/>
					<polyline class="st45" points="60.3,39.7 60.1,39.7 60.1,39.4 					"/>
					<line class="st47" x1="60.1" y1="38.4" x2="60.1" y2="33"/>
					<polyline class="st45" points="60.1,32.5 60.1,32.3 59.8,32.3 					"/>
					<polyline class="st48" points="58.8,32.3 53.1,32.3 31.5,32.3 					"/>
					<polyline class="st45" points="31,32.3 30.8,32.3 30.8,32.5 					"/>
					<line class="st47" x1="30.8" y1="33.5" x2="30.8" y2="38.9"/>
					<polyline class="st45" points="30.8,39.4 30.8,39.7 30.5,39.7 					"/>
					<line class="st49" x1="29.5" y1="39.7" x2="9.2" y2="39.7"/>
					<line class="st45" x1="8.7" y1="39.7" x2="8.5" y2="39.7"/>
				</g>
			</g>
			<text transform="matrix(1 0 0 1 1.8602 30.0668)" class="st33 st38 st50">PWM</text>
		</g>
	</g>
	<text transform="matrix(1 0 0 1 29.8347 5.333)" class="st51 st34 st35">v</text>
	<text transform="matrix(0.583 0 0 0.583 31.6101 6.665)" class="st51 st34 st35">ab</text>
	<g class="st33">
		<text transform="matrix(1 0 0 1 34.3062 11.1511)" class="st51 st34 st35">v</text>
		<text transform="matrix(0.583 0 0 0.583 36.0816 12.4832)" class="st51 st34 st35">1</text>
	</g>
	<path class="st52" d="M67.1,14.7c-4.7,3.7-9.3,7.4-14.7,7.4c-10.7,0-18.7-14.9-29.3-14.9c-5.3,0-10,3.7-14.6,7.4"/>
</g>
</svg>
