<?xml version="1.0" encoding="utf-8"?>
<!-- Generator: Adobe Illustrator 27.5.0, SVG Export Plug-In . SVG Version: 6.00 Build 0)  -->
<svg version="1.1" xmlns="http://www.w3.org/2000/svg" xmlns:xlink="http://www.w3.org/1999/xlink" x="0px" y="0px" width="107.9px"
	 height="31.3px" viewBox="0 0 107.9 31.3" style="enable-background:new 0 0 107.9 31.3;" xml:space="preserve">
<style type="text/css">
	.st0{display:none;}
	.st1{display:inline;}
	.st2{fill:none;stroke:#6A93BF;stroke-width:0.25;stroke-linecap:round;stroke-linejoin:round;stroke-miterlimit:10;}
	
		.st3{display:inline;fill:none;stroke:#6A93BF;stroke-width:0.25;stroke-linecap:round;stroke-linejoin:round;stroke-miterlimit:10;}
	.st4{fill:none;stroke:#FC8754;stroke-width:2;stroke-miterlimit:10;}
	.st5{fill:#FFFFFF;stroke:#000000;stroke-miterlimit:10;}
	.st6{fill:none;stroke:#CAEAFF;stroke-linecap:square;stroke-miterlimit:10;}
	.st7{fill:#CAEAFF;}
	.st8{opacity:0.3;fill:#F21616;}
	.st9{fill:none;stroke:#CAEAFF;stroke-linecap:round;stroke-miterlimit:10;}
	.st10{fill:#FC8754;}
	.st11{fill:none;stroke:#000000;stroke-miterlimit:10;}
	.st12{fill:none;stroke:#000000;stroke-width:0.5;stroke-linecap:round;stroke-linejoin:round;stroke-miterlimit:10;}
	.st13{stroke:#000000;stroke-width:0.5;stroke-linecap:round;stroke-linejoin:round;stroke-miterlimit:10;}
	.st14{font-family:'Courier-Bold';}
	.st15{font-size:4px;}
	.st16{fill:#E55D1E;}
	.st17{fill:#E55D1E;stroke:#E55D1E;stroke-width:0.5;stroke-linecap:round;stroke-linejoin:round;stroke-miterlimit:10;}
	.st18{fill:none;stroke:#E55D1E;stroke-width:0.5;stroke-linecap:round;stroke-linejoin:round;stroke-miterlimit:10;}
	.st19{fill:none;}
	.st20{fill:none;stroke:#1075A1;stroke-width:0.5;stroke-linecap:round;stroke-linejoin:round;stroke-miterlimit:10;}
	.st21{fill:none;stroke:#000000;stroke-width:0.25;stroke-miterlimit:10;}
	.st22{fill:#1075A1;}
</style>
<g id="Layer_2">
</g>
<g id="Layer_1">
	<g>
		<line class="st12" x1="19.8" y1="27.2" x2="39.8" y2="27.2"/>
		<path class="st12" d="M39.8,7.2l-5.5,0c-0.1-1-0.7-1.7-1.5-1.7c-0.8,0-1.4,0.7-1.5,1.7c-0.1-1-0.7-1.7-1.5-1.7s-1.4,0.7-1.5,1.7
			c-0.1-1-0.7-1.7-1.5-1.7s-1.4,0.7-1.5,1.7l-5.5,0"/>
		<g>
			<polyline class="st12" points="36.8,14.2 39.8,14.2 39.8,7.2 			"/>
			<polyline class="st12" points="37.8,17.2 39.8,17.2 39.8,20.2 			"/>
			<polyline class="st12" points="36.8,20.2 39.8,20.2 39.8,27.2 			"/>
			<line class="st12" x1="36.8" y1="20.6" x2="36.8" y2="19.6"/>
			<line class="st12" x1="36.8" y1="17.7" x2="36.8" y2="16.7"/>
			<line class="st12" x1="36.8" y1="14.7" x2="36.8" y2="13.7"/>
			<polygon class="st12" points="37.5,17.2 38.5,17.7 38.5,16.6 			"/>
			<line class="st12" x1="42.1" y1="16.3" x2="43.6" y2="16.3"/>
			<polygon class="st13" points="42.8,16.6 41.9,18.2 43.7,18.2 			"/>
			<polyline class="st12" points="35.3,20.6 35.3,13.7 33.9,13.7 			"/>
			<polyline class="st12" points="39.8,20.2 42.8,20.2 42.8,18 			"/>
			<polyline class="st12" points="39.8,14.2 42.8,14.2 42.8,16.3 			"/>
		</g>
	</g>
	<text transform="matrix(1 0 0 1 11.8098 21.1733)" class="st14 st15">V</text>
	<text transform="matrix(0.583 0 0 0.583 14.2102 22.5053)" class="st14 st15">in</text>
	<text transform="matrix(1 0 0 1 31.3814 16.5065)" class="st14 st15">Q</text>
	<g>
		<text transform="matrix(1 0 0 1 35.0416 24.2169)" class="st16 st14 st15">i</text>
		<text transform="matrix(0.583 0 0 0.583 37.442 25.5489)" class="st16 st14 st15">Q</text>
		<g>
			<polygon class="st17" points="39.8,25.5 39.3,24.2 40.3,24.2 			"/>
		</g>
		<line class="st18" x1="39.8" y1="22.6" x2="39.8" y2="24.8"/>
	</g>
	<g>
		<line class="st12" x1="19.8" y1="13.5" x2="19.8" y2="7.2"/>
		<line class="st12" x1="19.8" y1="27.2" x2="19.8" y2="20.9"/>
		<circle class="st12" cx="19.8" cy="17.2" r="3.7"/>
		<g>
			<line class="st12" x1="19.8" y1="15" x2="19.8" y2="16.5"/>
			<line class="st12" x1="20.6" y1="15.8" x2="19.1" y2="15.8"/>
			<line class="st12" x1="20.6" y1="19.3" x2="19.1" y2="19.3"/>
		</g>
	</g>
	<g>
		<line class="st19" x1="19.8" y1="9.4" x2="39.8" y2="9.4"/>
		<text transform="matrix(1 0 0 1 28.5479 10.1458)" class="st22 st14 st15">v</text>
		<text transform="matrix(0.583 0 0 0.583 30.9483 11.4778)" class="st22 st14 st15">L</text>
		<line class="st20" x1="22" y1="9.4" x2="23.5" y2="9.4"/>
		<line class="st20" x1="22.8" y1="8.6" x2="22.8" y2="10.1"/>
		<line class="st20" x1="37.6" y1="9.4" x2="36.1" y2="9.4"/>
	</g>
	<g>
		<text transform="matrix(1 0 0 1 58.5443 5.089)" class="st22 st14 st15">v</text>
		<text transform="matrix(0.583 0 0 0.583 60.9447 6.4211)" class="st22 st14 st15">D</text>
		<circle id="XMLID_00000160899339993906798160000011124390096643899276_" cx="59.8" cy="7.2" r="0.7"/>
	</g>
	<g>
		<text transform="matrix(1 0 0 1 38.4007 4.747)" class="st22 st14 st15">v</text>
		<text transform="matrix(0.583 0 0 0.583 40.801 6.079)" class="st22 st14 st15">Q</text>
		<circle id="XMLID_00000137818357688776314510000011062575290492067493_" cx="39.8" cy="7.2" r="0.7"/>
	</g>
	<g>
		<g>
			<line class="st12" x1="79.8" y1="27.2" x2="99.8" y2="27.2"/>
			<path class="st12" d="M79.8,7.2l-5.5,0c-0.1-1-0.7-1.7-1.5-1.7c-0.8,0-1.4,0.7-1.5,1.7c-0.1-1-0.7-1.7-1.5-1.7
				c-0.8,0-1.4,0.7-1.5,1.7c-0.1-1-0.7-1.7-1.5-1.7c-0.8,0-1.4,0.7-1.5,1.7l-5.5,0"/>
			<polyline class="st12" points="99.8,27.2 99.8,21.7 101.3,20.4 98.3,19.1 101.3,17.8 98.3,16.5 101.3,15.2 98.3,13.9 99.8,12.7 
				99.8,7.2 			"/>
			<g>
				<line class="st12" x1="79.8" y1="16.2" x2="79.8" y2="7.2"/>
				<line class="st12" x1="79.8" y1="27.2" x2="79.8" y2="18.2"/>
				<line class="st12" x1="77.3" y1="18.2" x2="82.3" y2="18.2"/>
				<line class="st12" x1="77.3" y1="16.2" x2="82.3" y2="16.2"/>
			</g>
			<g>
				<g>
					<line class="st13" x1="59.8" y1="18.2" x2="59.8" y2="27.2"/>
					<line class="st13" x1="59.8" y1="7.2" x2="59.8" y2="16.2"/>
				</g>
				<g>
					<line class="st13" x1="61.3" y1="19.2" x2="58.3" y2="19.2"/>
					<polygon class="st13" points="59.8,19.2 61.3,15.2 58.3,15.2 					"/>
				</g>
				<line class="st13" x1="59.8" y1="18.2" x2="59.8" y2="14.2"/>
			</g>
			<line class="st12" x1="59.8" y1="27.2" x2="79.8" y2="27.2"/>
			<line class="st12" x1="79.8" y1="7.2" x2="99.8" y2="7.2"/>
		</g>
		<text transform="matrix(1 0 0 1 54.7938 18.1638)" class="st14 st15">L</text>
		<g>
			<text transform="matrix(1 0 0 1 72.8954 18.3175)" class="st14 st15">C</text>
			<text transform="matrix(0.583 0 0 0.583 75.2958 19.6496)" class="st14 st15">o</text>
		</g>
		<g>
			<text transform="matrix(1 0 0 1 94.3187 18.164)" class="st14 st15">R</text>
		</g>
		<g>
			<text transform="matrix(1 0 0 1 73.6422 24.1713)" class="st16 st14 st15">i</text>
			<text transform="matrix(0.583 0 0 0.583 76.0426 25.5034)" class="st16 st14 st15">co</text>
			<g>
				<polygon class="st17" points="79.8,25.5 79.3,24.2 80.3,24.2 				"/>
			</g>
			<line class="st18" x1="79.8" y1="22.5" x2="79.8" y2="24.8"/>
		</g>
		<g>
			<text transform="matrix(1 0 0 1 95.0413 10.5962)" class="st16 st14 st15">i</text>
			<text transform="matrix(0.583 0 0 0.583 97.4416 11.9282)" class="st16 st14 st15">o</text>
			<g>
				<polygon class="st17" points="99.8,11.9 99.3,10.6 100.3,10.6 				"/>
			</g>
			<line class="st18" x1="99.8" y1="9" x2="99.8" y2="11.2"/>
		</g>
		<g>
			<text transform="matrix(1 0 0 1 75.5425 4.6192)" class="st16 st14 st15">i</text>
			<text transform="matrix(0.583 0 0 0.583 77.9429 5.9512)" class="st16 st14 st15">L2</text>
			<g>
				<polygon class="st17" points="78.3,7.2 77,7.7 77,6.7 				"/>
			</g>
			<line class="st18" x1="75.4" y1="7.2" x2="77.6" y2="7.2"/>
		</g>
		<g>
			<line class="st19" x1="59.8" y1="9.6" x2="79.8" y2="9.6"/>
			<text transform="matrix(1 0 0 1 67.8803 10.5958)" class="st22 st14 st15">v</text>
			<text transform="matrix(0.583 0 0 0.583 70.2806 11.9279)" class="st22 st14 st15">L2</text>
			<line class="st20" x1="62" y1="9.6" x2="63.5" y2="9.6"/>
			<line class="st20" x1="62.8" y1="8.8" x2="62.8" y2="10.3"/>
			<line class="st20" x1="77.6" y1="9.6" x2="76.1" y2="9.6"/>
		</g>
		<g>
			<line class="st19" x1="39.8" y1="10" x2="59.8" y2="10"/>
			<text transform="matrix(1 0 0 1 45.5418 10.978)" class="st22 st14 st15">v</text>
			<text transform="matrix(0.583 0 0 0.583 47.9422 12.31)" class="st22 st14 st15">CSW</text>
			<line class="st20" x1="42" y1="10" x2="43.5" y2="10"/>
			<line class="st20" x1="42.8" y1="9.3" x2="42.8" y2="10.8"/>
			<line class="st20" x1="57.6" y1="10" x2="56.1" y2="10"/>
		</g>
		<g>
			<text transform="matrix(1 0 0 1 102.8308 18.3177)" class="st22 st14 st15">v</text>
			<text transform="matrix(0.583 0 0 0.583 105.2312 19.6497)" class="st22 st14 st15">o</text>
			<line class="st20" x1="103.9" y1="9.4" x2="103.9" y2="10.9"/>
			<line class="st20" x1="104.7" y1="10.1" x2="103.2" y2="10.1"/>
			<line class="st20" x1="104.7" y1="24.2" x2="103.2" y2="24.2"/>
		</g>
	</g>
	<g>
		<line class="st12" x1="50.8" y1="7.2" x2="59.8" y2="7.2"/>
		<line class="st12" x1="39.8" y1="7.2" x2="48.8" y2="7.2"/>
		<line class="st12" x1="48.8" y1="4.7" x2="48.8" y2="9.7"/>
		<line class="st12" x1="50.8" y1="4.7" x2="50.8" y2="9.7"/>
	</g>
	<line class="st12" x1="59.8" y1="27.2" x2="39.8" y2="27.2"/>
	<g>
		<text transform="matrix(1 0 0 1 55.0416 23.3409)" class="st16 st14 st15">i</text>
		<text transform="matrix(0.583 0 0 0.583 57.442 24.6729)" class="st16 st14 st15">D</text>
		<g>
			<polygon class="st17" points="59.8,24.7 59.3,23.3 60.3,23.3 			"/>
		</g>
		<line class="st18" x1="59.8" y1="21.7" x2="59.8" y2="23.9"/>
	</g>
	<g>
		<text transform="matrix(1 0 0 1 19.9973 4.6192)" class="st16 st14 st15">i</text>
		<text transform="matrix(0.583 0 0 0.583 22.3977 5.9512)" class="st16 st14 st15">L1</text>
		<g>
			<polygon class="st17" points="22.8,7.2 21.4,7.7 21.4,6.7 			"/>
		</g>
		<line class="st18" x1="19.8" y1="7.2" x2="22" y2="7.2"/>
	</g>
</g>
</svg>
