<?xml version="1.0" encoding="utf-8"?>
<!-- Generator: Adobe Illustrator 27.5.0, SVG Export Plug-In . SVG Version: 6.00 Build 0)  -->
<svg version="1.1" xmlns="http://www.w3.org/2000/svg" xmlns:xlink="http://www.w3.org/1999/xlink" x="0px" y="0px" width="96.5px"
	 height="26.7px" viewBox="0 0 96.5 26.7" style="enable-background:new 0 0 96.5 26.7;" xml:space="preserve">
<style type="text/css">
	.st0{display:none;}
	.st1{display:inline;}
	.st2{fill:none;stroke:#6A93BF;stroke-width:0.25;stroke-linecap:round;stroke-linejoin:round;stroke-miterlimit:10;}
	
		.st3{display:inline;fill:none;stroke:#6A93BF;stroke-width:0.25;stroke-linecap:round;stroke-linejoin:round;stroke-miterlimit:10;}
	.st4{fill:none;stroke:#FC8754;stroke-width:2;stroke-miterlimit:10;}
	.st5{fill:#FFFFFF;stroke:#000000;stroke-miterlimit:10;}
	.st6{fill:none;stroke:#CAEAFF;stroke-linecap:square;stroke-miterlimit:10;}
	.st7{fill:#CAEAFF;}
	.st8{opacity:0.3;fill:#F21616;}
	.st9{fill:none;stroke:#CAEAFF;stroke-linecap:round;stroke-miterlimit:10;}
	.st10{fill:#FC8754;}
	.st11{fill:none;stroke:#000000;stroke-miterlimit:10;}
	.st12{fill:none;stroke:#000000;stroke-width:0.5;stroke-linecap:round;stroke-linejoin:round;stroke-miterlimit:10;}
	.st13{stroke:#000000;stroke-width:0.5;stroke-linecap:round;stroke-linejoin:round;stroke-miterlimit:10;}
	.st14{font-family:'Courier-Bold';}
	.st15{font-size:4px;}
	.st16{fill:#E55D1E;}
	.st17{fill:#E55D1E;stroke:#E55D1E;stroke-width:0.5;stroke-linecap:round;stroke-linejoin:round;stroke-miterlimit:10;}
	.st18{fill:none;stroke:#E55D1E;stroke-width:0.5;stroke-linecap:round;stroke-linejoin:round;stroke-miterlimit:10;}
	.st19{fill:none;}
	.st20{fill:none;stroke:#1075A1;stroke-width:0.5;stroke-linecap:round;stroke-linejoin:round;stroke-miterlimit:10;}
	.st21{fill:none;stroke:#000000;stroke-width:0.25;stroke-miterlimit:10;}
	.st22{fill:#1075A1;}
</style>
<g id="Layer_2">
</g>
<g id="Layer_1">
	<g>
		<line class="st12" x1="8.8" y1="25.8" x2="28.7" y2="25.8"/>
		<path class="st12" d="M28.8,5.8l-5.5,0c-0.1-1-0.7-1.7-1.5-1.7s-1.4,0.7-1.5,1.7c-0.1-1-0.7-1.7-1.5-1.7s-1.4,0.7-1.5,1.7
			c-0.1-1-0.7-1.7-1.5-1.7c-0.8,0-1.4,0.7-1.5,1.7l-5.5,0"/>
		<g>
			<polyline class="st12" points="25.8,12.8 28.8,12.8 28.8,5.8 			"/>
			<polyline class="st12" points="26.8,15.8 28.8,15.8 28.8,18.8 			"/>
			<polyline class="st12" points="25.8,18.8 28.8,18.8 28.8,25.8 			"/>
			<line class="st12" x1="25.8" y1="19.3" x2="25.8" y2="18.3"/>
			<line class="st12" x1="25.8" y1="16.3" x2="25.8" y2="15.3"/>
			<line class="st12" x1="25.8" y1="13.3" x2="25.8" y2="12.3"/>
			<polygon class="st12" points="26.4,15.8 27.4,16.4 27.4,15.3 			"/>
			<line class="st12" x1="31" y1="15" x2="32.5" y2="15"/>
			<polygon class="st13" points="31.8,15.3 30.8,16.9 32.7,16.9 			"/>
			<polyline class="st12" points="24.3,19.3 24.3,12.3 22.9,12.3 			"/>
			<polyline class="st12" points="28.8,18.8 31.8,18.8 31.8,16.7 			"/>
			<polyline class="st12" points="28.8,12.8 31.8,12.8 31.8,15 			"/>
		</g>
	</g>
	<text transform="matrix(1 0 0 1 0.7583 19.8528)" class="st14 st15">V</text>
	<text transform="matrix(0.583 0 0 0.583 3.1587 21.1849)" class="st14 st15">in</text>
	<text transform="matrix(1 0 0 1 20.3299 15.186)" class="st14 st15">Q</text>
	<g>
		<text transform="matrix(1 0 0 1 23.9901 22.8964)" class="st16 st14 st15">i</text>
		<text transform="matrix(0.583 0 0 0.583 26.3905 24.2284)" class="st16 st14 st15">Q</text>
		<g>
			<polygon class="st17" points="28.8,24.2 28.3,22.9 29.3,22.9 			"/>
		</g>
		<line class="st18" x1="28.8" y1="21.3" x2="28.8" y2="23.5"/>
	</g>
	<g>
		<line class="st12" x1="8.8" y1="12.1" x2="8.8" y2="5.8"/>
		<line class="st12" x1="8.8" y1="25.8" x2="8.8" y2="19.5"/>
		<circle class="st12" cx="8.8" cy="15.8" r="3.7"/>
		<g>
			<line class="st12" x1="8.8" y1="13.7" x2="8.8" y2="15.2"/>
			<line class="st12" x1="9.5" y1="14.4" x2="8" y2="14.4"/>
			<line class="st12" x1="9.5" y1="18" x2="8" y2="18"/>
		</g>
	</g>
	<g>
		<line class="st19" x1="8.7" y1="8.1" x2="28.7" y2="8.1"/>
		<text transform="matrix(1 0 0 1 17.4964 8.8253)" class="st22 st14 st15">v</text>
		<text transform="matrix(0.583 0 0 0.583 19.8968 10.1573)" class="st22 st14 st15">L</text>
		<line class="st20" x1="11" y1="8.1" x2="12.5" y2="8.1"/>
		<line class="st20" x1="11.7" y1="7.3" x2="11.7" y2="8.8"/>
		<line class="st20" x1="26.5" y1="8.1" x2="25" y2="8.1"/>
	</g>
	<g>
		<text transform="matrix(1 0 0 1 47.4928 3.7686)" class="st22 st14 st15">v</text>
		<text transform="matrix(0.583 0 0 0.583 49.8932 5.1006)" class="st22 st14 st15">D</text>
		<circle id="XMLID_00000160899339993906798160000011124390096643899276_" cx="48.8" cy="5.8" r="0.7"/>
	</g>
	<g>
		<text transform="matrix(1 0 0 1 27.3492 3.4265)" class="st22 st14 st15">v</text>
		<text transform="matrix(0.583 0 0 0.583 29.7495 4.7586)" class="st22 st14 st15">Q</text>
		<circle id="XMLID_00000137818357688776314510000011062575290492067493_" cx="28.8" cy="5.8" r="0.7"/>
	</g>
	<g>
		<g>
			<line class="st12" x1="68.8" y1="25.8" x2="88.8" y2="25.8"/>
			<path class="st12" d="M68.8,5.8l-5.5,0c-0.1-1-0.7-1.7-1.5-1.7s-1.4,0.7-1.5,1.7c-0.1-1-0.7-1.7-1.5-1.7s-1.4,0.7-1.5,1.7
				c-0.1-1-0.7-1.7-1.5-1.7s-1.4,0.7-1.5,1.7l-5.5,0"/>
			<polyline class="st12" points="88.8,25.8 88.8,20.3 90.3,19.1 87.3,17.8 90.3,16.5 87.3,15.2 90.3,13.9 87.3,12.6 88.8,11.3 
				88.8,5.8 			"/>
			<g>
				<line class="st12" x1="68.8" y1="14.8" x2="68.8" y2="5.8"/>
				<line class="st12" x1="68.8" y1="25.8" x2="68.8" y2="16.8"/>
				<line class="st12" x1="66.3" y1="16.8" x2="71.3" y2="16.8"/>
				<line class="st12" x1="66.3" y1="14.8" x2="71.3" y2="14.8"/>
			</g>
			<g>
				<g>
					<line class="st13" x1="48.8" y1="16.8" x2="48.8" y2="25.8"/>
					<line class="st13" x1="48.8" y1="5.8" x2="48.8" y2="14.8"/>
				</g>
				<g>
					<line class="st13" x1="50.3" y1="17.8" x2="47.3" y2="17.8"/>
					<polygon class="st13" points="48.8,17.8 50.3,13.8 47.3,13.8 					"/>
				</g>
				<line class="st13" x1="48.8" y1="16.8" x2="48.8" y2="12.8"/>
			</g>
			<line class="st12" x1="48.8" y1="25.8" x2="68.8" y2="25.8"/>
			<line class="st12" x1="68.8" y1="5.8" x2="88.8" y2="5.8"/>
		</g>
		<text transform="matrix(1 0 0 1 43.7423 16.8434)" class="st14 st15">L</text>
		<g>
			<text transform="matrix(1 0 0 1 61.8439 16.9971)" class="st14 st15">C</text>
			<text transform="matrix(0.583 0 0 0.583 64.2443 18.3291)" class="st14 st15">o</text>
		</g>
		<g>
			<text transform="matrix(1 0 0 1 83.2672 16.8435)" class="st14 st15">R</text>
		</g>
		<g>
			<text transform="matrix(1 0 0 1 62.5907 22.8509)" class="st16 st14 st15">i</text>
			<text transform="matrix(0.583 0 0 0.583 64.9911 24.1829)" class="st16 st14 st15">co</text>
			<g>
				<polygon class="st17" points="68.8,24.2 68.3,22.9 69.3,22.9 				"/>
			</g>
			<line class="st18" x1="68.8" y1="21.2" x2="68.8" y2="23.4"/>
		</g>
		<g>
			<text transform="matrix(1 0 0 1 83.9897 9.2757)" class="st16 st14 st15">i</text>
			<text transform="matrix(0.583 0 0 0.583 86.3901 10.6077)" class="st16 st14 st15">o</text>
			<g>
				<polygon class="st17" points="88.8,10.6 88.3,9.3 89.3,9.3 				"/>
			</g>
			<line class="st18" x1="88.8" y1="7.6" x2="88.8" y2="9.9"/>
		</g>
		<g>
			<text transform="matrix(1 0 0 1 64.491 3.2987)" class="st16 st14 st15">i</text>
			<text transform="matrix(0.583 0 0 0.583 66.8914 4.6308)" class="st16 st14 st15">L2</text>
			<g>
				<polygon class="st17" points="67.2,5.8 65.9,6.3 65.9,5.4 				"/>
			</g>
			<line class="st18" x1="64.3" y1="5.8" x2="66.5" y2="5.8"/>
		</g>
		<g>
			<line class="st19" x1="48.8" y1="8.3" x2="68.8" y2="8.3"/>
			<text transform="matrix(1 0 0 1 56.8288 9.2754)" class="st22 st14 st15">v</text>
			<text transform="matrix(0.583 0 0 0.583 59.2291 10.6074)" class="st22 st14 st15">L2</text>
			<line class="st20" x1="51" y1="8.3" x2="52.5" y2="8.3"/>
			<line class="st20" x1="51.7" y1="7.5" x2="51.7" y2="9"/>
			<line class="st20" x1="66.5" y1="8.3" x2="65" y2="8.3"/>
		</g>
		<g>
			<line class="st19" x1="28.7" y1="8.7" x2="48.7" y2="8.7"/>
			<text transform="matrix(1 0 0 1 34.4903 9.6575)" class="st22 st14 st15">v</text>
			<text transform="matrix(0.583 0 0 0.583 36.8907 10.9895)" class="st22 st14 st15">CSW</text>
			<line class="st20" x1="31" y1="8.7" x2="32.5" y2="8.7"/>
			<line class="st20" x1="31.7" y1="7.9" x2="31.7" y2="9.4"/>
			<line class="st20" x1="46.5" y1="8.7" x2="45" y2="8.7"/>
		</g>
		<g>
			<text transform="matrix(1 0 0 1 91.7793 16.9972)" class="st22 st14 st15">v</text>
			<text transform="matrix(0.583 0 0 0.583 94.1797 18.3292)" class="st22 st14 st15">o</text>
			<line class="st20" x1="92.9" y1="8.1" x2="92.9" y2="9.6"/>
			<line class="st20" x1="93.6" y1="8.8" x2="92.1" y2="8.8"/>
			<line class="st20" x1="93.6" y1="22.9" x2="92.1" y2="22.9"/>
		</g>
	</g>
	<g>
		<line class="st12" x1="39.8" y1="5.8" x2="48.8" y2="5.8"/>
		<line class="st12" x1="28.8" y1="5.8" x2="37.8" y2="5.8"/>
		<line class="st12" x1="37.8" y1="3.3" x2="37.8" y2="8.3"/>
		<line class="st12" x1="39.8" y1="3.3" x2="39.8" y2="8.3"/>
	</g>
	<line class="st12" x1="48.8" y1="25.8" x2="28.7" y2="25.8"/>
	<g>
		<text transform="matrix(1 0 0 1 43.9901 22.0204)" class="st16 st14 st15">i</text>
		<text transform="matrix(0.583 0 0 0.583 46.3905 23.3525)" class="st16 st14 st15">D</text>
		<g>
			<polygon class="st17" points="48.8,23.3 48.3,22 49.3,22 			"/>
		</g>
		<line class="st18" x1="48.8" y1="20.4" x2="48.8" y2="22.6"/>
	</g>
	<g>
		<text transform="matrix(1 0 0 1 8.9458 3.2987)" class="st16 st14 st15">i</text>
		<text transform="matrix(0.583 0 0 0.583 11.3462 4.6308)" class="st16 st14 st15">L1</text>
		<g>
			<polygon class="st17" points="11.7,5.8 10.4,6.3 10.4,5.4 			"/>
		</g>
		<line class="st18" x1="8.8" y1="5.8" x2="11" y2="5.8"/>
	</g>
</g>
</svg>
