<?xml version="1.0" encoding="utf-8"?>
<!-- Generator: Adobe Illustrator 27.5.0, SVG Export Plug-In . SVG Version: 6.00 Build 0)  -->
<svg version="1.1" xmlns="http://www.w3.org/2000/svg" xmlns:xlink="http://www.w3.org/1999/xlink" x="0px" y="0px" width="100px"
	 height="30px" viewBox="0 0 100 30" style="enable-background:new 0 0 100 30;" xml:space="preserve">
<style type="text/css">
	.st0{display:none;}
	.st1{display:inline;}
	.st2{fill:none;stroke:#6A93BF;stroke-width:0.25;stroke-linecap:round;stroke-linejoin:round;stroke-miterlimit:10;}
	
		.st3{display:inline;fill:none;stroke:#6A93BF;stroke-width:0.25;stroke-linecap:round;stroke-linejoin:round;stroke-miterlimit:10;}
	.st4{fill:none;stroke:#FC8754;stroke-width:2;stroke-miterlimit:10;}
	.st5{fill:#FFFFFF;stroke:#000000;stroke-miterlimit:10;}
	.st6{fill:none;stroke:#CAEAFF;stroke-linecap:square;stroke-miterlimit:10;}
	.st7{fill:#CAEAFF;}
	.st8{opacity:0.3;fill:#F21616;}
	.st9{fill:none;stroke:#CAEAFF;stroke-linecap:round;stroke-miterlimit:10;}
	.st10{fill:#FC8754;}
	.st11{fill:none;stroke:#000000;stroke-miterlimit:10;}
	.st12{fill:none;stroke:#000000;stroke-width:0.5;stroke-linecap:round;stroke-linejoin:round;stroke-miterlimit:10;}
	.st13{stroke:#000000;stroke-width:0.5;stroke-linecap:round;stroke-linejoin:round;stroke-miterlimit:10;}
	.st14{fill:#E55D1E;stroke:#E55D1E;stroke-width:0.5;stroke-linecap:round;stroke-linejoin:round;stroke-miterlimit:10;}
	.st15{fill:none;stroke:#E55D1E;stroke-width:0.5;stroke-linecap:round;stroke-linejoin:round;stroke-miterlimit:10;}
	.st16{fill:none;}
	.st17{fill:none;stroke:#1075A1;stroke-width:0.5;stroke-linecap:round;stroke-linejoin:round;stroke-miterlimit:10;}
	.st18{fill:none;stroke:#000000;stroke-width:0.25;stroke-miterlimit:10;}
	.st19{font-family:'Courier-Bold';}
	.st20{font-size:4px;}
	.st21{fill:#E55D1E;}
	.st22{fill:#1075A1;}
</style>
<g id="Layer_2">
</g>
<g id="Layer_1">
	<g>
		<g>
			<line class="st12" x1="10.6" y1="27.9" x2="30.6" y2="27.9"/>
			<path class="st12" d="M30.6,7.9l-5.5,0c-0.1-1-0.7-1.7-1.5-1.7c-0.8,0-1.4,0.7-1.5,1.7c-0.1-1-0.7-1.7-1.5-1.7
				c-0.8,0-1.4,0.7-1.5,1.7c-0.1-1-0.7-1.7-1.5-1.7c-0.8,0-1.4,0.7-1.5,1.7l-5.5,0"/>
			<g>
				<polyline class="st12" points="27.6,14.9 30.6,14.9 30.6,7.9 				"/>
				<polyline class="st12" points="28.6,17.9 30.6,17.9 30.6,20.9 				"/>
				<polyline class="st12" points="27.6,20.9 30.6,20.9 30.6,27.9 				"/>
				<line class="st12" x1="27.6" y1="21.3" x2="27.6" y2="20.3"/>
				<line class="st12" x1="27.6" y1="18.4" x2="27.6" y2="17.4"/>
				<line class="st12" x1="27.6" y1="15.4" x2="27.6" y2="14.4"/>
				<polygon class="st12" points="28.3,17.9 29.3,18.4 29.3,17.3 				"/>
				<line class="st12" x1="32.8" y1="17" x2="34.3" y2="17"/>
				<polygon class="st13" points="33.6,17.3 32.7,18.9 34.5,18.9 				"/>
				<polyline class="st12" points="26.1,21.3 26.1,14.4 24.7,14.4 				"/>
				<polyline class="st12" points="30.6,20.9 33.6,20.9 33.6,18.7 				"/>
				<polyline class="st12" points="30.6,14.9 33.6,14.9 33.6,17 				"/>
			</g>
		</g>
		<text transform="matrix(1 0 0 1 2.5895 21.8607)" class="st19 st20">V</text>
		<text transform="matrix(0.583 0 0 0.583 4.9899 23.1927)" class="st19 st20">in</text>
		<text transform="matrix(1 0 0 1 22.161 17.1939)" class="st19 st20">Q</text>
		<g>
			<text transform="matrix(1 0 0 1 25.8212 24.9043)" class="st21 st19 st20">i</text>
			<text transform="matrix(0.583 0 0 0.583 28.2216 26.2363)" class="st21 st19 st20">Q</text>
			<g>
				<polygon class="st14" points="30.6,26.2 30.1,24.9 31.1,24.9 				"/>
			</g>
			<line class="st15" x1="30.6" y1="23.3" x2="30.6" y2="25.5"/>
		</g>
		<g>
			<line class="st12" x1="10.6" y1="14.2" x2="10.6" y2="7.9"/>
			<line class="st12" x1="10.6" y1="27.9" x2="10.6" y2="21.5"/>
			<circle class="st12" cx="10.6" cy="17.9" r="3.7"/>
			<g>
				<line class="st12" x1="10.6" y1="15.7" x2="10.6" y2="17.2"/>
				<line class="st12" x1="11.3" y1="16.4" x2="9.8" y2="16.4"/>
				<line class="st12" x1="11.3" y1="20" x2="9.8" y2="20"/>
			</g>
		</g>
		<g>
			<line class="st16" x1="10.6" y1="10.1" x2="30.6" y2="10.1"/>
			<text transform="matrix(1 0 0 1 19.3276 10.8332)" class="st22 st19 st20">v</text>
			<text transform="matrix(0.583 0 0 0.583 21.728 12.1652)" class="st22 st19 st20">L</text>
			<line class="st17" x1="12.8" y1="10.1" x2="14.3" y2="10.1"/>
			<line class="st17" x1="13.6" y1="9.3" x2="13.6" y2="10.8"/>
			<line class="st17" x1="28.3" y1="10.1" x2="26.8" y2="10.1"/>
		</g>
		<g>
			<text transform="matrix(1 0 0 1 49.3239 5.7765)" class="st22 st19 st20">v</text>
			<text transform="matrix(0.583 0 0 0.583 51.7243 7.1085)" class="st22 st19 st20">D</text>
			<circle id="XMLID_00000160899339993906798160000011124390096643899276_" cx="50.6" cy="7.9" r="0.7"/>
		</g>
		<g>
			<text transform="matrix(1 0 0 1 29.1803 5.4344)" class="st22 st19 st20">v</text>
			<text transform="matrix(0.583 0 0 0.583 31.5807 6.7665)" class="st22 st19 st20">Q</text>
			<circle id="XMLID_00000137818357688776314510000011062575290492067493_" cx="30.6" cy="7.9" r="0.7"/>
		</g>
		<g>
			<g>
				<line class="st12" x1="70.6" y1="27.9" x2="90.6" y2="27.9"/>
				<path class="st12" d="M70.6,7.9l-5.5,0c-0.1-1-0.7-1.7-1.5-1.7s-1.4,0.7-1.5,1.7c-0.1-1-0.7-1.7-1.5-1.7s-1.4,0.7-1.5,1.7
					c-0.1-1-0.7-1.7-1.5-1.7s-1.4,0.7-1.5,1.7l-5.5,0"/>
				<polyline class="st12" points="90.6,27.9 90.6,22.4 92.1,21.1 89.1,19.8 92.1,18.5 89.1,17.2 92.1,15.9 89.1,14.6 90.6,13.4 
					90.6,7.9 				"/>
				<g>
					<line class="st12" x1="70.6" y1="16.9" x2="70.6" y2="7.9"/>
					<line class="st12" x1="70.6" y1="27.9" x2="70.6" y2="18.9"/>
					<line class="st12" x1="68.1" y1="18.9" x2="73.1" y2="18.9"/>
					<line class="st12" x1="68.1" y1="16.9" x2="73.1" y2="16.9"/>
				</g>
				<g>
					<g>
						<line class="st13" x1="50.6" y1="18.9" x2="50.6" y2="27.9"/>
						<line class="st13" x1="50.6" y1="7.9" x2="50.6" y2="16.9"/>
					</g>
					<g>
						<line class="st13" x1="52.1" y1="19.9" x2="49.1" y2="19.9"/>
						<polygon class="st13" points="50.6,19.9 52.1,15.9 49.1,15.9 						"/>
					</g>
					<line class="st13" x1="50.6" y1="18.9" x2="50.6" y2="14.9"/>
				</g>
				<line class="st12" x1="50.6" y1="27.9" x2="70.6" y2="27.9"/>
				<line class="st12" x1="70.6" y1="7.9" x2="90.6" y2="7.9"/>
			</g>
			<text transform="matrix(1 0 0 1 45.5734 18.8512)" class="st19 st20">L</text>
			<g>
				<text transform="matrix(1 0 0 1 63.6751 19.005)" class="st19 st20">C</text>
				<text transform="matrix(0.583 0 0 0.583 66.0755 20.337)" class="st19 st20">o</text>
			</g>
			<g>
				<text transform="matrix(1 0 0 1 85.0983 18.8514)" class="st19 st20">R</text>
			</g>
			<g>
				<text transform="matrix(1 0 0 1 64.4218 24.8588)" class="st21 st19 st20">i</text>
				<text transform="matrix(0.583 0 0 0.583 66.8222 26.1908)" class="st21 st19 st20">co</text>
				<g>
					<polygon class="st14" points="70.6,26.2 70.1,24.9 71.1,24.9 					"/>
				</g>
				<line class="st15" x1="70.6" y1="23.2" x2="70.6" y2="25.4"/>
			</g>
			<g>
				<text transform="matrix(1 0 0 1 85.8209 11.2836)" class="st21 st19 st20">i</text>
				<text transform="matrix(0.583 0 0 0.583 88.2213 12.6156)" class="st21 st19 st20">o</text>
				<g>
					<polygon class="st14" points="90.6,12.6 90.1,11.3 91.1,11.3 					"/>
				</g>
				<line class="st15" x1="90.6" y1="9.7" x2="90.6" y2="11.9"/>
			</g>
			<g>
				<text transform="matrix(1 0 0 1 66.3222 5.3066)" class="st21 st19 st20">i</text>
				<text transform="matrix(0.583 0 0 0.583 68.7225 6.6386)" class="st21 st19 st20">L2</text>
				<g>
					<polygon class="st14" points="69.1,7.9 67.8,8.3 67.8,7.4 					"/>
				</g>
				<line class="st15" x1="66.1" y1="7.9" x2="68.4" y2="7.9"/>
			</g>
			<g>
				<line class="st16" x1="50.6" y1="10.3" x2="70.6" y2="10.3"/>
				<text transform="matrix(1 0 0 1 58.6599 11.2833)" class="st22 st19 st20">v</text>
				<text transform="matrix(0.583 0 0 0.583 61.0603 12.6153)" class="st22 st19 st20">L2</text>
				<line class="st17" x1="52.8" y1="10.3" x2="54.3" y2="10.3"/>
				<line class="st17" x1="53.6" y1="9.5" x2="53.6" y2="11"/>
				<line class="st17" x1="68.4" y1="10.3" x2="66.9" y2="10.3"/>
			</g>
			<g>
				<line class="st16" x1="30.6" y1="10.7" x2="50.6" y2="10.7"/>
				<text transform="matrix(1 0 0 1 36.3214 11.6654)" class="st22 st19 st20">v</text>
				<text transform="matrix(0.583 0 0 0.583 38.7218 12.9974)" class="st22 st19 st20">CSW</text>
				<line class="st17" x1="32.8" y1="10.7" x2="34.3" y2="10.7"/>
				<line class="st17" x1="33.6" y1="9.9" x2="33.6" y2="11.4"/>
				<line class="st17" x1="48.3" y1="10.7" x2="46.8" y2="10.7"/>
			</g>
			<g>
				<text transform="matrix(1 0 0 1 93.6105 19.0051)" class="st22 st19 st20">v</text>
				<text transform="matrix(0.583 0 0 0.583 96.0109 20.3371)" class="st22 st19 st20">o</text>
				<line class="st17" x1="94.7" y1="10.1" x2="94.7" y2="11.6"/>
				<line class="st17" x1="95.5" y1="10.8" x2="94" y2="10.8"/>
				<line class="st17" x1="95.5" y1="24.9" x2="94" y2="24.9"/>
			</g>
		</g>
		<g>
			<line class="st12" x1="41.6" y1="7.9" x2="50.6" y2="7.9"/>
			<line class="st12" x1="30.6" y1="7.9" x2="39.6" y2="7.9"/>
			<line class="st12" x1="39.6" y1="5.4" x2="39.6" y2="10.4"/>
			<line class="st12" x1="41.6" y1="5.4" x2="41.6" y2="10.4"/>
		</g>
		<line class="st12" x1="50.6" y1="27.9" x2="30.6" y2="27.9"/>
		<g>
			<text transform="matrix(1 0 0 1 45.8212 24.0283)" class="st21 st19 st20">i</text>
			<text transform="matrix(0.583 0 0 0.583 48.2216 25.3604)" class="st21 st19 st20">D</text>
			<g>
				<polygon class="st14" points="50.6,25.3 50.1,24 51.1,24 				"/>
			</g>
			<line class="st15" x1="50.6" y1="22.4" x2="50.6" y2="24.6"/>
		</g>
		<g>
			<text transform="matrix(1 0 0 1 10.777 5.3066)" class="st21 st19 st20">i</text>
			<text transform="matrix(0.583 0 0 0.583 13.1774 6.6387)" class="st21 st19 st20">L1</text>
			<g>
				<polygon class="st14" points="13.5,7.9 12.2,8.3 12.2,7.4 				"/>
			</g>
			<line class="st15" x1="10.6" y1="7.9" x2="12.8" y2="7.9"/>
		</g>
	</g>
</g>
</svg>
