<?xml version="1.0" encoding="utf-8"?>
<!-- Generator: Adobe Illustrator 27.5.0, SVG Export Plug-In . SVG Version: 6.00 Build 0)  -->
<svg version="1.1" xmlns="http://www.w3.org/2000/svg" xmlns:xlink="http://www.w3.org/1999/xlink" x="0px" y="0px" width="100px"
	 height="30px" viewBox="0 0 100 30" style="enable-background:new 0 0 100 30;" xml:space="preserve">
<style type="text/css">
	.st0{display:none;}
	.st1{display:inline;}
	.st2{fill:none;stroke:#6A93BF;stroke-width:0.25;stroke-linecap:round;stroke-linejoin:round;stroke-miterlimit:10;}
	
		.st3{display:inline;fill:none;stroke:#6A93BF;stroke-width:0.25;stroke-linecap:round;stroke-linejoin:round;stroke-miterlimit:10;}
	.st4{fill:none;stroke:#FC8754;stroke-width:2;stroke-miterlimit:10;}
	.st5{fill:#FFFFFF;stroke:#000000;stroke-miterlimit:10;}
	.st6{fill:none;stroke:#CAEAFF;stroke-linecap:square;stroke-miterlimit:10;}
	.st7{fill:#CAEAFF;}
	.st8{opacity:0.3;fill:#F21616;}
	.st9{fill:none;stroke:#CAEAFF;stroke-linecap:round;stroke-miterlimit:10;}
	.st10{fill:#FC8754;}
	.st11{fill:none;stroke:#000000;stroke-miterlimit:10;}
	.st12{fill:none;stroke:#000000;stroke-width:0.5;stroke-linecap:round;stroke-linejoin:round;stroke-miterlimit:10;}
	.st13{stroke:#000000;stroke-width:0.5;stroke-linecap:round;stroke-linejoin:round;stroke-miterlimit:10;}
	.st14{fill:#E55D1E;stroke:#E55D1E;stroke-width:0.5;stroke-linecap:round;stroke-linejoin:round;stroke-miterlimit:10;}
	.st15{fill:none;stroke:#E55D1E;stroke-width:0.5;stroke-linecap:round;stroke-linejoin:round;stroke-miterlimit:10;}
	.st16{fill:none;}
	.st17{fill:none;stroke:#1075A1;stroke-width:0.5;stroke-linecap:round;stroke-linejoin:round;stroke-miterlimit:10;}
	.st18{fill:none;stroke:#000000;stroke-width:0.25;stroke-miterlimit:10;}
	.st19{font-family:'Courier-Bold';}
	.st20{font-size:4px;}
	.st21{fill:#E55D1E;}
	.st22{fill:#1075A1;}
</style>
<g id="Layer_2">
</g>
<g id="Layer_1">
	<g>
		<g>
			<line class="st12" x1="15.1" y1="27.9" x2="35.1" y2="27.9"/>
			<path class="st12" d="M35.1,7.9l-5.5,0c-0.1-1-0.7-1.7-1.5-1.7c-0.8,0-1.4,0.7-1.5,1.7c-0.1-1-0.7-1.7-1.5-1.7
				c-0.8,0-1.4,0.7-1.5,1.7c-0.1-1-0.7-1.7-1.5-1.7c-0.8,0-1.4,0.7-1.5,1.7l-5.5,0"/>
			<g>
				<polyline class="st12" points="32.1,14.9 35.1,14.9 35.1,7.9 				"/>
				<polyline class="st12" points="33.1,17.9 35.1,17.9 35.1,20.9 				"/>
				<polyline class="st12" points="32.1,20.9 35.1,20.9 35.1,27.9 				"/>
				<line class="st12" x1="32.1" y1="21.3" x2="32.1" y2="20.3"/>
				<line class="st12" x1="32.1" y1="18.4" x2="32.1" y2="17.4"/>
				<line class="st12" x1="32.1" y1="15.4" x2="32.1" y2="14.4"/>
				<polygon class="st12" points="32.8,17.9 33.8,18.4 33.8,17.3 				"/>
				<line class="st12" x1="37.3" y1="17" x2="38.8" y2="17"/>
				<polygon class="st13" points="38.1,17.3 37.2,18.9 39,18.9 				"/>
				<polyline class="st12" points="30.6,21.3 30.6,14.4 29.2,14.4 				"/>
				<polyline class="st12" points="35.1,20.9 38.1,20.9 38.1,18.7 				"/>
				<polyline class="st12" points="35.1,14.9 38.1,14.9 38.1,17 				"/>
			</g>
		</g>
		<text transform="matrix(1 0 0 1 7.0895 21.8607)" class="st19 st20">V</text>
		<text transform="matrix(0.583 0 0 0.583 9.4899 23.1927)" class="st19 st20">in</text>
		<text transform="matrix(1 0 0 1 26.661 17.1939)" class="st19 st20">Q</text>
		<g>
			<text transform="matrix(1 0 0 1 30.3212 24.9043)" class="st21 st19 st20">i</text>
			<text transform="matrix(0.583 0 0 0.583 32.7216 26.2363)" class="st21 st19 st20">Q</text>
			<g>
				<polygon class="st14" points="35.1,26.2 34.6,24.9 35.6,24.9 				"/>
			</g>
			<line class="st15" x1="35.1" y1="23.3" x2="35.1" y2="25.5"/>
		</g>
		<g>
			<line class="st12" x1="15.1" y1="14.2" x2="15.1" y2="7.9"/>
			<line class="st12" x1="15.1" y1="27.9" x2="15.1" y2="21.5"/>
			<circle class="st12" cx="15.1" cy="17.9" r="3.7"/>
			<g>
				<line class="st12" x1="15.1" y1="15.7" x2="15.1" y2="17.2"/>
				<line class="st12" x1="15.8" y1="16.4" x2="14.3" y2="16.4"/>
				<line class="st12" x1="15.8" y1="20" x2="14.3" y2="20"/>
			</g>
		</g>
		<g>
			<line class="st16" x1="15.1" y1="10.1" x2="35.1" y2="10.1"/>
			<text transform="matrix(1 0 0 1 23.8276 10.8332)" class="st22 st19 st20">v</text>
			<text transform="matrix(0.583 0 0 0.583 26.228 12.1652)" class="st22 st19 st20">L</text>
			<line class="st17" x1="17.3" y1="10.1" x2="18.8" y2="10.1"/>
			<line class="st17" x1="18.1" y1="9.3" x2="18.1" y2="10.8"/>
			<line class="st17" x1="32.8" y1="10.1" x2="31.3" y2="10.1"/>
		</g>
		<g>
			<text transform="matrix(1 0 0 1 53.8239 5.7765)" class="st22 st19 st20">v</text>
			<text transform="matrix(0.583 0 0 0.583 56.2243 7.1085)" class="st22 st19 st20">D</text>
			<circle id="XMLID_00000160899339993906798160000011124390096643899276_" cx="55.1" cy="7.9" r="0.7"/>
		</g>
		<g>
			<text transform="matrix(1 0 0 1 33.6803 5.4344)" class="st22 st19 st20">v</text>
			<text transform="matrix(0.583 0 0 0.583 36.0807 6.7665)" class="st22 st19 st20">Q</text>
			<circle id="XMLID_00000137818357688776314510000011062575290492067493_" cx="35.1" cy="7.9" r="0.7"/>
		</g>
		<g>
			<g>
				<line class="st12" x1="75.1" y1="27.9" x2="86.1" y2="27.9"/>
				<path class="st12" d="M75.1,7.9l-5.5,0c-0.1-1-0.7-1.7-1.5-1.7c-0.8,0-1.4,0.7-1.5,1.7c-0.1-1-0.7-1.7-1.5-1.7
					c-0.8,0-1.4,0.7-1.5,1.7c-0.1-1-0.7-1.7-1.5-1.7s-1.4,0.7-1.5,1.7l-5.5,0"/>
				<polyline class="st12" points="86.1,27.9 86.1,22.4 87.6,21.1 84.6,19.8 87.6,18.5 84.6,17.2 87.6,15.9 84.6,14.6 86.1,13.4 
					86.1,7.9 				"/>
				<g>
					<line class="st12" x1="75.1" y1="16.9" x2="75.1" y2="7.9"/>
					<line class="st12" x1="75.1" y1="27.9" x2="75.1" y2="18.9"/>
					<line class="st12" x1="72.6" y1="18.9" x2="77.6" y2="18.9"/>
					<line class="st12" x1="72.6" y1="16.9" x2="77.6" y2="16.9"/>
				</g>
				<g>
					<g>
						<line class="st13" x1="55.1" y1="18.9" x2="55.1" y2="27.9"/>
						<line class="st13" x1="55.1" y1="7.9" x2="55.1" y2="16.9"/>
					</g>
					<g>
						<line class="st13" x1="56.6" y1="19.9" x2="53.6" y2="19.9"/>
						<polygon class="st13" points="55.1,19.9 56.6,15.9 53.6,15.9 						"/>
					</g>
					<line class="st13" x1="55.1" y1="18.9" x2="55.1" y2="14.9"/>
				</g>
				<line class="st12" x1="55.1" y1="27.9" x2="75.1" y2="27.9"/>
				<line class="st12" x1="75.1" y1="7.9" x2="86.1" y2="7.9"/>
			</g>
			<text transform="matrix(1 0 0 1 63.5068 4.3303)" class="st19 st20">L</text>
			<text transform="matrix(0.583 0 0 0.583 65.9072 5.6624)" class="st19 st20">2</text>
			<g>
				<text transform="matrix(1 0 0 1 68.1751 19.005)" class="st19 st20">C</text>
				<text transform="matrix(0.583 0 0 0.583 70.5755 20.337)" class="st19 st20">o</text>
			</g>
			<g>
				<text transform="matrix(1 0 0 1 80.5983 18.8514)" class="st19 st20">R</text>
			</g>
			<g>
				<text transform="matrix(1 0 0 1 68.9218 24.8588)" class="st21 st19 st20">i</text>
				<text transform="matrix(0.583 0 0 0.583 71.3222 26.1908)" class="st21 st19 st20">co</text>
				<g>
					<polygon class="st14" points="75.1,26.2 74.6,24.9 75.6,24.9 					"/>
				</g>
				<line class="st15" x1="75.1" y1="23.2" x2="75.1" y2="25.4"/>
			</g>
			<g>
				<text transform="matrix(1 0 0 1 81.3209 11.2836)" class="st21 st19 st20">i</text>
				<text transform="matrix(0.583 0 0 0.583 83.7213 12.6156)" class="st21 st19 st20">o</text>
				<g>
					<polygon class="st14" points="86.1,12.6 85.6,11.3 86.6,11.3 					"/>
				</g>
				<line class="st15" x1="86.1" y1="9.7" x2="86.1" y2="11.9"/>
			</g>
			<g>
				<text transform="matrix(1 0 0 1 70.8221 5.3066)" class="st21 st19 st20">i</text>
				<text transform="matrix(0.583 0 0 0.583 73.2225 6.6386)" class="st21 st19 st20">L2</text>
				<g>
					<polygon class="st14" points="73.6,7.9 72.3,8.3 72.3,7.4 					"/>
				</g>
				<line class="st15" x1="70.6" y1="7.9" x2="72.9" y2="7.9"/>
			</g>
			<g>
				<line class="st16" x1="55.1" y1="10.3" x2="75.1" y2="10.3"/>
				<text transform="matrix(1 0 0 1 63.1599 11.2833)" class="st22 st19 st20">v</text>
				<text transform="matrix(0.583 0 0 0.583 65.5603 12.6153)" class="st22 st19 st20">L2</text>
				<line class="st17" x1="57.3" y1="10.3" x2="58.8" y2="10.3"/>
				<line class="st17" x1="58.1" y1="9.5" x2="58.1" y2="11"/>
				<line class="st17" x1="72.9" y1="10.3" x2="71.4" y2="10.3"/>
			</g>
			<g>
				<line class="st16" x1="35.1" y1="10.7" x2="55.1" y2="10.7"/>
				<text transform="matrix(1 0 0 1 40.8214 11.6654)" class="st22 st19 st20">v</text>
				<text transform="matrix(0.583 0 0 0.583 43.2218 12.9974)" class="st22 st19 st20">CSW</text>
				<line class="st17" x1="37.3" y1="10.7" x2="38.8" y2="10.7"/>
				<line class="st17" x1="38.1" y1="9.9" x2="38.1" y2="11.4"/>
				<line class="st17" x1="52.8" y1="10.7" x2="51.3" y2="10.7"/>
			</g>
			<g>
				<text transform="matrix(1 0 0 1 89.1105 19.0051)" class="st22 st19 st20">v</text>
				<text transform="matrix(0.583 0 0 0.583 91.5108 20.3371)" class="st22 st19 st20">o</text>
				<line class="st17" x1="90.2" y1="10.1" x2="90.2" y2="11.6"/>
				<line class="st17" x1="91" y1="10.8" x2="89.5" y2="10.8"/>
				<line class="st17" x1="91" y1="24.9" x2="89.5" y2="24.9"/>
			</g>
		</g>
		<g>
			<line class="st12" x1="46.1" y1="7.9" x2="55.1" y2="7.9"/>
			<line class="st12" x1="35.1" y1="7.9" x2="44.1" y2="7.9"/>
			<line class="st12" x1="44.1" y1="5.4" x2="44.1" y2="10.4"/>
			<line class="st12" x1="46.1" y1="5.4" x2="46.1" y2="10.4"/>
		</g>
		<line class="st12" x1="55.1" y1="27.9" x2="35.1" y2="27.9"/>
		<g>
			<text transform="matrix(1 0 0 1 50.3212 24.0283)" class="st21 st19 st20">i</text>
			<text transform="matrix(0.583 0 0 0.583 52.7216 25.3604)" class="st21 st19 st20">D</text>
			<g>
				<polygon class="st14" points="55.1,25.3 54.6,24 55.6,24 				"/>
			</g>
			<line class="st15" x1="55.1" y1="22.4" x2="55.1" y2="24.6"/>
		</g>
		<g>
			<text transform="matrix(1 0 0 1 15.277 5.3066)" class="st21 st19 st20">i</text>
			<text transform="matrix(0.583 0 0 0.583 17.6774 6.6387)" class="st21 st19 st20">L1</text>
			<g>
				<polygon class="st14" points="18,7.9 16.7,8.3 16.7,7.4 				"/>
			</g>
			<line class="st15" x1="15.1" y1="7.9" x2="17.3" y2="7.9"/>
		</g>
		<text transform="matrix(1 0 0 1 23.4961 4.5291)" class="st19 st20">L</text>
		<text transform="matrix(0.583 0 0 0.583 25.8965 5.8612)" class="st19 st20">1</text>
		<g>
			<text transform="matrix(1 0 0 1 44.3958 3.9728)" class="st19 st20">C</text>
			<text transform="matrix(0.583 0 0 0.583 46.7962 5.3048)" class="st19 st20">sw</text>
		</g>
		<g>
			<text transform="matrix(1 0 0 1 50.2698 19.0048)" class="st19 st20">D</text>
		</g>
	</g>
</g>
</svg>
