<?xml version="1.0" encoding="utf-8"?>
<!-- Generator: Adobe Illustrator 27.5.0, SVG Export Plug-In . SVG Version: 6.00 Build 0)  -->
<svg version="1.1" xmlns="http://www.w3.org/2000/svg" xmlns:xlink="http://www.w3.org/1999/xlink" x="0px" y="0px" width="100px"
	 height="30px" viewBox="0 0 100 30" style="enable-background:new 0 0 100 30;" xml:space="preserve">
<style type="text/css">
	.st0{display:none;}
	.st1{display:inline;}
	.st2{fill:none;stroke:#6A93BF;stroke-width:0.25;stroke-linecap:round;stroke-linejoin:round;stroke-miterlimit:10;}
	
		.st3{display:inline;fill:none;stroke:#6A93BF;stroke-width:0.25;stroke-linecap:round;stroke-linejoin:round;stroke-miterlimit:10;}
	.st4{fill:none;stroke:#FC8754;stroke-width:2;stroke-miterlimit:10;}
	.st5{fill:#FFFFFF;stroke:#000000;stroke-miterlimit:10;}
	.st6{fill:none;stroke:#CAEAFF;stroke-linecap:square;stroke-miterlimit:10;}
	.st7{fill:#CAEAFF;}
	.st8{opacity:0.3;fill:#F21616;}
	.st9{fill:none;stroke:#CAEAFF;stroke-linecap:round;stroke-miterlimit:10;}
	.st10{fill:#FC8754;}
	.st11{fill:none;stroke:#000000;stroke-miterlimit:10;}
	.st12{fill:none;stroke:#000000;stroke-width:0.5;stroke-linecap:round;stroke-linejoin:round;stroke-miterlimit:10;}
	.st13{stroke:#000000;stroke-width:0.5;stroke-linecap:round;stroke-linejoin:round;stroke-miterlimit:10;}
	.st14{fill:#E55D1E;stroke:#E55D1E;stroke-width:0.5;stroke-linecap:round;stroke-linejoin:round;stroke-miterlimit:10;}
	.st15{fill:none;stroke:#E55D1E;stroke-width:0.5;stroke-linecap:round;stroke-linejoin:round;stroke-miterlimit:10;}
	.st16{fill:none;}
	.st17{fill:none;stroke:#1075A1;stroke-width:0.5;stroke-linecap:round;stroke-linejoin:round;stroke-miterlimit:10;}
	.st18{fill:none;stroke:#000000;stroke-width:0.25;stroke-miterlimit:10;}
	.st19{font-family:'Courier-Bold';}
	.st20{font-size:4px;}
	.st21{fill:#E55D1E;}
	.st22{fill:#1075A1;}
</style>
<g id="Layer_2">
</g>
<g id="Layer_1">
	<g>
		<g>
			<line class="st12" x1="63.8" y1="25.7" x2="83.8" y2="25.7"/>
			<polyline class="st12" points="83.8,25.7 83.8,20.2 85.3,18.9 82.3,17.6 85.3,16.3 82.3,15 85.3,13.7 82.3,12.4 83.8,11.2 
				83.8,5.7 			"/>
			<g>
				<line class="st12" x1="63.8" y1="14.7" x2="63.8" y2="5.7"/>
				<line class="st12" x1="63.8" y1="25.7" x2="63.8" y2="16.7"/>
				<line class="st12" x1="61.3" y1="16.7" x2="66.3" y2="16.7"/>
				<line class="st12" x1="61.3" y1="14.7" x2="66.3" y2="14.7"/>
			</g>
			<g>
				<g>
					<line class="st13" x1="54.8" y1="5.7" x2="63.8" y2="5.7"/>
					<line class="st13" x1="43.8" y1="5.7" x2="52.8" y2="5.7"/>
				</g>
				<g>
					<line class="st13" x1="55.8" y1="4.2" x2="55.8" y2="7.2"/>
					<polygon class="st13" points="55.8,5.7 51.8,4.2 51.8,7.2 					"/>
				</g>
				<line class="st13" x1="54.8" y1="5.7" x2="50.8" y2="5.7"/>
			</g>
			<line class="st12" x1="43.8" y1="25.7" x2="63.8" y2="25.7"/>
			<line class="st12" x1="63.8" y1="5.7" x2="83.8" y2="5.7"/>
		</g>
		<g>
			<polyline class="st12" points="30.4,22.7 30.4,25.7 37.4,25.7 			"/>
			<polyline class="st12" points="27.4,23.7 27.4,25.7 24.4,25.7 			"/>
			<polyline class="st12" points="24.4,22.7 24.4,25.7 17.4,25.7 			"/>
			<line class="st12" x1="23.9" y1="22.7" x2="24.9" y2="22.7"/>
			<line class="st12" x1="26.9" y1="22.7" x2="27.9" y2="22.7"/>
			<line class="st12" x1="29.9" y1="22.7" x2="30.9" y2="22.7"/>
			<polygon class="st12" points="27.4,23.3 26.8,24.3 28,24.3 			"/>
			<line class="st12" x1="28.2" y1="27.9" x2="28.2" y2="29.4"/>
			<polygon class="st13" points="28,28.7 26.4,27.7 26.4,29.6 			"/>
			<polyline class="st12" points="23.9,21.2 30.9,21.2 30.9,19.8 			"/>
			<polyline class="st12" points="24.4,25.7 24.4,28.7 26.6,28.7 			"/>
			<polyline class="st12" points="30.4,25.7 30.4,28.7 28.2,28.7 			"/>
		</g>
		<text transform="matrix(1 0 0 1 38.1745 23.6607)" class="st19 st20">L</text>
		<text transform="matrix(1 0 0 1 9.3987 19.6698)" class="st19 st20">V</text>
		<text transform="matrix(0.583 0 0 0.583 11.7991 21.0018)" class="st19 st20">in</text>
		<text transform="matrix(1 0 0 1 27.4195 19.179)" class="st19 st20">Q</text>
		<g>
			<text transform="matrix(1 0 0 1 56.8663 16.814)" class="st19 st20">C</text>
			<text transform="matrix(0.583 0 0 0.583 59.2667 18.146)" class="st19 st20">o</text>
		</g>
		<g>
			<text transform="matrix(1 0 0 1 78.2895 16.6604)" class="st19 st20">R</text>
		</g>
		<g>
			<text transform="matrix(1 0 0 1 57.613 11.333)" class="st21 st19 st20">i</text>
			<text transform="matrix(0.583 0 0 0.583 60.0134 12.6651)" class="st21 st19 st20">co</text>
			<g>
				<polygon class="st14" points="63.8,12.6 63.3,11.3 64.3,11.3 				"/>
			</g>
			<line class="st15" x1="63.8" y1="9.7" x2="63.8" y2="11.9"/>
		</g>
		<g>
			<text transform="matrix(1 0 0 1 79.0121 9.0926)" class="st21 st19 st20">i</text>
			<text transform="matrix(0.583 0 0 0.583 81.4125 10.4247)" class="st21 st19 st20">o</text>
			<g>
				<polygon class="st14" points="83.8,10.4 83.3,9.1 84.3,9.1 				"/>
			</g>
			<line class="st15" x1="83.8" y1="7.5" x2="83.8" y2="9.7"/>
		</g>
		<g>
			<text transform="matrix(1 0 0 1 45.7581 3.108)" class="st21 st19 st20">i</text>
			<text transform="matrix(0.583 0 0 0.583 48.1585 4.4401)" class="st21 st19 st20">D</text>
			<g>
				<polygon class="st14" points="48.5,5.7 47.2,6.1 47.2,5.2 				"/>
			</g>
			<line class="st15" x1="45.6" y1="5.7" x2="47.8" y2="5.7"/>
		</g>
		<g>
			<text transform="matrix(1 0 0 1 45.7923 16.8141)" class="st22 st19 st20">v</text>
			<text transform="matrix(0.583 0 0 0.583 48.1927 18.1462)" class="st22 st19 st20">S</text>
			<line class="st17" x1="46.9" y1="11.2" x2="46.9" y2="12.7"/>
			<line class="st17" x1="47.6" y1="11.9" x2="46.1" y2="11.9"/>
			<line class="st17" x1="47.6" y1="20.3" x2="46.1" y2="20.3"/>
		</g>
		<g>
			<text transform="matrix(1 0 0 1 32.8233 16.8141)" class="st22 st19 st20">v</text>
			<text transform="matrix(0.583 0 0 0.583 35.2237 18.1462)" class="st22 st19 st20">L</text>
			<line class="st17" x1="34.8" y1="11.2" x2="34.8" y2="12.7"/>
			<line class="st17" x1="35.5" y1="12" x2="34" y2="12"/>
			<line class="st17" x1="35.5" y1="20.3" x2="34" y2="20.3"/>
		</g>
		<g>
			<text transform="matrix(1 0 0 1 86.8017 16.8141)" class="st22 st19 st20">v</text>
			<text transform="matrix(0.583 0 0 0.583 89.2021 18.1462)" class="st22 st19 st20">o</text>
			<line class="st17" x1="87.9" y1="7.9" x2="87.9" y2="9.4"/>
			<line class="st17" x1="88.6" y1="8.6" x2="87.1" y2="8.6"/>
			<line class="st17" x1="88.6" y1="22.7" x2="87.1" y2="22.7"/>
		</g>
		<g>
			<line class="st12" x1="17.4" y1="12" x2="17.4" y2="5.7"/>
			<line class="st12" x1="17.4" y1="25.7" x2="17.4" y2="19.4"/>
			<circle class="st12" cx="17.4" cy="15.7" r="3.7"/>
			<g>
				<line class="st12" x1="17.4" y1="13.5" x2="17.4" y2="15"/>
				<line class="st12" x1="18.1" y1="14.3" x2="16.6" y2="14.3"/>
				<line class="st12" x1="18.1" y1="17.8" x2="16.6" y2="17.8"/>
			</g>
		</g>
		<g>
			<path class="st12" d="M43.8,5.7v5.5c-1,0.1-1.7,0.7-1.7,1.5c0,0.8,0.7,1.4,1.7,1.5c-1,0.1-1.7,0.7-1.7,1.5c0,0.8,0.7,1.4,1.7,1.5
				c-1,0.1-1.7,0.7-1.7,1.5s0.7,1.4,1.7,1.5v5.5"/>
			<path class="st12" d="M37.4,25.7l0-5.5c1-0.1,1.7-0.7,1.7-1.5c0-0.8-0.7-1.4-1.7-1.5c1-0.1,1.7-0.7,1.7-1.5
				c0-0.8-0.7-1.4-1.7-1.5c1-0.1,1.7-0.7,1.7-1.5c0-0.8-0.7-1.4-1.7-1.5l0-5.5"/>
			<line class="st12" x1="41.1" y1="11.2" x2="41.1" y2="20.2"/>
			<line class="st12" x1="40.1" y1="11.2" x2="40.1" y2="20.2"/>
			<circle cx="37.7" cy="12.7" r="0.5"/>
			<circle cx="43.4" cy="18.7" r="0.5"/>
		</g>
		<line class="st12" x1="17.4" y1="5.7" x2="37.4" y2="5.7"/>
		<g>
			<text transform="matrix(1 0 0 1 24.1966 3.1081)" class="st21 st19 st20">i</text>
			<text transform="matrix(0.583 0 0 0.583 26.597 4.4401)" class="st21 st19 st20">Q</text>
			<g>
				<polygon class="st14" points="27,5.7 25.6,6.1 25.6,5.2 				"/>
			</g>
			<line class="st15" x1="24" y1="5.7" x2="26.2" y2="5.7"/>
		</g>
		<g>
			<text transform="matrix(1 0 0 1 32.6446 8.9706)" class="st21 st19 st20">i</text>
			<text transform="matrix(0.583 0 0 0.583 35.0449 10.3026)" class="st21 st19 st20">L</text>
			<g>
				<polygon class="st14" points="37.4,7.3 37.9,8.7 36.9,8.7 				"/>
			</g>
			<line class="st15" x1="37.4" y1="10.3" x2="37.4" y2="8.1"/>
		</g>
	</g>
</g>
</svg>
