<?xml version="1.0" encoding="utf-8"?>
<!-- Generator: Adobe Illustrator 27.5.0, SVG Export Plug-In . SVG Version: 6.00 Build 0)  -->
<svg version="1.1" xmlns="http://www.w3.org/2000/svg" xmlns:xlink="http://www.w3.org/1999/xlink" x="0px" y="0px" width="100px"
	 height="30px" viewBox="0 0 100 30" style="enable-background:new 0 0 100 30;" xml:space="preserve">
<style type="text/css">
	.st0{display:none;}
	.st1{display:inline;}
	.st2{fill:none;stroke:#6A93BF;stroke-width:0.25;stroke-linecap:round;stroke-linejoin:round;stroke-miterlimit:10;}
	
		.st3{display:inline;fill:none;stroke:#6A93BF;stroke-width:0.25;stroke-linecap:round;stroke-linejoin:round;stroke-miterlimit:10;}
	.st4{fill:none;stroke:#FC8754;stroke-width:2;stroke-miterlimit:10;}
	.st5{fill:#FFFFFF;stroke:#000000;stroke-miterlimit:10;}
	.st6{fill:none;stroke:#CAEAFF;stroke-linecap:square;stroke-miterlimit:10;}
	.st7{fill:#CAEAFF;}
	.st8{opacity:0.3;fill:#F21616;}
	.st9{fill:none;stroke:#CAEAFF;stroke-linecap:round;stroke-miterlimit:10;}
	.st10{fill:#FC8754;}
	.st11{fill:none;stroke:#000000;stroke-miterlimit:10;}
	.st12{fill:none;stroke:#000000;stroke-width:0.5;stroke-linecap:round;stroke-linejoin:round;stroke-miterlimit:10;}
	.st13{stroke:#000000;stroke-width:0.5;stroke-linecap:round;stroke-linejoin:round;stroke-miterlimit:10;}
	.st14{fill:#E55D1E;stroke:#E55D1E;stroke-width:0.5;stroke-linecap:round;stroke-linejoin:round;stroke-miterlimit:10;}
	.st15{fill:none;stroke:#E55D1E;stroke-width:0.5;stroke-linecap:round;stroke-linejoin:round;stroke-miterlimit:10;}
	.st16{fill:none;}
	.st17{fill:none;stroke:#1075A1;stroke-width:0.5;stroke-linecap:round;stroke-linejoin:round;stroke-miterlimit:10;}
	.st18{fill:none;stroke:#000000;stroke-width:0.25;stroke-miterlimit:10;}
	.st19{font-family:'Courier-Bold';}
	.st20{font-size:4px;}
	.st21{fill:#E55D1E;}
	.st22{fill:#1075A1;}
</style>
<g id="Layer_2">
</g>
<g id="Layer_1">
	<g>
		<g>
			<line class="st12" x1="68.3" y1="25.7" x2="79.3" y2="25.7"/>
			<polyline class="st12" points="79.3,25.7 79.3,20.2 80.8,18.9 77.8,17.6 80.8,16.3 77.8,15 80.8,13.7 77.8,12.4 79.3,11.2 
				79.3,5.7 			"/>
			<g>
				<line class="st12" x1="68.3" y1="14.7" x2="68.3" y2="5.7"/>
				<line class="st12" x1="68.3" y1="25.7" x2="68.3" y2="16.7"/>
				<line class="st12" x1="65.8" y1="16.7" x2="70.8" y2="16.7"/>
				<line class="st12" x1="65.8" y1="14.7" x2="70.8" y2="14.7"/>
			</g>
			<g>
				<g>
					<line class="st13" x1="59.3" y1="5.7" x2="68.3" y2="5.7"/>
					<line class="st13" x1="48.3" y1="5.7" x2="57.3" y2="5.7"/>
				</g>
				<g>
					<line class="st13" x1="60.3" y1="4.2" x2="60.3" y2="7.2"/>
					<polygon class="st13" points="60.3,5.7 56.3,4.2 56.3,7.2 					"/>
				</g>
				<line class="st13" x1="59.3" y1="5.7" x2="55.3" y2="5.7"/>
			</g>
			<line class="st12" x1="48.3" y1="25.7" x2="68.3" y2="25.7"/>
			<line class="st12" x1="68.3" y1="5.7" x2="79.3" y2="5.7"/>
		</g>
		<g>
			<polyline class="st12" points="34.9,22.7 34.9,25.7 41.9,25.7 			"/>
			<polyline class="st12" points="31.9,23.7 31.9,25.7 28.9,25.7 			"/>
			<polyline class="st12" points="28.9,22.7 28.9,25.7 21.9,25.7 			"/>
			<line class="st12" x1="28.4" y1="22.7" x2="29.4" y2="22.7"/>
			<line class="st12" x1="31.4" y1="22.7" x2="32.4" y2="22.7"/>
			<line class="st12" x1="34.4" y1="22.7" x2="35.4" y2="22.7"/>
			<polygon class="st12" points="31.9,23.3 31.3,24.3 32.5,24.3 			"/>
			<line class="st12" x1="32.7" y1="27.9" x2="32.7" y2="29.4"/>
			<polygon class="st13" points="32.5,28.7 30.9,27.7 30.9,29.6 			"/>
			<polyline class="st12" points="28.4,21.2 35.4,21.2 35.4,19.8 			"/>
			<polyline class="st12" points="28.9,25.7 28.9,28.7 31.1,28.7 			"/>
			<polyline class="st12" points="34.9,25.7 34.9,28.7 32.7,28.7 			"/>
		</g>
		<text transform="matrix(1 0 0 1 42.6746 23.6608)" class="st19 st20">L</text>
		<text transform="matrix(1 0 0 1 13.8987 19.6698)" class="st19 st20">V</text>
		<text transform="matrix(0.583 0 0 0.583 16.2991 21.0018)" class="st19 st20">in</text>
		<text transform="matrix(1 0 0 1 31.9196 19.179)" class="st19 st20">Q</text>
		<g>
			<text transform="matrix(1 0 0 1 61.3664 16.8141)" class="st19 st20">C</text>
			<text transform="matrix(0.583 0 0 0.583 63.7668 18.1461)" class="st19 st20">o</text>
		</g>
		<g>
			<text transform="matrix(1 0 0 1 73.7896 16.6605)" class="st19 st20">R</text>
		</g>
		<g>
			<text transform="matrix(1 0 0 1 62.1131 11.3331)" class="st21 st19 st20">i</text>
			<text transform="matrix(0.583 0 0 0.583 64.5135 12.6651)" class="st21 st19 st20">co</text>
			<g>
				<polygon class="st14" points="68.3,12.6 67.8,11.3 68.8,11.3 				"/>
			</g>
			<line class="st15" x1="68.3" y1="9.7" x2="68.3" y2="11.9"/>
		</g>
		<g>
			<text transform="matrix(1 0 0 1 74.5122 9.0927)" class="st21 st19 st20">i</text>
			<text transform="matrix(0.583 0 0 0.583 76.9126 10.4247)" class="st21 st19 st20">o</text>
			<g>
				<polygon class="st14" points="79.3,10.4 78.8,9.1 79.8,9.1 				"/>
			</g>
			<line class="st15" x1="79.3" y1="7.5" x2="79.3" y2="9.7"/>
		</g>
		<g>
			<text transform="matrix(1 0 0 1 50.2582 3.1081)" class="st21 st19 st20">i</text>
			<text transform="matrix(0.583 0 0 0.583 52.6586 4.4401)" class="st21 st19 st20">D</text>
			<g>
				<polygon class="st14" points="53,5.7 51.7,6.1 51.7,5.2 				"/>
			</g>
			<line class="st15" x1="50.1" y1="5.7" x2="52.3" y2="5.7"/>
		</g>
		<g>
			<text transform="matrix(1 0 0 1 50.2924 16.8142)" class="st22 st19 st20">v</text>
			<text transform="matrix(0.583 0 0 0.583 52.6928 18.1462)" class="st22 st19 st20">S</text>
			<line class="st17" x1="51.4" y1="11.2" x2="51.4" y2="12.7"/>
			<line class="st17" x1="52.1" y1="11.9" x2="50.6" y2="11.9"/>
			<line class="st17" x1="52.1" y1="20.3" x2="50.6" y2="20.3"/>
		</g>
		<g>
			<text transform="matrix(1 0 0 1 37.3234 16.8142)" class="st22 st19 st20">v</text>
			<text transform="matrix(0.583 0 0 0.583 39.7238 18.1462)" class="st22 st19 st20">L</text>
			<line class="st17" x1="39.3" y1="11.2" x2="39.3" y2="12.7"/>
			<line class="st17" x1="40" y1="12" x2="38.5" y2="12"/>
			<line class="st17" x1="40" y1="20.3" x2="38.5" y2="20.3"/>
		</g>
		<g>
			<text transform="matrix(1 0 0 1 82.3018 16.8142)" class="st22 st19 st20">v</text>
			<text transform="matrix(0.583 0 0 0.583 84.7022 18.1462)" class="st22 st19 st20">o</text>
			<line class="st17" x1="83.4" y1="7.9" x2="83.4" y2="9.4"/>
			<line class="st17" x1="84.1" y1="8.6" x2="82.6" y2="8.6"/>
			<line class="st17" x1="84.1" y1="22.7" x2="82.6" y2="22.7"/>
		</g>
		<g>
			<line class="st12" x1="21.9" y1="12" x2="21.9" y2="5.7"/>
			<line class="st12" x1="21.9" y1="25.7" x2="21.9" y2="19.4"/>
			<circle class="st12" cx="21.9" cy="15.7" r="3.7"/>
			<g>
				<line class="st12" x1="21.9" y1="13.5" x2="21.9" y2="15"/>
				<line class="st12" x1="22.6" y1="14.3" x2="21.1" y2="14.3"/>
				<line class="st12" x1="22.6" y1="17.8" x2="21.1" y2="17.8"/>
			</g>
		</g>
		<g>
			<path class="st12" d="M48.3,5.7v5.5c-1,0.1-1.7,0.7-1.7,1.5c0,0.8,0.7,1.4,1.7,1.5c-1,0.1-1.7,0.7-1.7,1.5c0,0.8,0.7,1.4,1.7,1.5
				c-1,0.1-1.7,0.7-1.7,1.5s0.7,1.4,1.7,1.5v5.5"/>
			<path class="st12" d="M41.9,25.7l0-5.5c1-0.1,1.7-0.7,1.7-1.5c0-0.8-0.7-1.4-1.7-1.5c1-0.1,1.7-0.7,1.7-1.5
				c0-0.8-0.7-1.4-1.7-1.5c1-0.1,1.7-0.7,1.7-1.5c0-0.8-0.7-1.4-1.7-1.5l0-5.5"/>
			<line class="st12" x1="45.6" y1="11.2" x2="45.6" y2="20.2"/>
			<line class="st12" x1="44.6" y1="11.2" x2="44.6" y2="20.2"/>
			<circle cx="42.2" cy="12.7" r="0.5"/>
			<circle cx="47.9" cy="18.7" r="0.5"/>
		</g>
		<line class="st12" x1="21.9" y1="5.7" x2="41.9" y2="5.7"/>
		<g>
			<text transform="matrix(1 0 0 1 28.6967 3.1081)" class="st21 st19 st20">i</text>
			<text transform="matrix(0.583 0 0 0.583 31.0971 4.4401)" class="st21 st19 st20">Q</text>
			<g>
				<polygon class="st14" points="31.5,5.7 30.1,6.1 30.1,5.2 				"/>
			</g>
			<line class="st15" x1="28.5" y1="5.7" x2="30.7" y2="5.7"/>
		</g>
		<g>
			<text transform="matrix(1 0 0 1 37.1446 8.9706)" class="st21 st19 st20">i</text>
			<text transform="matrix(0.583 0 0 0.583 39.545 10.3027)" class="st21 st19 st20">L</text>
			<g>
				<polygon class="st14" points="41.9,7.3 42.4,8.7 41.4,8.7 				"/>
			</g>
			<line class="st15" x1="41.9" y1="10.3" x2="41.9" y2="8.1"/>
		</g>
		<g>
			<text transform="matrix(1 0 0 1 57.5489 3.7263)" class="st19 st20">D</text>
		</g>
	</g>
</g>
</svg>
