<?xml version="1.0" encoding="utf-8"?>
<!-- Generator: Adobe Illustrator 27.5.0, SVG Export Plug-In . SVG Version: 6.00 Build 0)  -->
<svg version="1.1" xmlns="http://www.w3.org/2000/svg" xmlns:xlink="http://www.w3.org/1999/xlink" x="0px" y="0px" width="100px"
	 height="70px" viewBox="0 0 100 70" style="enable-background:new 0 0 100 70;" xml:space="preserve">
<style type="text/css">
	.st0{display:none;}
	.st1{display:inline;}
	.st2{fill:none;stroke:#6A93BF;stroke-width:0.25;stroke-linecap:round;stroke-linejoin:round;stroke-miterlimit:10;}
	
		.st3{display:inline;fill:none;stroke:#6A93BF;stroke-width:0.25;stroke-linecap:round;stroke-linejoin:round;stroke-miterlimit:10;}
	.st4{fill:none;stroke:#FC8754;stroke-width:2;stroke-miterlimit:10;}
	.st5{fill:#FFFFFF;stroke:#000000;stroke-miterlimit:10;}
	.st6{fill:none;stroke:#CAEAFF;stroke-linecap:square;stroke-miterlimit:10;}
	.st7{fill:#CAEAFF;}
	.st8{opacity:0.3;fill:#F21616;}
	.st9{fill:none;stroke:#CAEAFF;stroke-linecap:round;stroke-miterlimit:10;}
	.st10{fill:#FC8754;}
	.st11{fill:none;stroke:#000000;stroke-miterlimit:10;}
	.st12{fill:none;stroke:#000000;stroke-width:0.5;stroke-linecap:round;stroke-linejoin:round;stroke-miterlimit:10;}
	.st13{stroke:#000000;stroke-width:0.5;stroke-linecap:round;stroke-linejoin:round;stroke-miterlimit:10;}
	.st14{fill:#E55D1E;stroke:#E55D1E;stroke-width:0.5;stroke-linecap:round;stroke-linejoin:round;stroke-miterlimit:10;}
	.st15{fill:none;stroke:#E55D1E;stroke-width:0.5;stroke-linecap:round;stroke-linejoin:round;stroke-miterlimit:10;}
	.st16{fill:none;}
	.st17{fill:none;stroke:#49565C;stroke-width:0.5;stroke-linecap:round;stroke-linejoin:round;stroke-miterlimit:10;}
	.st18{fill:none;stroke:#000000;stroke-width:0.25;stroke-miterlimit:10;}
	.st19{font-family:'Courier-Bold';}
	.st20{font-size:4px;}
	.st21{fill:#49565C;}
	.st22{font-size:4.0355px;}
	.st23{fill:#E55D1E;}
	.st24{fill:none;stroke:#29ABE2;stroke-width:0.5;stroke-linecap:round;stroke-linejoin:round;stroke-miterlimit:10;}
	.st25{fill:none;stroke:#ED1C24;stroke-width:0.5;stroke-linecap:round;stroke-linejoin:round;stroke-miterlimit:10;}
	.st26{display:inline;fill:none;stroke:#ED1C24;stroke-width:0.1;stroke-miterlimit:10;}
	.st27{opacity:0.3;}
	.st28{fill:none;stroke:#000000;stroke-width:0.5;stroke-linecap:round;stroke-miterlimit:10;}
	.st29{opacity:0.3;stroke:#000000;stroke-width:0.25;stroke-linecap:round;stroke-miterlimit:10;}
	.st30{fill:none;stroke:#000000;stroke-width:0.25;stroke-linecap:round;stroke-miterlimit:10;}
	.st31{fill:none;stroke:#000000;stroke-width:0.25;stroke-linecap:round;stroke-miterlimit:10;stroke-dasharray:0.4994,0.9989;}
	.st32{fill:none;stroke:#000000;stroke-width:0.25;stroke-linecap:round;stroke-miterlimit:10;stroke-dasharray:0.4998,0.9996;}
	.st33{fill:none;stroke:#000000;stroke-width:0.25;stroke-linecap:round;stroke-miterlimit:10;stroke-dasharray:0.5222,1.0444;}
	.st34{opacity:0.8;fill:none;stroke:#F7931E;stroke-width:0.5;stroke-linecap:round;stroke-miterlimit:10;}
	.st35{opacity:0.8;fill:none;stroke:#009245;stroke-width:0.5;stroke-linecap:round;stroke-linejoin:round;stroke-miterlimit:10;}
	.st36{fill:none;stroke:#3FA9F5;stroke-width:0.5;stroke-linecap:round;stroke-linejoin:round;stroke-miterlimit:10;}
	.st37{fill:none;stroke:#000000;stroke-width:0.25;stroke-linecap:round;stroke-miterlimit:10;stroke-dasharray:0.5079,1.0157;}
	.st38{fill:none;stroke:#49565C;stroke-width:0.5;stroke-linecap:round;stroke-miterlimit:10;}
	.st39{fill:none;stroke:#29ABE2;stroke-width:0.5;stroke-linecap:round;stroke-miterlimit:10;}
	.st40{fill:none;stroke:#29ABE2;stroke-width:0.5;stroke-linecap:round;stroke-miterlimit:10;stroke-dasharray:0.7061,1.0087;}
	.st41{fill:none;stroke:#29ABE2;stroke-width:0.5;stroke-linecap:round;stroke-miterlimit:10;stroke-dasharray:0.7663,1.0947;}
	.st42{fill:none;stroke:#29ABE2;stroke-width:0.5;stroke-linecap:round;stroke-miterlimit:10;stroke-dasharray:0.71,1.0142;}
	.st43{fill:none;stroke:#29ABE2;stroke-width:0.5;stroke-linecap:round;stroke-miterlimit:10;stroke-dasharray:0.7248,1.0355;}
	.st44{fill:none;stroke:#ED1C24;stroke-width:0.5;stroke-linecap:round;stroke-miterlimit:10;}
	.st45{fill:none;stroke:#ED1C24;stroke-width:0.5;stroke-linecap:round;stroke-miterlimit:10;stroke-dasharray:0.4655,0.9309;}
	.st46{fill:none;stroke:#ED1C24;stroke-width:0.5;stroke-linecap:round;stroke-miterlimit:10;stroke-dasharray:0.4929,0.9858;}
	.st47{fill:none;stroke:#ED1C24;stroke-width:0.5;stroke-linecap:round;stroke-miterlimit:10;stroke-dasharray:0.4882,0.9763;}
	.st48{fill:none;stroke:#ED1C24;stroke-width:0.5;stroke-linecap:round;stroke-miterlimit:10;stroke-dasharray:0.4951,0.9903;}
	.st49{opacity:0.5;fill:none;stroke:#49565C;stroke-width:0.5;stroke-linecap:round;stroke-miterlimit:10;stroke-dasharray:0.5,1;}
</style>
<g id="Layer_2">
</g>
<g id="Layer_1">
	<g>
		<g>
			<polyline class="st12" points="31.8,54.8 34.8,54.8 34.8,47.8 			"/>
			<polyline class="st12" points="32.8,57.8 34.8,57.8 34.8,60.8 			"/>
			<polyline class="st12" points="31.8,60.8 34.8,60.8 34.8,67.8 			"/>
			<line class="st12" x1="31.8" y1="61.2" x2="31.8" y2="60.2"/>
			<line class="st12" x1="31.8" y1="58.3" x2="31.8" y2="57.3"/>
			<line class="st12" x1="31.8" y1="55.3" x2="31.8" y2="54.3"/>
			<polygon class="st12" points="32.5,57.8 33.5,58.4 33.5,57.2 			"/>
			<line class="st12" x1="37" y1="57" x2="38.5" y2="57"/>
			<polygon class="st13" points="37.8,57.2 36.9,58.8 38.7,58.8 			"/>
			<polyline class="st12" points="30.3,61.2 30.3,54.3 28.9,54.3 			"/>
			<polyline class="st12" points="34.8,60.8 37.8,60.8 37.8,58.6 			"/>
			<polyline class="st12" points="34.8,54.8 37.8,54.8 37.8,57 			"/>
		</g>
		<g>
			<polyline class="st12" points="31.8,15 34.8,15 34.8,8 			"/>
			<polyline class="st12" points="32.8,18 34.8,18 34.8,21 			"/>
			<polyline class="st12" points="31.8,21 34.8,21 34.8,28 			"/>
			<line class="st12" x1="31.8" y1="21.5" x2="31.8" y2="20.5"/>
			<line class="st12" x1="31.8" y1="18.5" x2="31.8" y2="17.5"/>
			<line class="st12" x1="31.8" y1="15.5" x2="31.8" y2="14.5"/>
			<polygon class="st12" points="32.5,18 33.5,18.6 33.5,17.4 			"/>
			<line class="st12" x1="37" y1="17.2" x2="38.5" y2="17.2"/>
			<polygon class="st13" points="37.8,17.4 36.9,19 38.7,19 			"/>
			<polyline class="st12" points="30.3,21.5 30.3,14.5 28.9,14.5 			"/>
			<polyline class="st12" points="34.8,21 37.8,21 37.8,18.8 			"/>
			<polyline class="st12" points="34.8,15 37.8,15 37.8,17.2 			"/>
		</g>
		<text transform="matrix(1 0 0 1 35.5633 45.7864)" class="st19 st20">L</text>
		<text transform="matrix(0.583 0 0 0.583 37.9637 47.1184)" class="st19 st20">m</text>
		<text transform="matrix(1 0 0 1 1.0105 41.6847)" class="st19 st20">V</text>
		<text transform="matrix(0.583 0 0 0.583 3.4108 43.0168)" class="st19 st20">in</text>
		<g>
			<text transform="matrix(1 0 0 1 43.1811 38.9398)" class="st21 st19 st20">v</text>
			<text transform="matrix(0.583 0 0 0.583 45.5815 40.2719)" class="st21 st19 st20">S</text>
			<line class="st17" x1="44.3" y1="33.3" x2="44.3" y2="34.8"/>
			<line class="st17" x1="45" y1="34" x2="43.5" y2="34"/>
			<line class="st17" x1="45" y1="42.4" x2="43.5" y2="42.4"/>
		</g>
		<g>
			<text transform="matrix(1 0 0 1 30.2121 38.9398)" class="st21 st19 st20">v</text>
			<text transform="matrix(0.583 0 0 0.583 32.6125 40.2719)" class="st21 st19 st20">P</text>
			<line class="st17" x1="32.2" y1="33.3" x2="32.2" y2="34.8"/>
			<line class="st17" x1="32.9" y1="34.1" x2="31.4" y2="34.1"/>
			<line class="st17" x1="32.9" y1="42.4" x2="31.4" y2="42.4"/>
		</g>
		<g>
			<line class="st12" x1="9" y1="34" x2="9" y2="27.7"/>
			<line class="st12" x1="9" y1="47.7" x2="9" y2="41.4"/>
			<circle class="st12" cx="9" cy="37.7" r="3.7"/>
			<g>
				<line class="st12" x1="9" y1="35.5" x2="9" y2="37"/>
				<line class="st12" x1="9.8" y1="36.3" x2="8.3" y2="36.3"/>
				<line class="st12" x1="9.8" y1="39.8" x2="8.3" y2="39.8"/>
			</g>
		</g>
		<g>
			<path class="st12" d="M41.2,27.8v5.5c-1,0.1-1.7,0.7-1.7,1.5c0,0.8,0.7,1.4,1.7,1.5c-1,0.1-1.7,0.7-1.7,1.5
				c0,0.8,0.7,1.4,1.7,1.5c-1,0.1-1.7,0.7-1.7,1.5c0,0.8,0.7,1.4,1.7,1.5v5.5"/>
			<path class="st12" d="M34.8,47.8l0-5.5c1-0.1,1.7-0.7,1.7-1.5c0-0.8-0.7-1.4-1.7-1.5c1-0.1,1.7-0.7,1.7-1.5s-0.7-1.4-1.7-1.5
				c1-0.1,1.7-0.7,1.7-1.5c0-0.8-0.7-1.4-1.7-1.5v-5.5"/>
			<line class="st12" x1="38.5" y1="33.3" x2="38.5" y2="42.3"/>
			<line class="st12" x1="37.5" y1="33.3" x2="37.5" y2="42.3"/>
			<circle cx="35.1" cy="34.8" r="0.5"/>
			<circle cx="40.8" cy="34.8" r="0.5"/>
		</g>
		<g>
			<g>
				<line class="st13" x1="19.1" y1="56.8" x2="19.1" y2="47.8"/>
				<line class="st13" x1="19.1" y1="67.8" x2="19.1" y2="58.8"/>
			</g>
			<g>
				<line class="st13" x1="17.6" y1="55.8" x2="20.6" y2="55.8"/>
				<polygon class="st13" points="19.1,55.8 17.6,59.8 20.6,59.8 				"/>
			</g>
			<line class="st13" x1="19.1" y1="56.8" x2="19.1" y2="60.8"/>
		</g>
		<g>
			<g>
				<line class="st13" x1="19.1" y1="17" x2="19.1" y2="8"/>
				<line class="st13" x1="19.1" y1="28" x2="19.1" y2="19"/>
			</g>
			<g>
				<line class="st13" x1="17.6" y1="16" x2="20.6" y2="16"/>
				<polygon class="st13" points="19.1,16 17.6,20 20.6,20 				"/>
			</g>
			<line class="st13" x1="19.1" y1="17" x2="19.1" y2="21"/>
		</g>
		<line class="st12" x1="34.8" y1="8" x2="19.1" y2="8"/>
		<line class="st12" x1="9" y1="27.7" x2="9" y2="7.9"/>
		<line class="st12" x1="9" y1="47.7" x2="9" y2="67.7"/>
		<line class="st12" x1="34.8" y1="67.8" x2="19.1" y2="67.8"/>
		<line class="st12" x1="19.1" y1="67.8" x2="9" y2="67.7"/>
		<line class="st12" x1="19.1" y1="8" x2="9" y2="7.9"/>
		<path class="st12" d="M19.1,28c0,3.6,0.7,6.7,1.9,9.4c0.4,0.8,0.8,1.6,1.3,2.4c3.5,5.3,6.6,10,12.5,8.1"/>
		<path class="st12" d="M19.1,47.8c0-3.2,0.5-6,1.5-8.5c0.2-0.5,0.9-0.1,1.4-1.1c0.6-1-0.2-1.4,0.1-1.9c3.4-5.4,5.7-11.1,12.7-8.3"
			/>
		<g>
			<g>
				<line class="st12" x1="41.2" y1="47.8" x2="61.1" y2="47.8"/>
				<line class="st12" x1="81.2" y1="47.8" x2="92.2" y2="47.8"/>
				<path class="st12" d="M81.2,27.8l-5.5,0c-0.1-1-0.7-1.7-1.5-1.7c-0.8,0-1.4,0.7-1.5,1.7c-0.1-1-0.7-1.7-1.5-1.7
					c-0.8,0-1.4,0.7-1.5,1.7c-0.1-1-0.7-1.7-1.5-1.7c-0.8,0-1.4,0.7-1.5,1.7l-5.5,0"/>
				<polyline class="st12" points="92.2,47.8 92.2,42.3 93.7,41 90.7,39.8 93.7,38.4 90.7,37.1 93.7,35.9 90.7,34.6 92.2,33.3 
					92.2,27.8 				"/>
				<g>
					<line class="st12" x1="81.2" y1="36.8" x2="81.2" y2="27.8"/>
					<line class="st12" x1="81.2" y1="47.8" x2="81.2" y2="38.8"/>
					<line class="st12" x1="78.7" y1="38.8" x2="83.7" y2="38.8"/>
					<line class="st12" x1="78.7" y1="36.8" x2="83.7" y2="36.8"/>
				</g>
				<g>
					<g>
						<line class="st13" x1="61.2" y1="36.8" x2="61.2" y2="27.8"/>
						<line class="st13" x1="61.2" y1="47.8" x2="61.2" y2="38.8"/>
					</g>
					<g>
						<line class="st13" x1="59.7" y1="35.8" x2="62.7" y2="35.8"/>
						<polygon class="st13" points="61.2,35.8 59.7,39.8 62.7,39.8 						"/>
					</g>
					<line class="st13" x1="61.2" y1="36.8" x2="61.2" y2="40.8"/>
				</g>
				<line class="st12" x1="61.2" y1="47.8" x2="81.2" y2="47.8"/>
				<line class="st12" x1="81.2" y1="27.8" x2="92.2" y2="27.8"/>
				<g>
					<polyline class="st12" points="48.2,30.8 48.2,27.8 41.2,27.8 					"/>
					<polyline class="st12" points="51.2,29.8 51.2,27.8 54.2,27.8 					"/>
					<polyline class="st12" points="54.2,30.8 54.2,27.8 61.2,27.8 					"/>
					<line class="st12" x1="54.6" y1="30.8" x2="53.6" y2="30.8"/>
					<line class="st12" x1="51.7" y1="30.8" x2="50.7" y2="30.8"/>
					<line class="st12" x1="48.7" y1="30.8" x2="47.7" y2="30.8"/>
					<polygon class="st12" points="51.2,30.1 51.7,29.1 50.6,29.1 					"/>
					<line class="st12" x1="50.3" y1="25.5" x2="50.3" y2="24"/>
					<polygon class="st13" points="50.6,24.8 52.2,25.7 52.2,23.9 					"/>
					<polyline class="st12" points="54.6,32.3 47.7,32.3 47.7,33.7 					"/>
					<polyline class="st12" points="54.2,27.8 54.2,24.8 52,24.8 					"/>
					<polyline class="st12" points="48.2,27.8 48.2,24.8 50.3,24.8 					"/>
				</g>
			</g>
			<text transform="matrix(1 0 0 1 70.0306 24.7862)" class="st19 st20">L</text>
			<text transform="matrix(0.9912 0 0 1 48.4838 35.8147)" class="st19 st22">Q</text>
			<text transform="matrix(0.5779 0 0 0.583 50.8842 37.1584)" class="st19 st22">3</text>
			<g>
				<text transform="matrix(1 0 0 1 74.255 38.9396)" class="st19 st20">C</text>
				<text transform="matrix(0.583 0 0 0.583 76.6554 40.2717)" class="st19 st20">o</text>
			</g>
			<g>
				<text transform="matrix(1 0 0 1 86.6783 38.7861)" class="st19 st20">R</text>
			</g>
			<g>
				<text transform="matrix(1 0 0 1 75.0018 44.7934)" class="st23 st19 st20">i</text>
				<text transform="matrix(0.583 0 0 0.583 77.4022 46.1254)" class="st23 st19 st20">co</text>
				<g>
					<polygon class="st14" points="81.2,46.1 80.7,44.8 81.7,44.8 					"/>
				</g>
				<line class="st15" x1="81.2" y1="43.2" x2="81.2" y2="45.4"/>
			</g>
			<g>
				<text transform="matrix(1 0 0 1 87.4008 31.2183)" class="st23 st19 st20">i</text>
				<text transform="matrix(0.583 0 0 0.583 89.8012 32.5503)" class="st23 st19 st20">o</text>
				<g>
					<polygon class="st14" points="92.2,32.5 91.7,31.2 92.7,31.2 					"/>
				</g>
				<line class="st15" x1="92.2" y1="29.6" x2="92.2" y2="31.8"/>
			</g>
			<g>
				<text transform="matrix(1 0 0 1 42.7041 25.2413)" class="st23 st19 st20">i</text>
				<text transform="matrix(0.583 0 0 0.583 45.1045 26.5734)" class="st23 st19 st20">Q</text>
				<g>
					<polygon class="st14" points="45.5,27.8 44.1,28.3 44.1,27.3 					"/>
				</g>
				<line class="st15" x1="42.5" y1="27.8" x2="44.7" y2="27.8"/>
			</g>
			<g>
				<text transform="matrix(1 0 0 1 76.9021 25.2413)" class="st23 st19 st20">i</text>
				<text transform="matrix(0.583 0 0 0.583 79.3025 26.5734)" class="st23 st19 st20">L</text>
				<g>
					<polygon class="st14" points="79.7,27.8 78.3,28.3 78.3,27.3 					"/>
				</g>
				<line class="st15" x1="76.7" y1="27.8" x2="78.9" y2="27.8"/>
			</g>
			<g>
				<line class="st16" x1="61.2" y1="30.2" x2="81.2" y2="30.2"/>
				<text transform="matrix(1 0 0 1 69.918 30.9527)" class="st21 st19 st20">v</text>
				<text transform="matrix(0.583 0 0 0.583 72.3184 32.2847)" class="st21 st19 st20">L</text>
				<line class="st17" x1="63.4" y1="30.2" x2="64.9" y2="30.2"/>
				<line class="st17" x1="64.2" y1="29.5" x2="64.2" y2="31"/>
				<line class="st17" x1="78.9" y1="30.2" x2="77.4" y2="30.2"/>
			</g>
			<g>
				<text transform="matrix(1 0 0 1 95.1904 38.9397)" class="st21 st19 st20">v</text>
				<text transform="matrix(0.583 0 0 0.583 97.5908 40.2718)" class="st21 st19 st20">o</text>
				<line class="st17" x1="96.3" y1="30" x2="96.3" y2="31.5"/>
				<line class="st17" x1="97" y1="30.8" x2="95.5" y2="30.8"/>
				<line class="st17" x1="97" y1="44.8" x2="95.5" y2="44.8"/>
			</g>
			<g>
				<text transform="matrix(1 0 0 1 59.9039 25.7112)" class="st21 st19 st20">v</text>
				<text transform="matrix(0.583 0 0 0.583 62.3043 27.0432)" class="st21 st19 st20">sw</text>
				<circle id="XMLID_00000067229931578966179510000012725736901153163150_" cx="61.2" cy="27.8" r="0.7"/>
			</g>
		</g>
		<text transform="matrix(1 0 0 1 25.5893 16.0076)" class="st19 st20">Q</text>
		<text transform="matrix(0.583 0 0 0.583 27.9897 17.3396)" class="st19 st20">1</text>
		<text transform="matrix(1 0 0 1 13.4358 17.3398)" class="st19 st20">D</text>
		<text transform="matrix(0.583 0 0 0.583 15.8362 18.6718)" class="st19 st20">1</text>
		<text transform="matrix(1 0 0 1 13.4358 57.5576)" class="st19 st20">D</text>
		<text transform="matrix(0.583 0 0 0.583 15.8362 58.8896)" class="st19 st20">2</text>
		<text transform="matrix(1 0 0 1 55.1195 40.2721)" class="st19 st20">D</text>
		<text transform="matrix(0.583 0 0 0.583 57.5199 41.6041)" class="st19 st20">4</text>
		<text transform="matrix(1 0 0 1 25.5899 55.6794)" class="st19 st20">Q</text>
		<text transform="matrix(0.583 0 0 0.583 27.9903 57.0115)" class="st19 st20">2</text>
		<g>
			<text transform="matrix(1 0 0 1 11.5809 5.3721)" class="st23 st19 st20">i</text>
			<text transform="matrix(0.583 0 0 0.583 13.9813 6.7042)" class="st23 st19 st20">in</text>
			<g>
				<polygon class="st14" points="14.3,7.9 13,8.4 13,7.4 				"/>
			</g>
			<line class="st15" x1="11.4" y1="7.9" x2="13.6" y2="7.9"/>
		</g>
	</g>
</g>
</svg>
