<?xml version="1.0" encoding="utf-8"?>
<!-- Generator: Adobe Illustrator 27.5.0, SVG Export Plug-In . SVG Version: 6.00 Build 0)  -->
<svg version="1.1" xmlns="http://www.w3.org/2000/svg" xmlns:xlink="http://www.w3.org/1999/xlink" x="0px" y="0px" width="50px"
	 height="45px" viewBox="0 0 50 45" style="enable-background:new 0 0 50 45;" xml:space="preserve">
<style type="text/css">
	.st0{display:none;}
	.st1{display:inline;}
	.st2{fill:none;stroke:#6A93BF;stroke-width:0.25;stroke-linecap:round;stroke-linejoin:round;stroke-miterlimit:10;}
	
		.st3{display:inline;fill:none;stroke:#6A93BF;stroke-width:0.25;stroke-linecap:round;stroke-linejoin:round;stroke-miterlimit:10;}
	.st4{fill:none;stroke:#FC8754;stroke-width:2;stroke-miterlimit:10;}
	.st5{fill:#FFFFFF;stroke:#000000;stroke-miterlimit:10;}
	.st6{fill:none;stroke:#CAEAFF;stroke-linecap:square;stroke-miterlimit:10;}
	.st7{fill:#CAEAFF;}
	.st8{opacity:0.3;fill:#F21616;}
	.st9{fill:none;stroke:#CAEAFF;stroke-linecap:round;stroke-miterlimit:10;}
	.st10{fill:#FC8754;}
	.st11{fill:none;stroke:#000000;stroke-miterlimit:10;}
	.st12{fill:none;stroke:#000000;stroke-width:0.5;stroke-linecap:round;stroke-linejoin:round;stroke-miterlimit:10;}
	.st13{stroke:#000000;stroke-width:0.5;stroke-linecap:round;stroke-linejoin:round;stroke-miterlimit:10;}
	.st14{fill:#E55D1E;stroke:#E55D1E;stroke-width:0.5;stroke-linecap:round;stroke-linejoin:round;stroke-miterlimit:10;}
	.st15{fill:none;stroke:#E55D1E;stroke-width:0.5;stroke-linecap:round;stroke-linejoin:round;stroke-miterlimit:10;}
	.st16{fill:none;}
	.st17{fill:none;stroke:#1075A1;stroke-width:0.5;stroke-linecap:round;stroke-linejoin:round;stroke-miterlimit:10;}
	.st18{fill:none;stroke:#000000;stroke-width:0.25;stroke-miterlimit:10;}
	.st19{fill:#29ABE2;}
	.st20{font-family:'Courier-Bold';}
	.st21{font-size:4px;}
	.st22{fill:none;stroke:#29ABE2;stroke-width:0.5;stroke-linecap:round;stroke-linejoin:round;stroke-miterlimit:10;}
	.st23{fill:#1075A1;}
	.st24{fill:none;stroke:#ED1C24;stroke-width:0.5;stroke-linecap:round;stroke-linejoin:round;stroke-miterlimit:10;}
	.st25{display:inline;fill:none;stroke:#ED1C24;stroke-width:0.1;stroke-miterlimit:10;}
	.st26{opacity:0.3;}
	.st27{fill:none;stroke:#000000;stroke-width:0.5;stroke-linecap:round;stroke-miterlimit:10;}
	.st28{opacity:0.3;stroke:#000000;stroke-width:0.25;stroke-linecap:round;stroke-miterlimit:10;}
	.st29{fill:none;stroke:#000000;stroke-width:0.25;stroke-linecap:round;stroke-miterlimit:10;}
	.st30{fill:none;stroke:#000000;stroke-width:0.25;stroke-linecap:round;stroke-miterlimit:10;stroke-dasharray:0.4994,0.9989;}
	.st31{fill:none;stroke:#000000;stroke-width:0.25;stroke-linecap:round;stroke-miterlimit:10;stroke-dasharray:0.4998,0.9996;}
	.st32{fill:none;stroke:#000000;stroke-width:0.25;stroke-linecap:round;stroke-miterlimit:10;stroke-dasharray:0.5222,1.0444;}
	.st33{opacity:0.8;fill:none;stroke:#F7931E;stroke-width:0.5;stroke-linecap:round;stroke-miterlimit:10;}
	.st34{opacity:0.8;fill:none;stroke:#009245;stroke-width:0.5;stroke-linecap:round;stroke-linejoin:round;stroke-miterlimit:10;}
	.st35{fill:none;stroke:#3FA9F5;stroke-width:0.5;stroke-linecap:round;stroke-linejoin:round;stroke-miterlimit:10;}
	.st36{fill:none;stroke:#000000;stroke-width:0.25;stroke-linecap:round;stroke-miterlimit:10;stroke-dasharray:0.5079,1.0157;}
	.st37{fill:none;stroke:#1075A1;stroke-width:0.5;stroke-linecap:round;stroke-miterlimit:10;}
	.st38{fill:none;stroke:#29ABE2;stroke-width:0.5;stroke-linecap:round;stroke-miterlimit:10;}
	.st39{fill:none;stroke:#29ABE2;stroke-width:0.5;stroke-linecap:round;stroke-miterlimit:10;stroke-dasharray:0.7061,1.0087;}
	.st40{fill:none;stroke:#29ABE2;stroke-width:0.5;stroke-linecap:round;stroke-miterlimit:10;stroke-dasharray:0.7663,1.0947;}
	.st41{fill:none;stroke:#29ABE2;stroke-width:0.5;stroke-linecap:round;stroke-miterlimit:10;stroke-dasharray:0.71,1.0142;}
	.st42{fill:none;stroke:#29ABE2;stroke-width:0.5;stroke-linecap:round;stroke-miterlimit:10;stroke-dasharray:0.7248,1.0355;}
	.st43{fill:none;stroke:#ED1C24;stroke-width:0.5;stroke-linecap:round;stroke-miterlimit:10;}
	.st44{fill:none;stroke:#ED1C24;stroke-width:0.5;stroke-linecap:round;stroke-miterlimit:10;stroke-dasharray:0.4655,0.9309;}
	.st45{fill:none;stroke:#ED1C24;stroke-width:0.5;stroke-linecap:round;stroke-miterlimit:10;stroke-dasharray:0.4929,0.9858;}
	.st46{fill:none;stroke:#ED1C24;stroke-width:0.5;stroke-linecap:round;stroke-miterlimit:10;stroke-dasharray:0.4882,0.9763;}
	.st47{fill:none;stroke:#ED1C24;stroke-width:0.5;stroke-linecap:round;stroke-miterlimit:10;stroke-dasharray:0.4951,0.9903;}
	.st48{opacity:0.5;fill:none;stroke:#1075A1;stroke-width:0.5;stroke-linecap:round;stroke-miterlimit:10;stroke-dasharray:0.5,1;}
</style>
<g id="Layer_2">
</g>
<g id="Layer_1">
	<g>
		<polyline class="st12" points="19.9,9.5 22.9,9.5 22.9,2.5 		"/>
		<polyline class="st12" points="20.9,12.5 22.9,12.5 22.9,15.5 		"/>
		<polyline class="st12" points="19.9,15.5 22.9,15.5 22.9,22.5 		"/>
		<line class="st12" x1="19.9" y1="16" x2="19.9" y2="15"/>
		<line class="st12" x1="19.9" y1="13" x2="19.9" y2="12"/>
		<line class="st12" x1="19.9" y1="10" x2="19.9" y2="9"/>
		<polygon class="st12" points="20.5,12.5 21.5,13.1 21.5,11.9 		"/>
		<line class="st12" x1="25.1" y1="11.7" x2="26.6" y2="11.7"/>
		<polygon class="st13" points="25.9,11.9 24.9,13.5 26.8,13.5 		"/>
		<polyline class="st12" points="18.4,16 18.4,9 16.9,9 		"/>
		<polyline class="st12" points="22.9,15.5 25.9,15.5 25.9,13.3 		"/>
		<polyline class="st12" points="22.9,9.5 25.9,9.5 25.9,11.7 		"/>
	</g>
	<g>
		<polyline class="st12" points="19.9,29.5 22.9,29.5 22.9,22.5 		"/>
		<polyline class="st12" points="20.9,32.5 22.9,32.5 22.9,35.5 		"/>
		<polyline class="st12" points="19.9,35.5 22.9,35.5 22.9,42.5 		"/>
		<line class="st12" x1="19.9" y1="36" x2="19.9" y2="35"/>
		<line class="st12" x1="19.9" y1="33" x2="19.9" y2="32"/>
		<line class="st12" x1="19.9" y1="30" x2="19.9" y2="29"/>
		<polygon class="st12" points="20.5,32.5 21.5,33.1 21.5,31.9 		"/>
		<line class="st12" x1="25.1" y1="31.7" x2="26.6" y2="31.7"/>
		<polygon class="st13" points="25.9,31.9 24.9,33.5 26.8,33.5 		"/>
		<polyline class="st12" points="18.4,36 18.4,29 16.9,29 		"/>
		<polyline class="st12" points="22.9,35.5 25.9,35.5 25.9,33.3 		"/>
		<polyline class="st12" points="22.9,29.5 25.9,29.5 25.9,31.7 		"/>
	</g>
	<g>
		<line class="st12" x1="8.5" y1="18.8" x2="8.5" y2="12.5"/>
		<line class="st12" x1="8.5" y1="32.5" x2="8.5" y2="26.2"/>
		<circle class="st12" cx="8.5" cy="22.5" r="3.7"/>
		<g>
			<line class="st12" x1="8.5" y1="20.3" x2="8.5" y2="21.8"/>
			<line class="st12" x1="9.3" y1="21.1" x2="7.8" y2="21.1"/>
			<line class="st12" x1="9.3" y1="24.7" x2="7.8" y2="24.7"/>
		</g>
	</g>
	<line class="st12" x1="22.9" y1="2.5" x2="42.9" y2="2.5"/>
	<line class="st12" x1="8.5" y1="2.5" x2="22.9" y2="2.5"/>
	<line class="st12" x1="42.9" y1="42.5" x2="8.5" y2="42.5"/>
	<line class="st12" x1="8.5" y1="32.5" x2="8.5" y2="42.5"/>
	<line class="st12" x1="8.5" y1="2.5" x2="8.5" y2="12.5"/>
	<text transform="matrix(1 0 0 1 13.2626 12.733)" class="st19 st20 st21">Q</text>
	<text transform="matrix(0.583 0 0 0.583 15.663 14.065)" class="st19 st20 st21">1</text>
	<text transform="matrix(1 0 0 1 13.1669 33.4403)" class="st19 st20 st21">Q</text>
	<text transform="matrix(0.583 0 0 0.583 15.5673 34.7724)" class="st19 st20 st21">1</text>
	<line class="st22" x1="13.6" y1="30.4" x2="15.2" y2="30.4"/>
	<g>
		<line class="st16" x1="22.7" y1="25.9" x2="42.7" y2="25.9"/>
		<text transform="matrix(1 0 0 1 30.7646 26.8825)" class="st23 st20 st21">v</text>
		<text transform="matrix(0.583 0 0 0.583 33.165 28.2145)" class="st23 st20 st21">ab</text>
		<line class="st17" x1="27.9" y1="25.9" x2="29.4" y2="25.9"/>
		<line class="st17" x1="37.5" y1="25.9" x2="36" y2="25.9"/>
		<line class="st17" x1="28.7" y1="25.1" x2="28.7" y2="26.6"/>
	</g>
	<g>
		<text transform="matrix(1 0 0 1 16.4991 21.5235)" class="st23 st20 st21">v</text>
		<text transform="matrix(0.583 0 0 0.583 18.8994 22.8556)" class="st23 st20 st21">ag</text>
		<circle id="XMLID_00000076563130760390417280000007145840842154480772_" cx="22.9" cy="22.5" r="0.7"/>
	</g>
	<g>
		<text transform="matrix(1 0 0 1 43.9264 22.5)" class="st23 st20 st21">v</text>
		<text transform="matrix(0.583 0 0 0.583 46.3268 23.832)" class="st23 st20 st21">bg</text>
		<circle id="XMLID_00000062163101549401591020000015907421304817865651_" cx="42.9" cy="22.5" r="0.7"/>
	</g>
	<text transform="matrix(1 0 0 1 0.8738 27.0011)" class="st20 st21">V</text>
	<text transform="matrix(0.583 0 0 0.583 3.2742 28.3332)" class="st20 st21">in</text>
	<g>
		<line class="st12" x1="42.9" y1="11.5" x2="42.9" y2="2.5"/>
		<line class="st12" x1="42.9" y1="22.5" x2="42.9" y2="13.5"/>
		<line class="st12" x1="40.4" y1="13.5" x2="45.4" y2="13.5"/>
		<line class="st12" x1="40.4" y1="11.5" x2="45.4" y2="11.5"/>
	</g>
	<g>
		<line class="st12" x1="42.9" y1="31.5" x2="42.9" y2="22.5"/>
		<line class="st12" x1="42.9" y1="42.5" x2="42.9" y2="33.5"/>
		<line class="st12" x1="40.4" y1="33.5" x2="45.4" y2="33.5"/>
		<line class="st12" x1="40.4" y1="31.5" x2="45.4" y2="31.5"/>
	</g>
	<g>
		<text transform="matrix(1 0 0 1 35.5824 13.4999)" class="st20 st21">C</text>
		<text transform="matrix(0.583 0 0 0.583 37.9827 14.832)" class="st20 st21">H</text>
	</g>
	<g>
		<text transform="matrix(1 0 0 1 35.5824 33.5343)" class="st20 st21">C</text>
		<text transform="matrix(0.583 0 0 0.583 37.9827 34.8663)" class="st20 st21">L</text>
	</g>
	<polyline class="st12" points="42.7,22.5 37.2,22.5 35.9,21 34.7,24 33.3,21 32.1,24 30.8,21 29.5,24 28.2,22.5 22.7,22.5 	"/>
</g>
</svg>
