<?xml version="1.0" encoding="utf-8"?>
<!-- Generator: Adobe Illustrator 27.5.0, SVG Export Plug-In . SVG Version: 6.00 Build 0)  -->
<svg version="1.1" xmlns="http://www.w3.org/2000/svg" xmlns:xlink="http://www.w3.org/1999/xlink" x="0px" y="0px" width="100px"
	 height="30px" viewBox="0 0 100 30" style="enable-background:new 0 0 100 30;" xml:space="preserve">
<style type="text/css">
	.st0{display:none;}
	.st1{display:inline;}
	.st2{fill:none;stroke:#6A93BF;stroke-width:0.25;stroke-linecap:round;stroke-linejoin:round;stroke-miterlimit:10;}
	
		.st3{display:inline;fill:none;stroke:#6A93BF;stroke-width:0.25;stroke-linecap:round;stroke-linejoin:round;stroke-miterlimit:10;}
	.st4{fill:none;stroke:#FC8754;stroke-width:2;stroke-miterlimit:10;}
	.st5{fill:#FFFFFF;stroke:#000000;stroke-miterlimit:10;}
	.st6{fill:none;stroke:#CAEAFF;stroke-linecap:square;stroke-miterlimit:10;}
	.st7{fill:#CAEAFF;}
	.st8{opacity:0.3;fill:#F21616;}
	.st9{fill:none;stroke:#CAEAFF;stroke-linecap:round;stroke-miterlimit:10;}
	.st10{fill:#FC8754;}
	.st11{fill:none;stroke:#000000;stroke-miterlimit:10;}
	.st12{fill:none;stroke:#000000;stroke-width:0.5;stroke-linecap:round;stroke-linejoin:round;stroke-miterlimit:10;}
	.st13{stroke:#000000;stroke-width:0.5;stroke-linecap:round;stroke-linejoin:round;stroke-miterlimit:10;}
	.st14{fill:#E55D1E;stroke:#E55D1E;stroke-width:0.5;stroke-linecap:round;stroke-linejoin:round;stroke-miterlimit:10;}
	.st15{fill:none;stroke:#E55D1E;stroke-width:0.5;stroke-linecap:round;stroke-linejoin:round;stroke-miterlimit:10;}
	.st16{fill:none;}
	.st17{fill:none;stroke:#1075A1;stroke-width:0.5;stroke-linecap:round;stroke-linejoin:round;stroke-miterlimit:10;}
	.st18{fill:none;stroke:#000000;stroke-width:0.25;stroke-miterlimit:10;}
	.st19{font-family:'Courier-Bold';}
	.st20{font-size:4px;}
	.st21{fill:#E55D1E;}
	.st22{fill:#1075A1;}
</style>
<g id="Layer_2">
</g>
<g id="Layer_1">
	<g>
		<line class="st12" x1="20.6" y1="27.4" x2="40.5" y2="27.4"/>
		<line class="st12" x1="60.6" y1="27.4" x2="80.6" y2="27.4"/>
		<path class="st12" d="M40.6,7.4v5.5c-1,0.1-1.7,0.7-1.7,1.5c0,0.8,0.7,1.4,1.7,1.5c-1,0.1-1.7,0.7-1.7,1.5c0,0.8,0.7,1.4,1.7,1.5
			c-1,0.1-1.7,0.7-1.7,1.5c0,0.8,0.7,1.4,1.7,1.5v5.5"/>
		<polyline class="st12" points="80.6,27.4 80.6,21.9 82.1,20.7 79.1,19.4 82.1,18.1 79.1,16.8 82.1,15.5 79.1,14.2 80.6,12.9 
			80.6,7.4 		"/>
		<g>
			<line class="st12" x1="60.6" y1="16.4" x2="60.6" y2="7.4"/>
			<line class="st12" x1="60.6" y1="27.4" x2="60.6" y2="18.4"/>
			<line class="st12" x1="58.1" y1="18.4" x2="63.1" y2="18.4"/>
			<line class="st12" x1="58.1" y1="16.4" x2="63.1" y2="16.4"/>
		</g>
		<g>
			<g>
				<line class="st13" x1="49.6" y1="7.4" x2="40.6" y2="7.4"/>
				<line class="st13" x1="60.6" y1="7.4" x2="51.6" y2="7.4"/>
			</g>
			<g>
				<line class="st13" x1="48.6" y1="8.9" x2="48.6" y2="5.9"/>
				<polygon class="st13" points="48.6,7.4 52.6,8.9 52.6,5.9 				"/>
			</g>
			<line class="st13" x1="49.6" y1="7.4" x2="53.6" y2="7.4"/>
		</g>
		<line class="st12" x1="40.6" y1="27.4" x2="60.6" y2="27.4"/>
		<line class="st12" x1="60.6" y1="7.4" x2="80.6" y2="7.4"/>
		<g>
			<polyline class="st12" points="27.6,10.4 27.6,7.4 20.6,7.4 			"/>
			<polyline class="st12" points="30.6,9.4 30.6,7.4 33.6,7.4 			"/>
			<polyline class="st12" points="33.6,10.4 33.6,7.4 40.6,7.4 			"/>
			<line class="st12" x1="34" y1="10.4" x2="33" y2="10.4"/>
			<line class="st12" x1="31.1" y1="10.4" x2="30.1" y2="10.4"/>
			<line class="st12" x1="28.1" y1="10.4" x2="27.1" y2="10.4"/>
			<polygon class="st12" points="30.6,9.8 31.1,8.8 30,8.8 			"/>
			<line class="st12" x1="29.7" y1="5.2" x2="29.7" y2="3.7"/>
			<polygon class="st13" points="30,4.4 31.6,5.4 31.6,3.5 			"/>
			<polyline class="st12" points="34,11.9 27.1,11.9 27.1,13.3 			"/>
			<polyline class="st12" points="33.6,7.4 33.6,4.4 31.4,4.4 			"/>
			<polyline class="st12" points="27.6,7.4 27.6,4.4 29.7,4.4 			"/>
		</g>
	</g>
	<text transform="matrix(1 0 0 1 35.5516 18.4418)" class="st19 st20">L</text>
	<text transform="matrix(1 0 0 1 12.5676 21.4513)" class="st19 st20">V</text>
	<text transform="matrix(0.583 0 0 0.583 14.968 22.7834)" class="st19 st20">in</text>
	<text transform="matrix(1 0 0 1 27.5669 15.8599)" class="st19 st20">Q</text>
	<g>
		<text transform="matrix(1 0 0 1 53.6532 18.5956)" class="st19 st20">C</text>
		<text transform="matrix(0.583 0 0 0.583 56.0536 19.9276)" class="st19 st20">o</text>
	</g>
	<g>
		<text transform="matrix(1 0 0 1 75.0765 18.442)" class="st19 st20">R</text>
	</g>
	<g>
		<text transform="matrix(1 0 0 1 35.7991 10.8781)" class="st21 st19 st20">i</text>
		<text transform="matrix(0.583 0 0 0.583 38.1995 12.2101)" class="st21 st19 st20">L</text>
		<g>
			<polygon class="st14" points="40.6,12.2 40.1,10.9 41.1,10.9 			"/>
		</g>
		<line class="st15" x1="40.6" y1="9.2" x2="40.6" y2="11.5"/>
	</g>
	<g>
		<text transform="matrix(1 0 0 1 54.3999 13.1146)" class="st21 st19 st20">i</text>
		<text transform="matrix(0.583 0 0 0.583 56.8003 14.4466)" class="st21 st19 st20">co</text>
		<g>
			<polygon class="st14" points="60.6,14.4 60.1,13.1 61.1,13.1 			"/>
		</g>
		<line class="st15" x1="60.6" y1="11.5" x2="60.6" y2="13.7"/>
	</g>
	<g>
		<text transform="matrix(1 0 0 1 75.7991 10.8742)" class="st21 st19 st20">i</text>
		<text transform="matrix(0.583 0 0 0.583 78.1995 12.2062)" class="st21 st19 st20">o</text>
		<g>
			<polygon class="st14" points="80.6,12.2 80.1,10.9 81.1,10.9 			"/>
		</g>
		<line class="st15" x1="80.6" y1="9.2" x2="80.6" y2="11.5"/>
	</g>
	<g>
		<text transform="matrix(1 0 0 1 22.1024 4.8972)" class="st21 st19 st20">i</text>
		<text transform="matrix(0.583 0 0 0.583 24.5028 6.2292)" class="st21 st19 st20">Q</text>
		<g>
			<polygon class="st14" points="24.9,7.4 23.5,7.9 23.5,6.9 			"/>
		</g>
		<line class="st15" x1="21.9" y1="7.4" x2="24.1" y2="7.4"/>
	</g>
	<g>
		<text transform="matrix(1 0 0 1 55.4677 4.8972)" class="st21 st19 st20">i</text>
		<text transform="matrix(0.583 0 0 0.583 57.8681 6.2292)" class="st21 st19 st20">D</text>
		<g>
			<polygon class="st14" points="58.2,7.4 56.9,7.9 56.9,6.9 			"/>
		</g>
		<line class="st15" x1="55.3" y1="7.4" x2="57.5" y2="7.4"/>
	</g>
	<g>
		<text transform="matrix(1 0 0 1 42.5793 18.5957)" class="st22 st19 st20">v</text>
		<text transform="matrix(0.583 0 0 0.583 44.9797 19.9277)" class="st22 st19 st20">L</text>
		<line class="st17" x1="43.7" y1="9.7" x2="43.7" y2="11.2"/>
		<line class="st17" x1="44.4" y1="10.4" x2="42.9" y2="10.4"/>
		<line class="st17" x1="44.4" y1="24.5" x2="42.9" y2="24.5"/>
	</g>
	<g>
		<text transform="matrix(1 0 0 1 83.5886 18.5957)" class="st22 st19 st20">v</text>
		<text transform="matrix(0.583 0 0 0.583 85.989 19.9277)" class="st22 st19 st20">o</text>
		<line class="st17" x1="84.7" y1="9.7" x2="84.7" y2="11.2"/>
		<line class="st17" x1="85.4" y1="10.4" x2="83.9" y2="10.4"/>
		<line class="st17" x1="85.4" y1="24.5" x2="83.9" y2="24.5"/>
	</g>
	<g>
		<line class="st12" x1="20.6" y1="13.7" x2="20.6" y2="7.4"/>
		<line class="st12" x1="20.6" y1="27.4" x2="20.6" y2="21.1"/>
		<circle class="st12" cx="20.6" cy="17.4" r="3.7"/>
		<g>
			<line class="st12" x1="20.6" y1="15.3" x2="20.6" y2="16.8"/>
			<line class="st12" x1="21.3" y1="16" x2="19.8" y2="16"/>
			<line class="st12" x1="21.3" y1="19.6" x2="19.8" y2="19.6"/>
		</g>
	</g>
</g>
</svg>
