<?xml version="1.0" encoding="utf-8"?>
<!-- Generator: Adobe Illustrator 27.5.0, SVG Export Plug-In . SVG Version: 6.00 Build 0)  -->
<svg version="1.1" xmlns="http://www.w3.org/2000/svg" xmlns:xlink="http://www.w3.org/1999/xlink" x="0px" y="0px" width="100px"
	 height="30px" viewBox="0 0 100 30" style="enable-background:new 0 0 100 30;" xml:space="preserve">
<style type="text/css">
	.st0{display:none;}
	.st1{display:inline;}
	.st2{fill:none;stroke:#6A93BF;stroke-width:0.25;stroke-linecap:round;stroke-linejoin:round;stroke-miterlimit:10;}
	
		.st3{display:inline;fill:none;stroke:#6A93BF;stroke-width:0.25;stroke-linecap:round;stroke-linejoin:round;stroke-miterlimit:10;}
	.st4{fill:none;stroke:#FC8754;stroke-width:2;stroke-miterlimit:10;}
	.st5{fill:#FFFFFF;stroke:#000000;stroke-miterlimit:10;}
	.st6{fill:none;stroke:#CAEAFF;stroke-linecap:square;stroke-miterlimit:10;}
	.st7{fill:#CAEAFF;}
	.st8{opacity:0.3;fill:#F21616;}
	.st9{fill:none;stroke:#CAEAFF;stroke-linecap:round;stroke-miterlimit:10;}
	.st10{fill:#FC8754;}
	.st11{fill:none;stroke:#000000;stroke-miterlimit:10;}
	.st12{fill:none;stroke:#000000;stroke-width:0.5;stroke-linecap:round;stroke-linejoin:round;stroke-miterlimit:10;}
	.st13{stroke:#000000;stroke-width:0.5;stroke-linecap:round;stroke-linejoin:round;stroke-miterlimit:10;}
	.st14{font-family:'Courier-Bold';}
	.st15{font-size:4px;}
	.st16{fill:#E55D1E;}
	.st17{fill:#E55D1E;stroke:#E55D1E;stroke-width:0.5;stroke-linecap:round;stroke-linejoin:round;stroke-miterlimit:10;}
	.st18{fill:none;stroke:#E55D1E;stroke-width:0.5;stroke-linecap:round;stroke-linejoin:round;stroke-miterlimit:10;}
	.st19{fill:none;}
	.st20{fill:#49565C;}
	.st21{fill:none;stroke:#49565C;stroke-width:0.5;stroke-linecap:round;stroke-linejoin:round;stroke-miterlimit:10;}
	.st22{fill:none;stroke:#000000;stroke-width:0.25;stroke-miterlimit:10;}
	.st23{fill:none;stroke:#29ABE2;stroke-width:0.5;stroke-linecap:round;stroke-linejoin:round;stroke-miterlimit:10;}
	.st24{fill:none;stroke:#ED1C24;stroke-width:0.5;stroke-linecap:round;stroke-linejoin:round;stroke-miterlimit:10;}
	.st25{display:inline;fill:none;stroke:#ED1C24;stroke-width:0.1;stroke-miterlimit:10;}
	.st26{opacity:0.3;}
	.st27{fill:none;stroke:#000000;stroke-width:0.5;stroke-linecap:round;stroke-miterlimit:10;}
	.st28{opacity:0.3;stroke:#000000;stroke-width:0.25;stroke-linecap:round;stroke-miterlimit:10;}
	.st29{fill:none;stroke:#000000;stroke-width:0.25;stroke-linecap:round;stroke-miterlimit:10;}
	.st30{fill:none;stroke:#000000;stroke-width:0.25;stroke-linecap:round;stroke-miterlimit:10;stroke-dasharray:0.4994,0.9989;}
	.st31{fill:none;stroke:#000000;stroke-width:0.25;stroke-linecap:round;stroke-miterlimit:10;stroke-dasharray:0.4998,0.9996;}
	.st32{fill:none;stroke:#000000;stroke-width:0.25;stroke-linecap:round;stroke-miterlimit:10;stroke-dasharray:0.5222,1.0444;}
	.st33{opacity:0.8;fill:none;stroke:#F7931E;stroke-width:0.5;stroke-linecap:round;stroke-miterlimit:10;}
	.st34{opacity:0.8;fill:none;stroke:#009245;stroke-width:0.5;stroke-linecap:round;stroke-linejoin:round;stroke-miterlimit:10;}
	.st35{fill:none;stroke:#3FA9F5;stroke-width:0.5;stroke-linecap:round;stroke-linejoin:round;stroke-miterlimit:10;}
	.st36{fill:none;stroke:#000000;stroke-width:0.25;stroke-linecap:round;stroke-miterlimit:10;stroke-dasharray:0.5079,1.0157;}
	.st37{fill:none;stroke:#49565C;stroke-width:0.5;stroke-linecap:round;stroke-miterlimit:10;}
	.st38{fill:none;stroke:#29ABE2;stroke-width:0.5;stroke-linecap:round;stroke-miterlimit:10;}
	.st39{fill:none;stroke:#29ABE2;stroke-width:0.5;stroke-linecap:round;stroke-miterlimit:10;stroke-dasharray:0.7061,1.0087;}
	.st40{fill:none;stroke:#29ABE2;stroke-width:0.5;stroke-linecap:round;stroke-miterlimit:10;stroke-dasharray:0.7663,1.0947;}
	.st41{fill:none;stroke:#29ABE2;stroke-width:0.5;stroke-linecap:round;stroke-miterlimit:10;stroke-dasharray:0.71,1.0142;}
	.st42{fill:none;stroke:#29ABE2;stroke-width:0.5;stroke-linecap:round;stroke-miterlimit:10;stroke-dasharray:0.7248,1.0355;}
	.st43{fill:none;stroke:#ED1C24;stroke-width:0.5;stroke-linecap:round;stroke-miterlimit:10;}
	.st44{fill:none;stroke:#ED1C24;stroke-width:0.5;stroke-linecap:round;stroke-miterlimit:10;stroke-dasharray:0.4655,0.9309;}
	.st45{fill:none;stroke:#ED1C24;stroke-width:0.5;stroke-linecap:round;stroke-miterlimit:10;stroke-dasharray:0.4929,0.9858;}
	.st46{fill:none;stroke:#ED1C24;stroke-width:0.5;stroke-linecap:round;stroke-miterlimit:10;stroke-dasharray:0.4882,0.9763;}
	.st47{fill:none;stroke:#ED1C24;stroke-width:0.5;stroke-linecap:round;stroke-miterlimit:10;stroke-dasharray:0.4951,0.9903;}
	.st48{opacity:0.5;fill:none;stroke:#49565C;stroke-width:0.5;stroke-linecap:round;stroke-miterlimit:10;stroke-dasharray:0.5,1;}
</style>
<g id="Layer_2">
</g>
<g id="Layer_1">
	<g>
		<g>
			<line class="st12" x1="25.1" y1="27.4" x2="45.1" y2="27.4"/>
			<line class="st12" x1="65.1" y1="27.4" x2="76.1" y2="27.4"/>
			<path class="st12" d="M45.1,7.4v5.5c-1,0.1-1.7,0.7-1.7,1.5c0,0.8,0.7,1.4,1.7,1.5c-1,0.1-1.7,0.7-1.7,1.5c0,0.8,0.7,1.4,1.7,1.5
				c-1,0.1-1.7,0.7-1.7,1.5c0,0.8,0.7,1.4,1.7,1.5v5.5"/>
			<polyline class="st12" points="76.1,27.4 76.1,21.9 77.6,20.7 74.6,19.4 77.6,18.1 74.6,16.8 77.6,15.5 74.6,14.2 76.1,12.9 
				76.1,7.4 			"/>
			<g>
				<line class="st12" x1="65.1" y1="16.4" x2="65.1" y2="7.4"/>
				<line class="st12" x1="65.1" y1="27.4" x2="65.1" y2="18.4"/>
				<line class="st12" x1="62.6" y1="18.4" x2="67.6" y2="18.4"/>
				<line class="st12" x1="62.6" y1="16.4" x2="67.6" y2="16.4"/>
			</g>
			<g>
				<g>
					<line class="st13" x1="54.1" y1="7.4" x2="45.1" y2="7.4"/>
					<line class="st13" x1="65.1" y1="7.4" x2="56.1" y2="7.4"/>
				</g>
				<g>
					<line class="st13" x1="53.1" y1="8.9" x2="53.1" y2="5.9"/>
					<polygon class="st13" points="53.1,7.4 57.1,8.9 57.1,5.9 					"/>
				</g>
				<line class="st13" x1="54.1" y1="7.4" x2="58.1" y2="7.4"/>
			</g>
			<line class="st12" x1="45.1" y1="27.4" x2="65.1" y2="27.4"/>
			<line class="st12" x1="65.1" y1="7.4" x2="76.1" y2="7.4"/>
			<g>
				<polyline class="st12" points="32.1,10.4 32.1,7.4 25.1,7.4 				"/>
				<polyline class="st12" points="35.1,9.4 35.1,7.4 38.1,7.4 				"/>
				<polyline class="st12" points="38.1,10.4 38.1,7.4 45.1,7.4 				"/>
				<line class="st12" x1="38.5" y1="10.4" x2="37.5" y2="10.4"/>
				<line class="st12" x1="35.6" y1="10.4" x2="34.6" y2="10.4"/>
				<line class="st12" x1="32.6" y1="10.4" x2="31.6" y2="10.4"/>
				<polygon class="st12" points="35.1,9.8 35.7,8.8 34.5,8.8 				"/>
				<line class="st12" x1="34.3" y1="5.2" x2="34.3" y2="3.7"/>
				<polygon class="st13" points="34.5,4.4 36.1,5.4 36.1,3.5 				"/>
				<polyline class="st12" points="38.5,11.9 31.6,11.9 31.6,13.3 				"/>
				<polyline class="st12" points="38.1,7.4 38.1,4.4 35.9,4.4 				"/>
				<polyline class="st12" points="32.1,7.4 32.1,4.4 34.3,4.4 				"/>
			</g>
		</g>
		<text transform="matrix(1 0 0 1 40.0734 18.4418)" class="st14 st15">L</text>
		<text transform="matrix(1 0 0 1 17.0895 21.4513)" class="st14 st15">V</text>
		<text transform="matrix(0.583 0 0 0.583 19.4899 22.7834)" class="st14 st15">in</text>
		<text transform="matrix(1 0 0 1 32.0887 15.8599)" class="st14 st15">Q</text>
		<g>
			<text transform="matrix(1 0 0 1 58.175 18.5956)" class="st14 st15">C</text>
			<text transform="matrix(0.583 0 0 0.583 60.5754 19.9276)" class="st14 st15">o</text>
		</g>
		<g>
			<text transform="matrix(1 0 0 1 70.5983 18.442)" class="st14 st15">R</text>
		</g>
		<g>
			<text transform="matrix(1 0 0 1 40.3209 10.8781)" class="st16 st14 st15">i</text>
			<text transform="matrix(0.583 0 0 0.583 42.7213 12.2101)" class="st16 st14 st15">L</text>
			<g>
				<polygon class="st17" points="45.1,12.2 44.6,10.9 45.6,10.9 				"/>
			</g>
			<line class="st18" x1="45.1" y1="9.2" x2="45.1" y2="11.5"/>
		</g>
		<g>
			<text transform="matrix(1 0 0 1 58.9218 13.1146)" class="st16 st14 st15">i</text>
			<text transform="matrix(0.583 0 0 0.583 61.3222 14.4466)" class="st16 st14 st15">co</text>
			<g>
				<polygon class="st17" points="65.1,14.4 64.6,13.1 65.6,13.1 				"/>
			</g>
			<line class="st18" x1="65.1" y1="11.5" x2="65.1" y2="13.7"/>
		</g>
		<g>
			<text transform="matrix(1 0 0 1 71.3209 10.8742)" class="st16 st14 st15">i</text>
			<text transform="matrix(0.583 0 0 0.583 73.7213 12.2062)" class="st16 st14 st15">o</text>
			<g>
				<polygon class="st17" points="76.1,12.2 75.6,10.9 76.6,10.9 				"/>
			</g>
			<line class="st18" x1="76.1" y1="9.2" x2="76.1" y2="11.5"/>
		</g>
		<g>
			<text transform="matrix(1 0 0 1 26.6242 4.8972)" class="st16 st14 st15">i</text>
			<text transform="matrix(0.583 0 0 0.583 29.0246 6.2292)" class="st16 st14 st15">Q</text>
			<g>
				<polygon class="st17" points="29.4,7.4 28.1,7.9 28.1,6.9 				"/>
			</g>
			<line class="st18" x1="26.4" y1="7.4" x2="28.7" y2="7.4"/>
		</g>
		<g>
			<text transform="matrix(1 0 0 1 59.9896 4.8972)" class="st16 st14 st15">i</text>
			<text transform="matrix(0.583 0 0 0.583 62.3899 6.2292)" class="st16 st14 st15">D</text>
			<g>
				<polygon class="st17" points="62.7,7.4 61.4,7.9 61.4,6.9 				"/>
			</g>
			<line class="st18" x1="59.8" y1="7.4" x2="62" y2="7.4"/>
		</g>
		<g>
			<text transform="matrix(1 0 0 1 47.1011 18.5957)" class="st20 st14 st15">v</text>
			<text transform="matrix(0.583 0 0 0.583 49.5015 19.9277)" class="st20 st14 st15">L</text>
			<line class="st21" x1="48.2" y1="9.7" x2="48.2" y2="11.2"/>
			<line class="st21" x1="48.9" y1="10.4" x2="47.4" y2="10.4"/>
			<line class="st21" x1="48.9" y1="24.5" x2="47.4" y2="24.5"/>
		</g>
		<g>
			<text transform="matrix(1 0 0 1 79.1105 18.5957)" class="st20 st14 st15">v</text>
			<text transform="matrix(0.583 0 0 0.583 81.5109 19.9277)" class="st20 st14 st15">o</text>
			<line class="st21" x1="80.2" y1="9.7" x2="80.2" y2="11.2"/>
			<line class="st21" x1="81" y1="10.4" x2="79.5" y2="10.4"/>
			<line class="st21" x1="81" y1="24.5" x2="79.5" y2="24.5"/>
		</g>
		<g>
			<line class="st12" x1="25.1" y1="13.7" x2="25.1" y2="7.4"/>
			<line class="st12" x1="25.1" y1="27.4" x2="25.1" y2="21.1"/>
			<circle class="st12" cx="25.1" cy="17.4" r="3.7"/>
			<g>
				<line class="st12" x1="25.1" y1="15.3" x2="25.1" y2="16.8"/>
				<line class="st12" x1="25.8" y1="16" x2="24.3" y2="16"/>
				<line class="st12" x1="25.8" y1="19.6" x2="24.3" y2="19.6"/>
			</g>
		</g>
		<g>
			<text transform="matrix(1 0 0 1 53.8384 5.1924)" class="st14 st15">D</text>
		</g>
	</g>
</g>
</svg>
