<?xml version="1.0" encoding="utf-8"?>
<!-- Generator: Adobe Illustrator 27.5.0, SVG Export Plug-In . SVG Version: 6.00 Build 0)  -->
<svg version="1.1" xmlns="http://www.w3.org/2000/svg" xmlns:xlink="http://www.w3.org/1999/xlink" x="0px" y="0px" width="75.9px"
	 height="26.6px" viewBox="0 0 75.9 26.6" style="enable-background:new 0 0 75.9 26.6;" xml:space="preserve">
<style type="text/css">
	.st0{display:none;}
	.st1{display:inline;}
	.st2{fill:none;stroke:#6A93BF;stroke-width:0.25;stroke-linecap:round;stroke-linejoin:round;stroke-miterlimit:10;}
	
		.st3{display:inline;fill:none;stroke:#6A93BF;stroke-width:0.25;stroke-linecap:round;stroke-linejoin:round;stroke-miterlimit:10;}
	.st4{fill:none;stroke:#FC8754;stroke-width:2;stroke-miterlimit:10;}
	.st5{fill:#FFFFFF;stroke:#000000;stroke-miterlimit:10;}
	.st6{fill:none;stroke:#CAEAFF;stroke-linecap:square;stroke-miterlimit:10;}
	.st7{fill:#CAEAFF;}
	.st8{opacity:0.3;fill:#F21616;}
	.st9{fill:none;stroke:#CAEAFF;stroke-linecap:round;stroke-miterlimit:10;}
	.st10{fill:#FC8754;}
	.st11{fill:none;stroke:#000000;stroke-miterlimit:10;}
	.st12{fill:none;stroke:#000000;stroke-width:0.5;stroke-linecap:round;stroke-linejoin:round;stroke-miterlimit:10;}
	.st13{stroke:#000000;stroke-width:0.5;stroke-linecap:round;stroke-linejoin:round;stroke-miterlimit:10;}
	.st14{fill:#E55D1E;stroke:#E55D1E;stroke-width:0.5;stroke-linecap:round;stroke-linejoin:round;stroke-miterlimit:10;}
	.st15{fill:none;stroke:#E55D1E;stroke-width:0.5;stroke-linecap:round;stroke-linejoin:round;stroke-miterlimit:10;}
	.st16{fill:none;}
	.st17{fill:none;stroke:#1075A1;stroke-width:0.5;stroke-linecap:round;stroke-linejoin:round;stroke-miterlimit:10;}
	.st18{fill:none;stroke:#000000;stroke-width:0.25;stroke-miterlimit:10;}
	.st19{font-family:'Courier-Bold';}
	.st20{font-size:4px;}
	.st21{fill:#E55D1E;}
	.st22{fill:#1075A1;}
</style>
<g id="Layer_2">
</g>
<g id="Layer_1">
	<g>
		<line class="st12" x1="8.5" y1="25.7" x2="28.5" y2="25.7"/>
		<line class="st12" x1="48.5" y1="25.7" x2="68.5" y2="25.7"/>
		<path class="st12" d="M28.5,5.7v5.5c-1,0.1-1.7,0.7-1.7,1.5c0,0.8,0.7,1.4,1.7,1.5c-1,0.1-1.7,0.7-1.7,1.5c0,0.8,0.7,1.4,1.7,1.5
			c-1,0.1-1.7,0.7-1.7,1.5c0,0.8,0.7,1.4,1.7,1.5v5.5"/>
		<polyline class="st12" points="68.5,25.7 68.5,20.2 70,18.9 67,17.7 70,16.4 67,15.1 70,13.8 67,12.5 68.5,11.2 68.5,5.7 		"/>
		<g>
			<line class="st12" x1="48.5" y1="14.7" x2="48.5" y2="5.7"/>
			<line class="st12" x1="48.5" y1="25.7" x2="48.5" y2="16.7"/>
			<line class="st12" x1="46" y1="16.7" x2="51" y2="16.7"/>
			<line class="st12" x1="46" y1="14.7" x2="51" y2="14.7"/>
		</g>
		<g>
			<g>
				<line class="st13" x1="37.5" y1="5.7" x2="28.5" y2="5.7"/>
				<line class="st13" x1="48.5" y1="5.7" x2="39.5" y2="5.7"/>
			</g>
			<g>
				<line class="st13" x1="36.5" y1="7.2" x2="36.5" y2="4.2"/>
				<polygon class="st13" points="36.5,5.7 40.5,7.2 40.5,4.2 				"/>
			</g>
			<line class="st13" x1="37.5" y1="5.7" x2="41.5" y2="5.7"/>
		</g>
		<line class="st12" x1="28.5" y1="25.7" x2="48.5" y2="25.7"/>
		<line class="st12" x1="48.5" y1="5.7" x2="68.5" y2="5.7"/>
		<g>
			<polyline class="st12" points="15.5,8.7 15.5,5.7 8.5,5.7 			"/>
			<polyline class="st12" points="18.5,7.7 18.5,5.7 21.5,5.7 			"/>
			<polyline class="st12" points="21.5,8.7 21.5,5.7 28.5,5.7 			"/>
			<line class="st12" x1="22" y1="8.7" x2="21" y2="8.7"/>
			<line class="st12" x1="19" y1="8.7" x2="18" y2="8.7"/>
			<line class="st12" x1="16" y1="8.7" x2="15" y2="8.7"/>
			<polygon class="st12" points="18.5,8.1 19.1,7.1 18,7.1 			"/>
			<line class="st12" x1="17.7" y1="3.5" x2="17.7" y2="2"/>
			<polygon class="st13" points="18,2.7 19.6,3.7 19.6,1.8 			"/>
			<polyline class="st12" points="22,10.2 15,10.2 15,11.6 			"/>
			<polyline class="st12" points="21.5,5.7 21.5,2.7 19.4,2.7 			"/>
			<polyline class="st12" points="15.5,5.7 15.5,2.7 17.7,2.7 			"/>
		</g>
	</g>
	<text transform="matrix(1 0 0 1 23.5186 16.7297)" class="st19 st20">L</text>
	<text transform="matrix(1 0 0 1 0.5347 19.7392)" class="st19 st20">V</text>
	<text transform="matrix(0.583 0 0 0.583 2.9351 21.0712)" class="st19 st20">in</text>
	<text transform="matrix(1 0 0 1 15.5339 14.1478)" class="st19 st20">Q</text>
	<g>
		<text transform="matrix(1 0 0 1 41.6202 16.8834)" class="st19 st20">C</text>
		<text transform="matrix(0.583 0 0 0.583 44.0206 18.2155)" class="st19 st20">o</text>
	</g>
	<g>
		<text transform="matrix(1 0 0 1 63.0435 16.7299)" class="st19 st20">R</text>
	</g>
	<g>
		<text transform="matrix(1 0 0 1 23.7661 9.1659)" class="st21 st19 st20">i</text>
		<text transform="matrix(0.583 0 0 0.583 26.1665 10.498)" class="st21 st19 st20">L</text>
		<g>
			<polygon class="st14" points="28.5,10.5 28,9.2 29,9.2 			"/>
		</g>
		<line class="st15" x1="28.5" y1="7.5" x2="28.5" y2="9.8"/>
	</g>
	<g>
		<text transform="matrix(1 0 0 1 42.367 11.4024)" class="st21 st19 st20">i</text>
		<text transform="matrix(0.583 0 0 0.583 44.7674 12.7345)" class="st21 st19 st20">co</text>
		<g>
			<polygon class="st14" points="48.5,12.7 48,11.4 49,11.4 			"/>
		</g>
		<line class="st15" x1="48.5" y1="9.8" x2="48.5" y2="12"/>
	</g>
	<g>
		<text transform="matrix(1 0 0 1 63.7661 9.1621)" class="st21 st19 st20">i</text>
		<text transform="matrix(0.583 0 0 0.583 66.1665 10.4941)" class="st21 st19 st20">o</text>
		<g>
			<polygon class="st14" points="68.5,10.5 68,9.2 69,9.2 			"/>
		</g>
		<line class="st15" x1="68.5" y1="7.5" x2="68.5" y2="9.7"/>
	</g>
	<g>
		<text transform="matrix(1 0 0 1 10.0694 3.1851)" class="st21 st19 st20">i</text>
		<text transform="matrix(0.583 0 0 0.583 12.4698 4.5171)" class="st21 st19 st20">Q</text>
		<g>
			<polygon class="st14" points="12.8,5.7 11.5,6.2 11.5,5.2 			"/>
		</g>
		<line class="st15" x1="9.9" y1="5.7" x2="12.1" y2="5.7"/>
	</g>
	<g>
		<text transform="matrix(1 0 0 1 43.4347 3.1851)" class="st21 st19 st20">i</text>
		<text transform="matrix(0.583 0 0 0.583 45.8351 4.5171)" class="st21 st19 st20">D</text>
		<g>
			<polygon class="st14" points="46.2,5.7 44.9,6.2 44.9,5.2 			"/>
		</g>
		<line class="st15" x1="43.2" y1="5.7" x2="45.5" y2="5.7"/>
	</g>
	<g>
		<text transform="matrix(1 0 0 1 30.5463 16.8836)" class="st22 st19 st20">v</text>
		<text transform="matrix(0.583 0 0 0.583 32.9467 18.2156)" class="st22 st19 st20">L</text>
		<line class="st17" x1="31.6" y1="8" x2="31.6" y2="9.5"/>
		<line class="st17" x1="32.4" y1="8.7" x2="30.9" y2="8.7"/>
		<line class="st17" x1="32.4" y1="22.7" x2="30.9" y2="22.7"/>
	</g>
	<g>
		<text transform="matrix(1 0 0 1 71.5557 16.8836)" class="st22 st19 st20">v</text>
		<text transform="matrix(0.583 0 0 0.583 73.9561 18.2156)" class="st22 st19 st20">o</text>
		<line class="st17" x1="72.6" y1="8" x2="72.6" y2="9.5"/>
		<line class="st17" x1="73.4" y1="8.7" x2="71.9" y2="8.7"/>
		<line class="st17" x1="73.4" y1="22.7" x2="71.9" y2="22.7"/>
	</g>
	<g>
		<line class="st12" x1="8.5" y1="12" x2="8.5" y2="5.7"/>
		<line class="st12" x1="8.5" y1="25.7" x2="8.5" y2="19.4"/>
		<circle class="st12" cx="8.5" cy="15.7" r="3.7"/>
		<g>
			<line class="st12" x1="8.5" y1="13.6" x2="8.5" y2="15.1"/>
			<line class="st12" x1="9.3" y1="14.3" x2="7.8" y2="14.3"/>
			<line class="st12" x1="9.3" y1="17.9" x2="7.8" y2="17.9"/>
		</g>
	</g>
</g>
</svg>
