<?xml version="1.0" encoding="utf-8"?>
<!-- Generator: Adobe Illustrator 27.5.0, SVG Export Plug-In . SVG Version: 6.00 Build 0)  -->
<svg version="1.1" xmlns="http://www.w3.org/2000/svg" xmlns:xlink="http://www.w3.org/1999/xlink" x="0px" y="0px" width="80px"
	 height="45px" viewBox="0 0 80 45" style="enable-background:new 0 0 80 45;" xml:space="preserve">
<style type="text/css">
	.st0{display:none;}
	.st1{display:inline;}
	.st2{fill:none;stroke:#6A93BF;stroke-width:0.25;stroke-linecap:round;stroke-linejoin:round;stroke-miterlimit:10;}
	
		.st3{display:inline;fill:none;stroke:#6A93BF;stroke-width:0.25;stroke-linecap:round;stroke-linejoin:round;stroke-miterlimit:10;}
	.st4{fill:none;stroke:#FC8754;stroke-width:2;stroke-miterlimit:10;}
	.st5{fill:#FFFFFF;stroke:#000000;stroke-miterlimit:10;}
	.st6{fill:none;stroke:#CAEAFF;stroke-linecap:square;stroke-miterlimit:10;}
	.st7{fill:#CAEAFF;}
	.st8{opacity:0.3;fill:#F21616;}
	.st9{fill:none;stroke:#CAEAFF;stroke-linecap:round;stroke-miterlimit:10;}
	.st10{fill:#FC8754;}
	.st11{fill:none;stroke:#000000;stroke-miterlimit:10;}
	.st12{fill:none;stroke:#000000;stroke-width:0.5;stroke-linecap:round;stroke-linejoin:round;stroke-miterlimit:10;}
	.st13{stroke:#000000;stroke-width:0.5;stroke-linecap:round;stroke-linejoin:round;stroke-miterlimit:10;}
	.st14{fill:#E55D1E;stroke:#E55D1E;stroke-width:0.5;stroke-linecap:round;stroke-linejoin:round;stroke-miterlimit:10;}
	.st15{fill:none;stroke:#E55D1E;stroke-width:0.5;stroke-linecap:round;stroke-linejoin:round;stroke-miterlimit:10;}
	.st16{fill:none;}
	.st17{fill:none;stroke:#49565C;stroke-width:0.5;stroke-linecap:round;stroke-linejoin:round;stroke-miterlimit:10;}
	.st18{fill:none;stroke:#000000;stroke-width:0.25;stroke-miterlimit:10;}
	.st19{fill:none;stroke:#29ABE2;stroke-width:0.5;stroke-linecap:round;stroke-linejoin:round;stroke-miterlimit:10;}
	.st20{fill:none;stroke:#ED1C24;stroke-width:0.5;stroke-linecap:round;stroke-linejoin:round;stroke-miterlimit:10;}
	.st21{fill:#009245;}
	.st22{font-family:'Times-BoldItalic';}
	.st23{font-size:4px;}
	.st24{fill:#FF931E;}
	.st25{display:inline;fill:none;stroke:#ED1C24;stroke-width:0.1;stroke-miterlimit:10;}
	.st26{opacity:0.5;}
	.st27{opacity:0.3;}
	.st28{fill:none;stroke:#000000;stroke-width:0.5;stroke-linecap:round;stroke-miterlimit:10;}
	.st29{opacity:0.3;stroke:#000000;stroke-width:0.25;stroke-linecap:round;stroke-miterlimit:10;}
	.st30{fill:none;stroke:#000000;stroke-width:0.25;stroke-linecap:round;stroke-miterlimit:10;}
	.st31{fill:none;stroke:#000000;stroke-width:0.25;stroke-linecap:round;stroke-miterlimit:10;stroke-dasharray:0.4994,0.9989;}
	.st32{fill:none;stroke:#000000;stroke-width:0.25;stroke-linecap:round;stroke-miterlimit:10;stroke-dasharray:0.4998,0.9996;}
	.st33{fill:none;stroke:#000000;stroke-width:0.25;stroke-linecap:round;stroke-miterlimit:10;stroke-dasharray:0.5222,1.0444;}
	.st34{font-family:'Times-Bold';}
	.st35{opacity:0.8;fill:none;stroke:#F7931E;stroke-width:0.5;stroke-linecap:round;stroke-miterlimit:10;}
	.st36{opacity:0.8;fill:none;stroke:#009245;stroke-width:0.5;stroke-linecap:round;stroke-linejoin:round;stroke-miterlimit:10;}
	.st37{fill:none;stroke:#3FA9F5;stroke-width:0.5;stroke-linecap:round;stroke-linejoin:round;stroke-miterlimit:10;}
	.st38{fill:none;stroke:#000000;stroke-width:0.25;stroke-linecap:round;stroke-miterlimit:10;stroke-dasharray:0.5079,1.0157;}
	.st39{fill:none;stroke:#49565C;stroke-width:0.5;stroke-linecap:round;stroke-miterlimit:10;}
	.st40{fill:none;stroke:#29ABE2;stroke-width:0.5;stroke-linecap:round;stroke-miterlimit:10;}
	.st41{fill:none;stroke:#29ABE2;stroke-width:0.5;stroke-linecap:round;stroke-miterlimit:10;stroke-dasharray:0.7061,1.0087;}
	.st42{fill:none;stroke:#29ABE2;stroke-width:0.5;stroke-linecap:round;stroke-miterlimit:10;stroke-dasharray:0.7663,1.0947;}
	.st43{fill:none;stroke:#29ABE2;stroke-width:0.5;stroke-linecap:round;stroke-miterlimit:10;stroke-dasharray:0.71,1.0142;}
	.st44{fill:none;stroke:#29ABE2;stroke-width:0.5;stroke-linecap:round;stroke-miterlimit:10;stroke-dasharray:0.7248,1.0355;}
	.st45{fill:none;stroke:#ED1C24;stroke-width:0.5;stroke-linecap:round;stroke-miterlimit:10;}
	.st46{fill:none;stroke:#ED1C24;stroke-width:0.5;stroke-linecap:round;stroke-miterlimit:10;stroke-dasharray:0.4655,0.9309;}
	.st47{fill:none;stroke:#ED1C24;stroke-width:0.5;stroke-linecap:round;stroke-miterlimit:10;stroke-dasharray:0.4929,0.9858;}
	.st48{fill:none;stroke:#ED1C24;stroke-width:0.5;stroke-linecap:round;stroke-miterlimit:10;stroke-dasharray:0.4882,0.9763;}
	.st49{fill:none;stroke:#ED1C24;stroke-width:0.5;stroke-linecap:round;stroke-miterlimit:10;stroke-dasharray:0.4951,0.9903;}
	.st50{opacity:0.5;fill:none;stroke:#49565C;stroke-width:0.5;stroke-linecap:round;stroke-miterlimit:10;stroke-dasharray:0.5,1;}
</style>
<g id="Layer_2">
</g>
<g id="Layer_1">
	<g>
		<text transform="matrix(1 0 0 1 1.9774 6.4598)" class="st21 st22 st23">V</text>
		<text transform="matrix(0.583 0 0 0.583 4.6453 7.7918)" class="st21 st22 st23">C</text>
		<text transform="matrix(1 0 0 1 65.7548 7.9798)" class="st21 st22 st23">v</text>
		<text transform="matrix(0.583 0 0 0.583 67.5301 9.3118)" class="st21 st22 st23">c</text>
		<text transform="matrix(1 0 0 1 51.3714 22.9671)" class="st24 st22 st23">v</text>
		<text transform="matrix(0.583 0 0 0.583 53.1468 24.2991)" class="st24 st22 st23">r</text>
		<text transform="matrix(1 0 0 1 3.1633 11.7932)" class="st24 st22 st23">V</text>
		<text transform="matrix(0.583 0 0 0.583 5.8313 13.1252)" class="st24 st22 st23">R</text>
		<text transform="matrix(1 0 0 1 0.5979 19.5441)" class="st24 st22 st23">-V</text>
		<text transform="matrix(0.583 0 0 0.583 4.5979 20.8761)" class="st24 st22 st23">R</text>
		<text transform="matrix(1 0 0 1 1.4746 25.0317)" class="st21 st22 st23">-V</text>
		<text transform="matrix(0.583 0 0 0.583 5.4746 26.3638)" class="st21 st22 st23">C</text>
		<g class="st0">
			<line class="st25" x1="9.4" y1="14.7" x2="9.4" y2="48.6"/>
			<line class="st25" x1="12" y1="13.4" x2="12" y2="48.6"/>
			<line class="st25" x1="16" y1="11.9" x2="16" y2="48.6"/>
			<line class="st25" x1="17.7" y1="11.4" x2="17.7" y2="48.6"/>
			<line class="st25" x1="22.2" y1="10.7" x2="22.3" y2="48.6"/>
			<line class="st25" x1="23.5" y1="10.7" x2="23.6" y2="48.6"/>
			<line class="st25" x1="28.1" y1="11.4" x2="28.1" y2="48.6"/>
			<line class="st25" x1="29.7" y1="11.9" x2="29.8" y2="48.6"/>
			<line class="st25" x1="33.7" y1="13.5" x2="33.8" y2="48.6"/>
			<line class="st25" x1="36.2" y1="14.7" x2="36.3" y2="48.6"/>
			<line class="st25" x1="39.3" y1="16.1" x2="39.3" y2="48.6"/>
			<line class="st25" x1="42.8" y1="17.8" x2="42.8" y2="48.6"/>
			<line class="st25" x1="44.8" y1="18.6" x2="44.9" y2="48.6"/>
			<line class="st25" x1="49.2" y1="19.8" x2="49.2" y2="48.6"/>
			<line class="st25" x1="50.6" y1="20" x2="50.6" y2="48.6"/>
			<line class="st25" x1="55.2" y1="20" x2="55.3" y2="48.6"/>
			<line class="st25" x1="56.6" y1="19.8" x2="56.7" y2="48.6"/>
			<line class="st25" x1="61" y1="18.5" x2="61" y2="48.6"/>
			<line class="st25" x1="63" y1="17.8" x2="63" y2="48.6"/>
			<line class="st25" x1="66.5" y1="16.1" x2="66.6" y2="48.6"/>
			<line class="st25" x1="67.9" y1="15.4" x2="67.9" y2="48.6"/>
			<line class="st25" x1="4.5" y1="43.4" x2="79.3" y2="43.4"/>
		</g>
		<g>
			<text transform="matrix(1 0 0 1 66.5045 13.3687)" class="st26 st22 st23">2π</text>
			<text transform="matrix(1 0 0 1 37.0142 13.4206)" class="st26 st22 st23">π</text>
			<text transform="matrix(1 0 0 1 8.8258 3.9973)" class="st26 st22 st23">V</text>
			<g class="st26">
				<text transform="matrix(1 0 0 1 73.494 18.5581)" class="st22 st23">ω</text>
				<text transform="matrix(0.583 0 0 0.583 76.3827 19.8901)" class="st22 st23">r</text>
				<text transform="matrix(1 0 0 1 77.2904 18.5581)" class="st22 st23">t</text>
			</g>
			<g>
				<g class="st27">
					<g>
						<line class="st28" x1="7.9" y1="26.6" x2="7.9" y2="4.9"/>
						<g>
							<polygon points="8.8,5.5 7.9,2.3 7,5.5 							"/>
						</g>
					</g>
				</g>
				<line class="st29" x1="7.9" y1="7" x2="6.6" y2="7"/>
				<line class="st29" x1="7.9" y1="10.7" x2="6.6" y2="10.7"/>
				<line class="st29" x1="7.9" y1="23.8" x2="6.6" y2="23.8"/>
				<line class="st29" x1="67.9" y1="13.9" x2="67.9" y2="15.4"/>
				<line class="st29" x1="37.9" y1="13.9" x2="37.9" y2="15.4"/>
				<g class="st27">
					<g>
						<line class="st28" x1="7.9" y1="15.4" x2="73.6" y2="15.4"/>
						<g>
							<polygon points="73,16.3 76.3,15.4 73,14.6 							"/>
						</g>
					</g>
				</g>
				<g class="st27">
					<g>
						<line class="st30" x1="22.9" y1="10.7" x2="22.6" y2="10.7"/>
						<line class="st31" x1="21.6" y1="10.7" x2="8.6" y2="10.7"/>
						<line class="st30" x1="8.1" y1="10.7" x2="7.9" y2="10.7"/>
					</g>
				</g>
				<line class="st29" x1="7.9" y1="20.1" x2="6.6" y2="20.1"/>
				<g class="st27">
					<g>
						<line class="st30" x1="52.9" y1="20.1" x2="52.6" y2="20.1"/>
						<line class="st32" x1="51.6" y1="20.1" x2="8.6" y2="20.1"/>
						<line class="st30" x1="8.1" y1="20.1" x2="7.9" y2="20.1"/>
					</g>
				</g>
				<g class="st27">
					<g>
						<line class="st30" x1="7.9" y1="7" x2="8.1" y2="7"/>
						<line class="st33" x1="9.2" y1="7" x2="10.2" y2="7"/>
						<line class="st30" x1="10.7" y1="7" x2="11" y2="7"/>
					</g>
				</g>
			</g>
		</g>
		<g>
			<text transform="matrix(1 0 0 1 64.6424 43.4887)" class="st26 st22 st23">2π</text>
			<text transform="matrix(1 0 0 1 36.2037 43.5407)" class="st26 st22 st23">π</text>
			<g class="st26">
				<text transform="matrix(1 0 0 1 9.4344 29.9344)" class="st22 st23">v</text>
				<text transform="matrix(0.583 0 0 0.583 11.2098 31.2665)" class="st22 st23">r</text>
				<text transform="matrix(1 0 0 1 12.1175 29.9344)" class="st22 st23"> </text>
				<text transform="matrix(1 0 0 1 13.1175 29.9344)" class="st34 st23">&gt;</text>
				<text transform="matrix(1 0 0 1 15.3968 29.9344)" class="st22 st23"> v</text>
				<text transform="matrix(0.583 0 0 0.583 18.1722 31.2665)" class="st22 st23">c</text>
			</g>
			<g class="st26">
				<text transform="matrix(1 0 0 1 73.494 42.1857)" class="st22 st23">ω</text>
				<text transform="matrix(0.583 0 0 0.583 76.3827 43.5177)" class="st22 st23">r</text>
				<text transform="matrix(1 0 0 1 77.2904 42.1857)" class="st22 st23">t</text>
			</g>
			<g>
				<g class="st27">
					<g>
						<line class="st28" x1="7.9" y1="39" x2="7.9" y2="30.4"/>
						<g>
							<polygon points="8.8,31 7.9,27.7 7,31 							"/>
						</g>
					</g>
				</g>
				<line class="st29" x1="67.9" y1="39" x2="67.9" y2="40.6"/>
				<line class="st29" x1="37.9" y1="39" x2="37.9" y2="40.6"/>
				<g class="st27">
					<g>
						<line class="st28" x1="7.9" y1="39" x2="73.6" y2="39"/>
						<g>
							<polygon points="73,39.9 76.3,39 73,38.2 							"/>
						</g>
					</g>
				</g>
			</g>
		</g>
		<path class="st35" d="M67.9,15.4c-4.8,2.4-9.6,4.7-15,4.7c-10.9,0-19.1-9.4-30-9.4c-5.4,0-10.2,2.4-15,4.7"/>
		<polyline class="st36" points="67.9,23.8 66.4,15.4 64.9,7 63.4,15.4 61.9,23.8 60.4,15.4 58.9,7 57.4,15.4 55.9,23.8 54.4,15.4 
			52.9,7 51.4,15.4 49.9,23.8 48.4,15.4 46.9,7 45.4,15.4 43.9,23.8 43.9,23.8 42.4,15.4 40.9,7 39.4,15.4 37.9,23.8 36.4,15.4 
			34.9,7 33.4,15.4 31.9,23.8 30.4,15.4 28.9,7 27.4,15.4 25.9,23.8 24.4,15.4 22.9,7 21.4,15.4 19.9,23.8 18.4,15.4 16.9,7 
			15.4,15.4 13.9,23.8 12.4,15.4 10.9,7 9.4,15.4 7.9,23.8 		"/>
		<polyline class="st37" points="7.9,33.8 9.4,33.8 9.4,39 12,39 12,33.8 16,33.8 16,39 17.7,39 17.7,33.8 22.3,33.8 22.2,39 
			23.6,39 23.6,33.8 28.1,33.8 28.1,39 29.8,39 29.8,33.8 33.8,33.8 33.8,39 36.3,39 36.3,33.8 39.3,33.8 39.3,39 42.8,39 
			42.8,33.8 44.9,33.8 44.9,39 49.2,39 49.2,33.8 50.6,33.8 50.6,39 55.2,39 55.3,33.8 56.7,33.8 56.7,39 61,39 61,33.8 63,33.8 
			63,39 66.5,39 66.6,33.8 67.9,33.8 		"/>
	</g>
</g>
</svg>
