<?xml version="1.0" encoding="utf-8"?>
<!-- Generator: Adobe Illustrator 27.5.0, SVG Export Plug-In . SVG Version: 6.00 Build 0)  -->
<svg version="1.1" xmlns="http://www.w3.org/2000/svg" xmlns:xlink="http://www.w3.org/1999/xlink" x="0px" y="0px" width="122.8px"
	 height="100px" viewBox="0 0 122.8 100" style="enable-background:new 0 0 122.8 100;" xml:space="preserve">
<style type="text/css">
	.st0{display:none;}
	.st1{display:inline;}
	.st2{fill:none;stroke:#6A93BF;stroke-width:0.25;stroke-linecap:round;stroke-linejoin:round;stroke-miterlimit:10;}
	
		.st3{display:inline;fill:none;stroke:#6A93BF;stroke-width:0.25;stroke-linecap:round;stroke-linejoin:round;stroke-miterlimit:10;}
	.st4{fill:none;stroke:#FC8754;stroke-width:2;stroke-miterlimit:10;}
	.st5{fill:#FFFFFF;stroke:#000000;stroke-miterlimit:10;}
	.st6{fill:none;stroke:#CAEAFF;stroke-linecap:square;stroke-miterlimit:10;}
	.st7{fill:#CAEAFF;}
	.st8{opacity:0.3;fill:#F21616;}
	.st9{fill:none;stroke:#CAEAFF;stroke-linecap:round;stroke-miterlimit:10;}
	.st10{fill:#FC8754;}
	.st11{fill:none;stroke:#000000;stroke-miterlimit:10;}
	.st12{fill:none;stroke:#000000;stroke-width:0.5;stroke-linecap:round;stroke-linejoin:round;stroke-miterlimit:10;}
	.st13{stroke:#000000;stroke-width:0.5;stroke-linecap:round;stroke-linejoin:round;stroke-miterlimit:10;}
	.st14{fill:#E55D1E;stroke:#E55D1E;stroke-width:0.5;stroke-linecap:round;stroke-linejoin:round;stroke-miterlimit:10;}
	.st15{fill:none;stroke:#E55D1E;stroke-width:0.5;stroke-linecap:round;stroke-linejoin:round;stroke-miterlimit:10;}
	.st16{fill:none;}
	.st17{fill:none;stroke:#1075A1;stroke-width:0.5;stroke-linecap:round;stroke-linejoin:round;stroke-miterlimit:10;}
	.st18{fill:none;stroke:#000000;stroke-width:0.25;stroke-miterlimit:10;}
</style>
<g id="Layer_2">
</g>
<g id="Layer_1">
	<polyline class="st12" points="32.2,49.2 32.2,43.7 33.7,42.4 30.7,41.2 33.7,39.9 30.7,38.6 33.7,37.3 30.7,36 32.2,34.7 
		32.2,29.2 	"/>
	<g>
		<line class="st12" x1="8.4" y1="38.2" x2="8.4" y2="29.2"/>
		<line class="st12" x1="8.4" y1="49.2" x2="8.4" y2="40.2"/>
		<line class="st12" x1="5.9" y1="40.2" x2="10.9" y2="40.2"/>
		<line class="st12" x1="5.9" y1="38.2" x2="10.9" y2="38.2"/>
	</g>
	<g>
		<g>
			<line class="st13" x1="27.5" y1="38.2" x2="27.5" y2="29.2"/>
			<line class="st13" x1="27.5" y1="49.2" x2="27.5" y2="40.2"/>
		</g>
		<g>
			<line class="st13" x1="26" y1="37.2" x2="29" y2="37.2"/>
			<polygon class="st13" points="27.5,37.2 26,41.2 29,41.2 			"/>
		</g>
		<line class="st13" x1="27.5" y1="38.2" x2="27.5" y2="42.2"/>
	</g>
	<g>
		<polyline class="st12" points="19.5,42.2 16.5,42.2 16.5,49.2 		"/>
		<polyline class="st12" points="18.5,39.2 16.5,39.2 16.5,36.2 		"/>
		<polyline class="st12" points="19.5,36.2 16.5,36.2 16.5,29.2 		"/>
		<line class="st12" x1="19.5" y1="35.8" x2="19.5" y2="36.8"/>
		<line class="st12" x1="19.5" y1="38.7" x2="19.5" y2="39.7"/>
		<line class="st12" x1="19.5" y1="41.7" x2="19.5" y2="42.7"/>
		<polygon class="st12" points="18.8,39.2 17.8,38.7 17.8,39.8 		"/>
		<line class="st12" x1="14.2" y1="40.1" x2="12.7" y2="40.1"/>
		<polygon class="st13" points="13.5,39.8 14.4,38.2 12.6,38.2 		"/>
		<polyline class="st12" points="21,35.8 21,42.7 22.4,42.7 		"/>
		<polyline class="st12" points="16.5,36.2 13.5,36.2 13.5,38.4 		"/>
		<polyline class="st12" points="16.5,42.2 13.5,42.2 13.5,40.1 		"/>
	</g>
	<g>
		<line class="st12" x1="19.5" y1="62.9" x2="19.5" y2="56.6"/>
		<line class="st12" x1="19.5" y1="76.6" x2="19.5" y2="70.3"/>
		<circle class="st12" cx="19.5" cy="66.6" r="3.7"/>
		<g>
			<line class="st12" x1="19.5" y1="64.5" x2="19.5" y2="66"/>
			<line class="st12" x1="20.2" y1="65.2" x2="18.7" y2="65.2"/>
			<line class="st12" x1="20.2" y1="68.8" x2="18.7" y2="68.8"/>
		</g>
	</g>
</g>
</svg>
