<?xml version="1.0" encoding="utf-8"?>
<!-- Generator: Adobe Illustrator 27.5.0, SVG Export Plug-In . SVG Version: 6.00 Build 0)  -->
<svg version="1.1" id="Layer_1" xmlns="http://www.w3.org/2000/svg" xmlns:xlink="http://www.w3.org/1999/xlink" x="0px" y="0px"
	 width="1000px" height="1000px" viewBox="0 0 1000 1000" style="enable-background:new 0 0 1000 1000;" xml:space="preserve">
<style type="text/css">
	.st0{fill:none;}
	.st1{fill:#FFFFFF;stroke:#000000;stroke-miterlimit:10;}
	.st2{fill:none;stroke:#000000;stroke-miterlimit:10;}
	.st3{fill:#E8E6E6;stroke:#000000;stroke-width:4;stroke-linecap:round;stroke-linejoin:round;stroke-miterlimit:10;}
	.st4{fill:#5B5B5B;stroke:#000000;stroke-width:4;stroke-linecap:round;stroke-linejoin:round;stroke-miterlimit:10;}
	.st5{font-family:'Courier';}
	.st6{font-size:58.2886px;}
	.st7{font-size:58.2887px;}
	.st8{fill:none;stroke:#ED1C24;stroke-width:4;stroke-linecap:round;stroke-linejoin:round;}
	.st9{fill:#ED1C24;}
	.st10{font-size:43px;}
	.st11{fill:none;stroke:#000000;stroke-width:4;stroke-linecap:round;stroke-linejoin:round;stroke-miterlimit:10;}
</style>
<g>
	<line class="st0" x1="500.7" y1="307.5" x2="500.7" y2="1357.4"/>
	<g>
		<path class="st1" d="M416.9,310.7c-54.6,4.3-108.1,12.8-160.3,25.3"/>
		<path class="st1" d="M579.1,310.4c-54.9-4.1-109.1-3.9-162.3,0.3"/>
		<path class="st1" d="M741.6,335.3C689,323,634.7,314.6,579.1,310.4"/>
		<path class="st1" d="M894.3,383.7c-49.1-19.8-100.1-36.1-152.7-48.4"/>
		<path class="st2" d="M426.8,435.1c-48.1,3.8-95.3,11.3-141.2,22.3"/>
		<path class="st2" d="M569.8,434.9c-48.3-3.6-96.1-3.5-143,0.2"/>
		<path class="st2" d="M712.9,456.8c-46.4-10.9-94.2-18.3-143.1-22"/>
		<path class="st2" d="M847.5,499.5c-43.2-17.5-88.2-31.8-134.5-42.6"/>
		<path class="st2" d="M436.7,558.9c-41.6,3.3-82.5,9.8-122.3,19.3"/>
		<path class="st2" d="M560.5,558.7c-41.9-3.1-83.2-3-123.8,0.2"/>
		<path class="st2" d="M684.5,577.7c-40.1-9.4-81.5-15.8-123.9-19"/>
		<path class="st2" d="M800.9,614.7c-37.4-15.1-76.3-27.5-116.5-36.9"/>
		<g>
			<path class="st3" d="M416.9,310.7c-54.6,4.3-108.1,12.8-160.3,25.3l29,121.4c45.9-11,93.1-18.5,141.2-22.3L416.9,310.7z"/>
			<path class="st4" d="M426.8,435.1c46.9-3.7,94.6-3.9,143-0.2l9.3-124.5c-54.9-4.1-109.1-3.9-162.3,0.3L426.8,435.1z"/>
			<path class="st4" d="M713,456.8c-46.4-10.9-94.2-18.3-143.1-22l9.3-124.5c55.6,4.2,109.8,12.6,162.5,24.9L713,456.8z"/>
			<path class="st3" d="M847.5,499.5c-43.2-17.5-88.2-31.8-134.5-42.6l28.6-121.5c52.6,12.3,103.6,28.6,152.7,48.4L847.5,499.5z"/>
			<path class="st4" d="M314.5,578.2c39.8-9.5,80.6-16,122.3-19.3l-9.9-123.8c-48.1,3.8-95.3,11.3-141.2,22.3L314.5,578.2z"/>
			<path class="st4" d="M436.7,559c40.6-3.2,81.9-3.3,123.8-0.2l9.3-123.8c-48.3-3.6-96.1-3.5-143,0.2L436.7,559z"/>
			<path class="st3" d="M684.5,577.7c-40.1-9.4-81.5-15.8-123.9-19l9.3-123.8c49,3.7,96.8,11.1,143.1,22L684.5,577.7z"/>
			<path class="st3" d="M800.9,614.7c-37.4-15.1-76.3-27.5-116.5-36.9L713,456.8c46.4,10.9,91.3,25.2,134.5,42.6L800.9,614.7z"/>
		</g>
		<text transform="matrix(0.9876 -0.1567 0.1567 0.9876 351.0253 532.0352)" class="st5 st6">0</text>
		<text transform="matrix(1 1.760392e-03 -1.760392e-03 1 483.7368 518.7658)" class="st5 st7">0</text>
		<text transform="matrix(0.9882 0.1529 -0.1529 0.9882 610.6475 525.8047)" class="st5 st6">1</text>
		<text transform="matrix(0.953 0.3029 -0.3029 0.953 737.1523 552.5787)" class="st5 st6">1</text>
		<text transform="matrix(0.9876 -0.1569 0.1569 0.9876 330.4693 403.855)" class="st5 st6">1</text>
		<text transform="matrix(1 -2.232352e-04 2.232352e-04 1 482.0219 388.957)" class="st5 st6">0</text>
		<text transform="matrix(0.9882 0.1529 -0.1529 0.9882 630.5568 397.5174)" class="st5 st6">0</text>
		<text transform="matrix(0.9527 0.3038 -0.3038 0.9527 777.3747 429.1225)" class="st5 st6">1</text>
		<text transform="matrix(0.9873 -0.1588 0.1588 0.9873 311.7959 297.7812)" class="st5 st6">1</text>
		<text transform="matrix(0.9882 0.1532 -0.1532 0.9882 647.635 291.1449)" class="st5 st6">2</text>
		<text transform="matrix(1 -4.163753e-03 4.163753e-03 1 478.0116 281.3117)" class="st5 st6">0</text>
		<text transform="matrix(0.9522 0.3053 -0.3053 0.9522 811.9752 327.0572)" class="st5 st6">3</text>
		<g>
			<g>
				<line class="st8" x1="256.6" y1="336" x2="228.7" y2="219.4"/>
				<g>
					
						<rect x="223.5" y="214.4" transform="matrix(0.9726 -0.2324 0.2324 0.9726 -44.7904 59.1989)" class="st9" width="10.6" height="10.6"/>
				</g>
			</g>
		</g>
		<g>
			<g>
				<line class="st8" x1="416.8" y1="310.6" x2="407.3" y2="191.1"/>
				<g>
					
						<rect x="402" y="186.1" transform="matrix(0.9968 -7.986155e-02 7.986155e-02 0.9968 -13.9801 33.1385)" class="st9" width="10.6" height="10.6"/>
				</g>
			</g>
		</g>
		<g>
			<g>
				<line class="st8" x1="579.1" y1="310.1" x2="588.1" y2="190.6"/>
				<g>
					
						<rect x="582.8" y="185.6" transform="matrix(7.467517e-02 -0.9972 0.9972 7.467517e-02 353.8234 763.0572)" class="st9" width="10.6" height="10.6"/>
				</g>
			</g>
		</g>
		<g>
			<g>
				<line class="st8" x1="740.8" y1="335" x2="768.2" y2="218.3"/>
				<g>
					
						<rect x="762.9" y="213.3" transform="matrix(0.2286 -0.9735 0.9735 0.2286 379.7508 916.4355)" class="st9" width="10.6" height="10.6"/>
				</g>
			</g>
		</g>
		<g>
			<g>
				<line class="st8" x1="156.4" y1="54.5" x2="36.6" y2="54.5"/>
				<g>
					<rect x="31.5" y="49.2" class="st9" width="10.6" height="10.6"/>
				</g>
			</g>
		</g>
		<text transform="matrix(1 0 0 1 188.6281 66.6945)" class="st5 st10">interruptHandler()</text>
	</g>
	<g>
		<path class="st1" d="M1039.5,456.1c-47-28.2-95.5-52.3-145.2-72.4"/>
		<path class="st2" d="M975.4,563.2c-41.4-24.8-84.2-46-128-63.8"/>
		<path class="st2" d="M1092,646c-37.3-31-76.3-58.6-116.6-82.7"/>
		<path class="st2" d="M911.7,669.9c-35.8-21.5-72.9-39.9-110.8-55.2"/>
		<path class="st2" d="M1012.7,741.5c-32.3-26.8-66-50.7-101-71.6"/>
		<g>
			<path class="st3" d="M1039.5,456.1c-47-28.2-95.5-52.3-145.2-72.4l-46.8,115.8c43.8,17.7,86.6,38.9,128,63.8L1039.5,456.1z"/>
			<path class="st4" d="M975.4,563.2c40.3,24.2,79.3,51.7,116.6,82.7l79.8-96c-42.3-35.2-86.6-66.5-132.4-93.9L975.4,563.2z"/>
			<path class="st4" d="M800.9,614.7c37.9,15.3,74.9,33.7,110.8,55.2l63.7-106.6c-41.4-24.8-84.2-46-128-63.8L800.9,614.7z"/>
			<path class="st4" d="M911.7,669.9c34.9,20.9,68.7,44.8,101,71.6L1092,646c-37.3-31-76.3-58.6-116.6-82.7L911.7,669.9z"/>
		</g>
		<text transform="matrix(0.8955 0.4451 -0.4451 0.8955 857.4775 598.2128)" class="st5 st6">0</text>
		<text transform="matrix(0.8136 0.5814 -0.5814 0.8136 973.2822 664.3521)" class="st5 st7">0</text>
		<text transform="matrix(0.8956 0.4449 -0.4449 0.8956 915.0713 481.8691)" class="st5 st6">1</text>
		<text transform="matrix(0.8964 0.4432 -0.4432 0.8964 961.3781 384.6271)" class="st5 st6">1</text>
		<g>
			<g>
				<line class="st8" x1="894.3" y1="383.7" x2="939.2" y2="272.6"/>
				<g>
					
						<rect x="933.8" y="267.6" transform="matrix(0.3747 -0.9271 0.9271 0.3747 334.2314 1041.257)" class="st9" width="10.6" height="10.6"/>
				</g>
			</g>
		</g>
	</g>
	<g>
		<path class="st1" d="M104.1,385.1c-50,20.5-99.1,45.1-146.8,73.9"/>
		<path class="st1" d="M256.6,336c-51.5,12.3-102.4,28.6-152.4,49.1"/>
		<path class="st2" d="M22,565.8c-41.5,25.1-80.3,52.9-116.3,83.1"/>
		<path class="st2" d="M151.3,500.7c-44.1,18-87.3,39.7-129.3,65.1"/>
		<path class="st2" d="M285.6,457.4c-45.3,10.8-90.2,25.2-134.3,43.3"/>
		<path class="st2" d="M86.2,672.1c-35.9,21.7-69.5,45.8-100.7,72"/>
		<path class="st2" d="M198.2,615.7c-38.2,15.6-75.6,34.4-112,56.4"/>
		<path class="st2" d="M314.5,578.2c-39.3,9.4-78.1,21.9-116.3,37.5"/>
		<g>
			<path class="st4" d="M-94.4,648.9c36-30.2,74.9-58,116.3-83.1L-42.6,459c-47.1,28.5-91.1,60.1-132,94.3L-94.4,648.9z"/>
			<path class="st4" d="M151.3,500.7c-44.1,18-87.3,39.7-129.3,65.1L-42.6,459c47.7-28.8,96.8-53.5,146.8-73.9L151.3,500.7z"/>
			<path class="st3" d="M285.6,457.4c-45.3,10.8-90.2,25.2-134.3,43.3l-47.2-115.6c50-20.5,101-36.8,152.4-49.1L285.6,457.4z"/>
			<path class="st4" d="M-14.5,744.1c31.2-26.1,64.8-50.2,100.7-72L22,565.8c-41.5,25.1-80.3,52.9-116.3,83.1L-14.5,744.1z"/>
			<path class="st3" d="M198.2,615.7c-38.2,15.6-75.6,34.4-112,56.4L22,565.8c42-25.4,85.3-47.1,129.3-65.1L198.2,615.7z"/>
			<path class="st3" d="M314.5,578.2c-39.3,9.4-78.1,21.9-116.3,37.5l-46.9-115c44.1-18,89-32.4,134.3-43.3L314.5,578.2z"/>
		</g>
		<text transform="matrix(0.8157 -0.5785 0.5785 0.8157 0.4652 684.0657)" class="st5 st7">0</text>
		<text transform="matrix(0.8937 -0.4486 0.4486 0.8937 107.9527 616.1998)" class="st5 st6">1</text>
		<text transform="matrix(0.952 -0.3059 0.3059 0.952 226.537 564.6427)" class="st5 st6">1</text>
		<text transform="matrix(0.8938 -0.4486 0.4486 0.8938 49.7704 500.1448)" class="st5 st6">0</text>
		<text transform="matrix(0.9523 -0.305 0.305 0.9523 187.7054 440.7433)" class="st5 st6">1</text>
		<text transform="matrix(0.8939 -0.4483 0.4483 0.8939 1.9922 403.5835)" class="st5 st6">2</text>
		<text transform="matrix(0.9528 -0.3035 0.3035 0.9528 156.6984 337.5289)" class="st5 st6">3</text>
		<g>
			<g>
				<line class="st8" x1="103.3" y1="385.3" x2="58" y2="274.3"/>
				<g>
					
						<rect x="52.8" y="269.3" transform="matrix(0.9257 -0.3784 0.3784 0.9257 -99.569 42.3947)" class="st9" width="10.6" height="10.6"/>
				</g>
			</g>
		</g>
	</g>
</g>
<path class="st11" d="M556.8,568.6c-3.2,13.4-53.4-3.9-56.1,19.9c-3.9-23.8-59.7-6.5-61.8-20.2"/>
<text transform="matrix(1 0 0 1 411.8615 635.5642)" class="st5 st10">1 Count</text>
</svg>
