<?xml version="1.0" encoding="utf-8"?>
<!-- Generator: Adobe Illustrator 27.3.0, SVG Export Plug-In . SVG Version: 6.00 Build 0)  -->
<svg version="1.1" id="Layer_1" xmlns="http://www.w3.org/2000/svg" xmlns:xlink="http://www.w3.org/1999/xlink" x="0px" y="0px"
	 width="506.6px" height="285.7px" viewBox="0 0 506.6 285.7" style="enable-background:new 0 0 506.6 285.7;" xml:space="preserve"
	>
<style type="text/css">
	.st0{fill-rule:evenodd;clip-rule:evenodd;fill:#FFFFFF;}
	.st1{fill:none;}
	.st2{font-family:'Helvetica';}
	.st3{font-size:10px;}
	.st4{fill:#FFFFFF;}
	.st5{fill:none;stroke:#000000;stroke-miterlimit:2;}
	.st6{fill:none;stroke:#000000;stroke-linecap:round;stroke-linejoin:round;}
	.st7{fill-rule:evenodd;clip-rule:evenodd;}
	.st8{fill:none;stroke:#323232;stroke-miterlimit:10;}
	.st9{enable-background:new    ;}
	.st10{letter-spacing:5;}
</style>
<g>
	<g transform="matrix(1,0,0,1,22,88)">
		<path vector-effect="none" class="st0" d="M-9.3,18.4H4.4v12H-9.3V18.4z"/>
	</g>
	<rect x="7.7" y="101.4" class="st1" width="24" height="22"/>
	<g transform="matrix(1,0,0,1,22,88)">
		<text transform="matrix(1 0 0 1 -8.2754 27.0437)" class="st2 st3">Vo</text>
	</g>
	<g transform="matrix(1,0,0,1,100,128)">
		<path vector-effect="none" class="st0" d="M-9.3,18.4H7v12H-9.3V18.4z"/>
	</g>
	<rect x="85.7" y="141.4" class="st1" width="26" height="22"/>
	<g transform="matrix(1,0,0,1,100,128)">
		<text transform="matrix(1 0 0 1 -8.2754 27.0437)" class="st2 st3">Vin</text>
	</g>
	<g transform="matrix(1,0,0,1,132,88)">
		<path vector-effect="none" class="st4" d="M-9.3,18.4l30,15l-30,15V18.4z"/>
	</g>
	<rect x="122.7" y="106.4" class="st1" width="30" height="30"/>
	<g transform="matrix(1,0,0,1,132,88)">
		<path vector-effect="none" class="st1" d="M-9.3,18.4l30,15l-30,15V18.4z"/>
	</g>
	<rect x="121.7" y="105.4" class="st1" width="34" height="34"/>
	<g transform="matrix(1,0,0,1,127.008,88.0859)">
		<path vector-effect="none" d="M-0.3,31v-0.7c0.6-0.1,1.1-0.2,1.3-0.3c0.3-0.1,0.4-0.5,0.6-1h0.7v7H1.4v-5H-0.3 M6.6,28.8h0.7
			L5.1,36H4.3L6.6,28.8 M7.9,28.8h1v6.3h3.6V36H7.9V28.8"/>
	</g>
	<g transform="matrix(1,0,0,1,132.5,88.5)">
		<path vector-effect="none" class="st5" d="M-9.3,18.4l30,15l-30,15V18.4z"/>
	</g>
	<g transform="matrix(1,0,0,1,72,88)">
		<path vector-effect="none" class="st4" d="M20.7,33.4c0,8.3-6.7,15-15,15c-8.3,0-15-6.7-15-15c0-8.3,6.7-15,15-15
			C14,18.4,20.7,25.1,20.7,33.4z"/>
	</g>
	<rect x="62.7" y="106.4" class="st1" width="30" height="30"/>
	<g transform="matrix(1,0,0,1,77,103)">
		<text transform="matrix(1 0 0 1 -12.1817 20.7468)" class="st2 st3">−</text>
	</g>
	<rect x="62.7" y="106.4" class="st1" width="30" height="30"/>
	<g transform="matrix(1,0,0,1,87,113)">
		<text transform="matrix(1 0 0 1 -12.1817 20.7468)" class="st2 st3">+</text>
	</g>
	<g transform="matrix(1,0,0,1,72.5,88.5)">
		<path vector-effect="none" class="st5" d="M20.7,33.4c0,8.3-6.7,15-15,15c-8.3,0-15-6.7-15-15c0-8.3,6.7-15,15-15
			C14,18.4,20.7,25.1,20.7,33.4z"/>
	</g>
	<g transform="matrix(1,0,0,1,197,88)">
		<path vector-effect="none" class="st0" d="M-9.3,18.4h30v30h-30V18.4z"/>
	</g>
	<rect x="187.7" y="106.4" class="st1" width="31" height="31"/>
	<g transform="matrix(1,0,0,1,197,88)">
		<path vector-effect="none" class="st1" d="M-9.3,18.4h31v31h-31V18.4z"/>
	</g>
	<rect x="186.7" y="105.4" class="st1" width="34" height="34"/>
	<g transform="matrix(1,0,0,1,196,86.9999)">
		<path vector-effect="none" class="st6" d="M7,44.6h3l2-17h3"/>
	</g>
	<rect x="193.5" y="107.3" class="st1" width="8.5" height="28.1"/>
	<g transform="matrix(0.85,0,0,0.85,202.75,88.975)">
		<path vector-effect="none" class="st7" d="M-9.9,37.6h7v1h-7V37.6z"/>
	</g>
	<rect x="193.5" y="107.3" class="st1" width="8.5" height="28.1"/>
	<g transform="matrix(0.85,0,0,0.85,202.75,88.975)">
		<path vector-effect="none" d="M-4,33.6v-0.2c-1.1,0-1.3-0.3-1.3-0.9v-8.4l-0.1,0L-8,25.4v0.2l0.4-0.1c0.3-0.1,0.5-0.2,0.6-0.2
			c0.3,0,0.4,0.2,0.4,0.7v6.3c0,0.8-0.3,1.1-1.3,1.1v0.2H-4z"/>
	</g>
	<rect x="193.5" y="107.3" class="st1" width="8.5" height="28.1"/>
	<g transform="matrix(0.85,0,0,0.85,202.75,88.975)">
		<path vector-effect="none" d="M-3.6,44.4h-0.2c-0.1,0.2-0.2,0.3-0.4,0.3c-0.1,0-0.2,0-0.5-0.1c-0.4-0.1-0.5-0.1-0.8-0.1
			c-1,0-1.7,0.6-1.7,1.5c0,0.4,0.3,1.1,0.9,1.8c0.5,0.7,0.8,1.2,0.8,1.6c0,0.7-0.4,1.1-1.1,1.1c-0.7,0-1.2-0.6-1.4-1.9h-0.2
			l-0.3,2.2h0.2c0.1-0.2,0.3-0.3,0.4-0.3s0.3,0,0.6,0.1c0.3,0.1,0.5,0.1,0.8,0.1c1.2,0,2-0.7,2-1.9c0-0.5-0.3-1.1-1-1.9
			c-0.5-0.6-0.8-1.1-0.8-1.4c0-0.5,0.3-0.8,0.8-0.8c0.7,0,1.1,0.5,1.2,1.6h0.2L-3.6,44.4z"/>
	</g>
	<g transform="matrix(1,0,0,1,197.5,88.5)">
		<path vector-effect="none" class="st5" d="M-9.3,18.4h30v30h-30V18.4z"/>
	</g>
	<g transform="matrix(1,0,0,1,277,88)">
		<path vector-effect="none" class="st0" d="M-9.3,18.4h30v30h-30V18.4z"/>
	</g>
	<rect x="267.7" y="106.4" class="st1" width="31" height="31"/>
	<g transform="matrix(1,0,0,1,277,88)">
		<path vector-effect="none" class="st1" d="M-9.3,18.4h31v31h-31V18.4z"/>
	</g>
	<rect x="266.7" y="105.4" class="st1" width="34" height="34"/>
	<g transform="matrix(1,0,0,1,276,86.9999)">
		<path vector-effect="none" class="st6" d="M7,44.6h3l2-17h3"/>
	</g>
	<rect x="273.5" y="107.3" class="st1" width="8.5" height="28.1"/>
	<g transform="matrix(0.85,0,0,0.85,282.75,88.975)">
		<path vector-effect="none" class="st7" d="M-9.9,37.6h7v1h-7V37.6z"/>
	</g>
	<rect x="273.5" y="107.3" class="st1" width="8.5" height="28.1"/>
	<g transform="matrix(0.85,0,0,0.85,282.75,88.975)">
		<path vector-effect="none" d="M-4,33.6v-0.2c-1.1,0-1.3-0.3-1.3-0.9v-8.4l-0.1,0L-8,25.4v0.2l0.4-0.1c0.3-0.1,0.5-0.2,0.6-0.2
			c0.3,0,0.4,0.2,0.4,0.7v6.3c0,0.8-0.3,1.1-1.3,1.1v0.2H-4z"/>
	</g>
	<rect x="273.5" y="107.3" class="st1" width="8.5" height="28.1"/>
	<g transform="matrix(0.85,0,0,0.85,282.75,88.975)">
		<path vector-effect="none" d="M-3.6,44.4h-0.2c-0.1,0.2-0.2,0.3-0.4,0.3c-0.1,0-0.2,0-0.5-0.1c-0.4-0.1-0.5-0.1-0.8-0.1
			c-1,0-1.7,0.6-1.7,1.5c0,0.4,0.3,1.1,0.9,1.8c0.5,0.7,0.8,1.2,0.8,1.6c0,0.7-0.4,1.1-1.1,1.1c-0.7,0-1.2-0.6-1.4-1.9h-0.2
			l-0.3,2.2h0.2c0.1-0.2,0.3-0.3,0.4-0.3s0.3,0,0.6,0.1c0.3,0.1,0.5,0.1,0.8,0.1c1.2,0,2-0.7,2-1.9c0-0.5-0.3-1.1-1-1.9
			c-0.5-0.6-0.8-1.1-0.8-1.4c0-0.5,0.3-0.8,0.8-0.8c0.7,0,1.1,0.5,1.2,1.6h0.2L-3.6,44.4z"/>
	</g>
	<g transform="matrix(1,0,0,1,277.5,88.5)">
		<path vector-effect="none" class="st5" d="M-9.3,18.4h30v30h-30V18.4z"/>
	</g>
	<g transform="matrix(1,0,0,1,322,53)">
		<path vector-effect="none" class="st4" d="M20.7,33.4c0,8.3-6.7,15-15,15c-8.3,0-15-6.7-15-15c0-8.3,6.7-15,15-15
			C14,18.4,20.7,25.1,20.7,33.4z"/>
	</g>
	<rect x="312.7" y="71.4" class="st1" width="30" height="30"/>
	<g transform="matrix(1,0,0,1,337,58)">
		<text transform="matrix(1 0 0 1 -12.1817 20.7468)" class="st2 st3">−</text>
	</g>
	<rect x="312.7" y="71.4" class="st1" width="30" height="30"/>
	<g transform="matrix(1,0,0,1,337,78)">
		<text transform="matrix(1 0 0 1 -12.1817 20.7468)" class="st2 st3">+</text>
	</g>
	<g transform="matrix(1,0,0,1,322.5,53.5)">
		<path vector-effect="none" class="st5" d="M20.7,33.4c0,8.3-6.7,15-15,15c-8.3,0-15-6.7-15-15c0-8.3,6.7-15,15-15
			C14,18.4,20.7,25.1,20.7,33.4z"/>
	</g>
	<g transform="matrix(1,0,0,1,132,18)">
		<path vector-effect="none" class="st4" d="M-9.3,18.4l30,15l-30,15V18.4z"/>
	</g>
	<rect x="122.7" y="36.4" class="st1" width="30" height="30"/>
	<g transform="matrix(1,0,0,1,132,18)">
		<path vector-effect="none" class="st1" d="M-9.3,18.4l30,15l-30,15V18.4z"/>
	</g>
	<rect x="121.7" y="35.4" class="st1" width="34" height="34"/>
	<g transform="matrix(1,0,0,1,127.008,18.0859)">
		<path vector-effect="none" d="M-1.1,31v-0.7c0.6-0.1,1.1-0.2,1.3-0.3c0.3-0.1,0.4-0.5,0.6-1h0.7v7H0.6v-5H-1.1 M5.8,28.8h0.7
			L4.2,36H3.5L5.8,28.8 M10.4,32.1c0.5,0,0.8-0.1,1.1-0.3c0.3-0.2,0.4-0.5,0.4-1c0-0.5-0.2-0.9-0.6-1c-0.2-0.1-0.5-0.1-0.8-0.1H8.1
			v2.5H10.4 M7.2,28.8h3.3c0.5,0,1,0.1,1.4,0.2c0.7,0.3,1,0.9,1,1.7c0,0.4-0.1,0.8-0.3,1.1s-0.4,0.5-0.7,0.7
			c0.3,0.1,0.5,0.3,0.6,0.4c0.1,0.2,0.2,0.5,0.2,0.9l0,1c0,0.3,0,0.5,0.1,0.6c0.1,0.2,0.2,0.4,0.3,0.4V36h-1.2
			c0-0.1-0.1-0.1-0.1-0.2c0-0.1,0-0.3,0-0.6L11.7,34c0-0.5-0.2-0.8-0.5-0.9c-0.2-0.1-0.5-0.1-0.9-0.1H8.1V36h-1V28.8"/>
	</g>
	<g transform="matrix(1,0,0,1,132.5,18.5)">
		<path vector-effect="none" class="st5" d="M-9.3,18.4l30,15l-30,15V18.4z"/>
	</g>
	<g transform="matrix(1,0,0,1,197,18)">
		<path vector-effect="none" class="st0" d="M-9.3,18.4h30v30h-30V18.4z"/>
	</g>
	<rect x="187.7" y="36.4" class="st1" width="31" height="31"/>
	<g transform="matrix(1,0,0,1,197,18)">
		<path vector-effect="none" class="st1" d="M-9.3,18.4h31v31h-31V18.4z"/>
	</g>
	<rect x="186.7" y="35.4" class="st1" width="34" height="34"/>
	<g transform="matrix(1,0,0,1,196,16.9999)">
		<path vector-effect="none" class="st6" d="M7,44.6h3l2-17h3"/>
	</g>
	<rect x="193.5" y="37.3" class="st1" width="8.5" height="28.1"/>
	<g transform="matrix(0.85,0,0,0.85,202.75,18.975)">
		<path vector-effect="none" class="st7" d="M-9.9,37.6h7v1h-7V37.6z"/>
	</g>
	<rect x="193.5" y="37.3" class="st1" width="8.5" height="28.1"/>
	<g transform="matrix(0.85,0,0,0.85,202.75,18.975)">
		<path vector-effect="none" d="M-4,33.6v-0.2c-1.1,0-1.3-0.3-1.3-0.9v-8.4l-0.1,0L-8,25.4v0.2l0.4-0.1c0.3-0.1,0.5-0.2,0.6-0.2
			c0.3,0,0.4,0.2,0.4,0.7v6.3c0,0.8-0.3,1.1-1.3,1.1v0.2H-4z"/>
	</g>
	<rect x="193.5" y="37.3" class="st1" width="8.5" height="28.1"/>
	<g transform="matrix(0.85,0,0,0.85,202.75,18.975)">
		<path vector-effect="none" d="M-3.6,44.4h-0.2c-0.1,0.2-0.2,0.3-0.4,0.3c-0.1,0-0.2,0-0.5-0.1c-0.4-0.1-0.5-0.1-0.8-0.1
			c-1,0-1.7,0.6-1.7,1.5c0,0.4,0.3,1.1,0.9,1.8c0.5,0.7,0.8,1.2,0.8,1.6c0,0.7-0.4,1.1-1.1,1.1c-0.7,0-1.2-0.6-1.4-1.9h-0.2
			l-0.3,2.2h0.2c0.1-0.2,0.3-0.3,0.4-0.3s0.3,0,0.6,0.1c0.3,0.1,0.5,0.1,0.8,0.1c1.2,0,2-0.7,2-1.9c0-0.5-0.3-1.1-1-1.9
			c-0.5-0.6-0.8-1.1-0.8-1.4c0-0.5,0.3-0.8,0.8-0.8c0.7,0,1.1,0.5,1.2,1.6h0.2L-3.6,44.4z"/>
	</g>
	<g transform="matrix(1,0,0,1,197.5,18.5)">
		<path vector-effect="none" class="st5" d="M-9.3,18.4h30v30h-30V18.4z"/>
	</g>
	<g transform="matrix(1,0,0,1,392,53)">
		<path vector-effect="none" class="st4" d="M-9.3,18.4l30,15l-30,15V18.4z"/>
	</g>
	<rect x="382.7" y="71.4" class="st1" width="30" height="30"/>
	<g transform="matrix(1,0,0,1,392,53)">
		<path vector-effect="none" class="st1" d="M-9.3,18.4l30,15l-30,15V18.4z"/>
	</g>
	<rect x="381.7" y="70.4" class="st1" width="34" height="34"/>
	<g transform="matrix(1,0,0,1,387.008,53.0859)">
		<path vector-effect="none" d="M-1.1,31v-0.7c0.6-0.1,1.1-0.2,1.3-0.3c0.3-0.1,0.4-0.5,0.6-1h0.7v7H0.6v-5H-1.1 M5.8,28.8h0.7
			L4.2,36H3.5L5.8,28.8 M10.1,28.6c0.9,0,1.6,0.2,2.1,0.7c0.5,0.5,0.8,1,0.8,1.6h-0.9c-0.1-0.5-0.3-0.8-0.6-1.1
			c-0.3-0.3-0.8-0.4-1.4-0.4c-0.7,0-1.3,0.2-1.7,0.7c-0.4,0.5-0.7,1.3-0.7,2.3c0,0.8,0.2,1.5,0.6,2c0.4,0.5,1,0.8,1.8,0.8
			c0.7,0,1.3-0.3,1.6-0.8c0.2-0.3,0.3-0.7,0.4-1.1h0.9c-0.1,0.8-0.4,1.4-0.8,1.9c-0.6,0.6-1.3,0.9-2.3,0.9c-0.8,0-1.5-0.3-2.1-0.8
			c-0.7-0.7-1.1-1.7-1.1-3.1c0-1.1,0.3-1.9,0.8-2.6C8.2,29,9,28.6,10.1,28.6"/>
	</g>
	<g transform="matrix(1,0,0,1,392.5,53.5)">
		<path vector-effect="none" class="st5" d="M-9.3,18.4l30,15l-30,15V18.4z"/>
	</g>
	<g transform="matrix(1,0,0,1,107,213)">
		<path vector-effect="none" class="st0" d="M-9.3,18.4h45v30h-45V18.4z"/>
	</g>
	<rect x="97.7" y="231.4" class="st1" width="46" height="31"/>
	<g transform="matrix(1,0,0,1,107,213)">
		<path vector-effect="none" class="st1" d="M-9.3,18.4h46v31h-46V18.4z"/>
	</g>
	<rect x="96.7" y="233.9" class="st1" width="49" height="26"/>
	<g transform="matrix(1,0,0,1,106,215.5)">
		<path vector-effect="none" class="st8" d="M-4.5,36.2h3.1V25.6h0.8v10.7h6.1V25.6h2.7v10.7h4.2V25.6l4.9,0l0.1,10.7l1.9,0V25.6
			l3.7,0l0,10.6h3.2V25.6h1v10.7H33"/>
	</g>
	<g transform="matrix(1,0,0,1,107.5,213.5)">
		<path vector-effect="none" class="st5" d="M-9.3,18.4h45v30h-45V18.4z"/>
	</g>
	<g transform="matrix(1,0,0,1,207,213)">
		<path vector-effect="none" class="st4" d="M-9.3,18.4l30,15l-30,15V18.4z"/>
	</g>
	<rect x="197.7" y="231.4" class="st1" width="30" height="30"/>
	<g transform="matrix(1,0,0,1,207,213)">
		<path vector-effect="none" class="st1" d="M-9.3,18.4l30,15l-30,15V18.4z"/>
	</g>
	<rect x="196.7" y="230.4" class="st1" width="34" height="34"/>
	<g transform="matrix(1,0,0,1,202.008,213.086)">
		<path vector-effect="none" d="M-0.1,28.8L2,34.9l2-6.1h1.1L2.5,36h-1l-2.6-7.2H-0.1 M5.7,30.8h0.9V36H5.7V30.8 M5.7,28.8h0.9v1
			H5.7V28.8 M7.9,30.7h0.8v0.7C9,31.2,9.3,31,9.6,30.8c0.3-0.1,0.6-0.2,0.9-0.2c0.7,0,1.2,0.3,1.5,0.8c0.1,0.3,0.2,0.7,0.2,1.2V36
			h-0.9v-3.3c0-0.3,0-0.6-0.1-0.8c-0.2-0.3-0.4-0.5-0.8-0.5c-0.2,0-0.4,0-0.5,0.1c-0.2,0.1-0.5,0.2-0.6,0.4
			c-0.1,0.2-0.2,0.4-0.3,0.5c0,0.2-0.1,0.4-0.1,0.8V36H7.9V30.7"/>
	</g>
	<g transform="matrix(1,0,0,1,207.5,213.5)">
		<path vector-effect="none" class="st5" d="M-9.3,18.4l30,15l-30,15V18.4z"/>
	</g>
	<g transform="matrix(1,0,0,1,47,221)">
		<path vector-effect="none" class="st4" d="M-2.3,18.4h16c3.9,0,7,3.1,7,7c0,3.9-3.1,7-7,7h-16c-3.9,0-7-3.1-7-7
			C-9.3,21.5-6.1,18.4-2.3,18.4z"/>
	</g>
	<rect x="37.7" y="239.4" class="st1" width="30" height="14"/>
	<g transform="matrix(1,0,0,1,62,228)">
		<text transform="matrix(1 0 0 1 -12.0411 20.7468)" class="st2 st3">1</text>
	</g>
	<g transform="matrix(1,0,0,1,47.5,221.5)">
		<path vector-effect="none" class="st5" d="M-2.3,18.4h16c3.9,0,7,3.1,7,7c0,3.9-3.1,7-7,7h-16c-3.9,0-7-3.1-7-7
			C-9.3,21.5-6.1,18.4-2.3,18.4z"/>
	</g>
	<rect x="46.5" y="255.4" class="st1" width="13" height="12"/>
	<g transform="matrix(1,0,0,1,55.7266,237)">
		<text transform="matrix(1 0 0 1 -8.2755 27.0437)" class="st2 st3">dc</text>
	</g>
	<g transform="matrix(1,0,0,1,462,61)">
		<path vector-effect="none" class="st4" d="M-2.3,18.4h16c3.9,0,7,3.1,7,7c0,3.9-3.1,7-7,7h-16c-3.9,0-7-3.1-7-7
			C-9.3,21.5-6.1,18.4-2.3,18.4z"/>
	</g>
	<rect x="452.7" y="79.4" class="st1" width="30" height="14"/>
	<g transform="matrix(1,0,0,1,477,68)">
		<text transform="matrix(1 0 0 1 -12.0411 20.7468)" class="st2 st3">1</text>
	</g>
	<g transform="matrix(1,0,0,1,462.5,61.5)">
		<path vector-effect="none" class="st5" d="M-2.3,18.4h16c3.9,0,7,3.1,7,7c0,3.9-3.1,7-7,7h-16c-3.9,0-7-3.1-7-7
			C-9.3,21.5-6.1,18.4-2.3,18.4z"/>
	</g>
	<rect x="460.9" y="95.4" class="st1" width="14" height="12"/>
	<g transform="matrix(1,0,0,1,470.172,77)">
		<text transform="matrix(1 0 0 1 -8.2754 27.0437)" class="st2 st3">Vo</text>
	</g>
	<g transform="matrix(1,0,0,1,462,116)">
		<path vector-effect="none" class="st4" d="M-2.3,18.4h16c3.9,0,7,3.1,7,7c0,3.9-3.1,7-7,7h-16c-3.9,0-7-3.1-7-7
			C-9.3,21.5-6.1,18.4-2.3,18.4z"/>
	</g>
	<rect x="452.7" y="134.4" class="st1" width="30" height="14"/>
	<g transform="matrix(1,0,0,1,477,123)">
		<text transform="matrix(1 0 0 1 -12.0411 20.7468)" class="st2 st3">2</text>
	</g>
	<g transform="matrix(1,0,0,1,462.5,116.5)">
		<path vector-effect="none" class="st5" d="M-2.3,18.4h16c3.9,0,7,3.1,7,7c0,3.9-3.1,7-7,7h-16c-3.9,0-7-3.1-7-7
			C-9.3,21.5-6.1,18.4-2.3,18.4z"/>
	</g>
	<rect x="460.1" y="150.4" class="st1" width="15" height="12"/>
	<g transform="matrix(1,0,0,1,469.344,132)">
		<rect x="-8.3" y="18.5" class="st1" width="13.3" height="13.4"/>
		<text transform="matrix(1 0 0 1 -8.2754 27.0442)" class="st9"><tspan x="0" y="0" class="st2 st3 st10">i</tspan><tspan x="7.8" y="0" class="st2 st3">_</tspan></text>
	</g>
	<g transform="matrix(1,0,0,1,462,171)">
		<path vector-effect="none" class="st4" d="M-2.3,18.4h16c3.9,0,7,3.1,7,7c0,3.9-3.1,7-7,7h-16c-3.9,0-7-3.1-7-7
			C-9.3,21.5-6.1,18.4-2.3,18.4z"/>
	</g>
	<rect x="452.7" y="189.4" class="st1" width="30" height="14"/>
	<g transform="matrix(1,0,0,1,477,178)">
		<text transform="matrix(1 0 0 1 -12.0411 20.7468)" class="st2 st3">3</text>
	</g>
	<g transform="matrix(1,0,0,1,462.5,171.5)">
		<path vector-effect="none" class="st5" d="M-2.3,18.4h16c3.9,0,7,3.1,7,7c0,3.9-3.1,7-7,7h-16c-3.9,0-7-3.1-7-7
			C-9.3,21.5-6.1,18.4-2.3,18.4z"/>
	</g>
	<rect x="457.3" y="205.4" class="st1" width="21" height="12"/>
	<g transform="matrix(1,0,0,1,466.563,187)">
		<text transform="matrix(1 0 0 1 -8.2754 27.0437)" class="st2 st3">Vsw</text>
	</g>
	<g transform="matrix(1,0,0,1,132,103)">
		<path vector-effect="none" d="M-9.3,18.4l-8-4v8L-9.3,18.4z"/>
	</g>
	<g transform="matrix(1,0,0,1,-183,-27)">
		<path vector-effect="none" class="st5" d="M276.2,148.9h22"/>
	</g>
	<g transform="matrix(1,0,0,1,197,103)">
		<path vector-effect="none" d="M-9.3,18.4l-8-4v8L-9.3,18.4z"/>
	</g>
	<g transform="matrix(1,0,0,1,-183,-27)">
		<path vector-effect="none" class="st5" d="M336.2,148.9h27"/>
	</g>
	<g transform="matrix(1,0,0,1,-183,-27)">
		<path vector-effect="none" class="st5" d="M401.2,148.9h23"/>
	</g>
	<g transform="matrix(1,0,0,1,462,123)">
		<path vector-effect="none" d="M-9.3,18.4l-8-4v8L-9.3,18.4z"/>
	</g>
	<g transform="matrix(1,0,0,1,-183,-27)">
		<path vector-effect="none" class="st5" d="M424.2,148.9v38h116v-18h88"/>
	</g>
	<g transform="matrix(1,0,0,1,277,103)">
		<path vector-effect="none" d="M-9.3,18.4l-8-4v8L-9.3,18.4z"/>
	</g>
	<g transform="matrix(1,0,0,1,-183,-27)">
		<path vector-effect="none" class="st5" d="M424.2,148.9h19"/>
	</g>
	<g transform="matrix(1,0,0,1,250,103)">
		<path vector-effect="none" class="st7" d="M-6.3,18.9c0,1.4-1.1,2.5-2.5,2.5c-1.4,0-2.5-1.1-2.5-2.5c0-1.4,1.1-2.5,2.5-2.5
			C-7.4,16.4-6.3,17.5-6.3,18.9z"/>
	</g>
	<g transform="matrix(1,0,0,1,197,33)">
		<path vector-effect="none" d="M-9.3,18.4l-8-4v8L-9.3,18.4z"/>
	</g>
	<g transform="matrix(1,0,0,1,-183,-27)">
		<path vector-effect="none" class="st5" d="M336.2,78.9h27"/>
	</g>
	<g transform="matrix(6.12323e-17,-1,1,6.12323e-17,337,83)">
		<path vector-effect="none" d="M-18.4-9.3l-8-4v8L-18.4-9.3z"/>
	</g>
	<g transform="matrix(1,0,0,1,-183,-27)">
		<path vector-effect="none" class="st5" d="M481.2,148.9h30v-12"/>
	</g>
	<g transform="matrix(6.12323e-17,1,-1,6.12323e-17,337,53)">
		<path vector-effect="none" d="M18.4,9.3l-8-4v8L18.4,9.3z"/>
	</g>
	<g transform="matrix(1,0,0,1,-183,-27)">
		<path vector-effect="none" class="st5" d="M401.2,78.9h110v12"/>
	</g>
	<g transform="matrix(1,0,0,1,392,68)">
		<path vector-effect="none" d="M-9.3,18.4l-8-4v8L-9.3,18.4z"/>
	</g>
	<g transform="matrix(1,0,0,1,-183,-27)">
		<path vector-effect="none" class="st5" d="M526.2,113.9h32"/>
	</g>
	<g transform="matrix(1,0,0,1,-183,-27)">
		<path vector-effect="none" class="st5" d="M596.2,113.9h15"/>
	</g>
	<g transform="matrix(1,0,0,1,-183,-27)">
		<path vector-effect="none" class="st5" d="M611.2,113.9v-66h-387v31"/>
	</g>
	<g transform="matrix(1,0,0,1,132,33)">
		<path vector-effect="none" d="M-9.3,18.4l-8-4v8L-9.3,18.4z"/>
	</g>
	<g transform="matrix(1,0,0,1,-183,-27)">
		<path vector-effect="none" class="st5" d="M224.2,78.9h74"/>
	</g>
	<g transform="matrix(1,0,0,1,462,68)">
		<path vector-effect="none" d="M-9.3,18.4l-8-4v8L-9.3,18.4z"/>
	</g>
	<g transform="matrix(1,0,0,1,-183,-27)">
		<path vector-effect="none" class="st5" d="M611.2,113.9h17"/>
	</g>
	<g transform="matrix(1,0,0,1,72,103)">
		<path vector-effect="none" d="M-9.3,18.4l-8-4v8L-9.3,18.4z"/>
	</g>
	<g transform="matrix(1,0,0,1,-183,-27)">
		<path vector-effect="none" class="st5" d="M224.2,78.9v70h14"/>
	</g>
	<g transform="matrix(1,0,0,1,50,33)">
		<path vector-effect="none" class="st7" d="M-6.3,18.9c0,1.4-1.1,2.5-2.5,2.5c-1.4,0-2.5-1.1-2.5-2.5c0-1.4,1.1-2.5,2.5-2.5
			C-7.4,16.4-6.3,17.5-6.3,18.9z"/>
	</g>
	<g transform="matrix(1,0,0,1,437,68)">
		<path vector-effect="none" class="st7" d="M-6.3,18.9c0,1.4-1.1,2.5-2.5,2.5c-1.4,0-2.5-1.1-2.5-2.5c0-1.4,1.1-2.5,2.5-2.5
			C-7.4,16.4-6.3,17.5-6.3,18.9z"/>
	</g>
	<g transform="matrix(1,0,0,1,207,228)">
		<path vector-effect="none" d="M-9.3,18.4l-8-4v8L-9.3,18.4z"/>
	</g>
	<g transform="matrix(1,0,0,1,-183,-27)">
		<path vector-effect="none" class="st5" d="M326.2,273.9h47"/>
	</g>
	<g transform="matrix(1,0,0,1,-183,-27)">
		<path vector-effect="none" class="st5" d="M411.2,273.9h24v-50"/>
	</g>
	<g transform="matrix(1,0,0,1,462,178)">
		<path vector-effect="none" d="M-9.3,18.4l-8-4v8L-9.3,18.4z"/>
	</g>
	<g transform="matrix(1,0,0,1,-183,-27)">
		<path vector-effect="none" class="st5" d="M435.2,223.9h193"/>
	</g>
	<g transform="matrix(6.12323e-17,-1,1,6.12323e-17,87,118)">
		<path vector-effect="none" d="M-18.4-9.3l-8-4v8L-18.4-9.3z"/>
	</g>
	<g transform="matrix(1,0,0,1,-183,-27)">
		<path vector-effect="none" class="st5" d="M435.2,223.9h-174v-52"/>
	</g>
	<g transform="matrix(1,0,0,1,261,178)">
		<path vector-effect="none" class="st7" d="M-6.3,18.9c0,1.4-1.1,2.5-2.5,2.5c-1.4,0-2.5-1.1-2.5-2.5c0-1.4,1.1-2.5,2.5-2.5
			C-7.4,16.4-6.3,17.5-6.3,18.9z"/>
	</g>
	<g transform="matrix(1,0,0,1,107,228)">
		<path vector-effect="none" d="M-9.3,18.4l-8-4v8L-9.3,18.4z"/>
	</g>
	<g transform="matrix(1,0,0,1,-183,-27)">
		<path vector-effect="none" class="st5" d="M251.2,273.9h22"/>
	</g>
</g>
</svg>
