<?xml version="1.0" encoding="utf-8"?>
<!-- Generator: Adobe Illustrator 27.3.0, SVG Export Plug-In . SVG Version: 6.00 Build 0)  -->
<svg version="1.1" id="Layer_1" xmlns="http://www.w3.org/2000/svg" xmlns:xlink="http://www.w3.org/1999/xlink" x="0px" y="0px"
	 width="450px" height="310px" viewBox="0 0 450 310" style="enable-background:new 0 0 450 310;" xml:space="preserve">
<style type="text/css">
	.st0{fill:none;}
	.st1{font-family:'Helvetica';}
	.st2{font-size:9px;}
	.st3{fill:none;stroke:#000000;stroke-miterlimit:2;}
	.st4{fill-rule:evenodd;clip-rule:evenodd;fill:#FFFFFF;}
	.st5{font-size:10px;}
	.st6{fill:#FFFFFF;}
	.st7{fill-rule:evenodd;clip-rule:evenodd;}
</style>
<g>
	<rect x="10" y="10" class="st0" width="430" height="290"/>
	<rect x="10" y="10" class="st0" width="430" height="290"/>
	<rect x="10" y="10" class="st0" width="430" height="290"/>
	<rect x="10" y="10" class="st0" width="430" height="290"/>
	<rect x="10" y="10" class="st0" width="430" height="290"/>
	<rect x="10" y="10" class="st0" width="430" height="290"/>
	<rect x="10" y="10" class="st0" width="430" height="290"/>
	<rect x="10" y="10" class="st0" width="430" height="290"/>
	<rect x="10" y="10" class="st0" width="430" height="290"/>
	<rect x="10" y="10" class="st0" width="430" height="290"/>
	<rect x="10" y="10" class="st0" width="430" height="290"/>
	<rect x="10" y="10" class="st0" width="430" height="290"/>
	<rect x="10" y="10" class="st0" width="430" height="290"/>
	<rect x="10" y="10" class="st0" width="430" height="290"/>
	<rect x="10" y="10" class="st0" width="430" height="290"/>
	<rect x="10" y="10" class="st0" width="430" height="290"/>
	<rect x="10" y="10" class="st0" width="430" height="290"/>
	<rect x="10" y="10" class="st0" width="430" height="290"/>
	<rect x="10" y="10" class="st0" width="430" height="290"/>
	<rect x="10" y="10" class="st0" width="430" height="290"/>
	<rect x="10" y="10" class="st0" width="430" height="290"/>
	<rect x="10" y="10" class="st0" width="430" height="290"/>
	<rect x="10" y="10" class="st0" width="430" height="290"/>
	<rect x="10" y="10" class="st0" width="430" height="290"/>
	<rect x="10" y="10" class="st0" width="430" height="290"/>
	<rect x="10" y="10" class="st0" width="430" height="290"/>
	<rect x="10" y="10" class="st0" width="430" height="290"/>
	<rect x="10" y="10" class="st0" width="430" height="290"/>
	<rect x="10" y="10" class="st0" width="430" height="290"/>
	<rect x="10" y="10" class="st0" width="430" height="290"/>
	<rect x="10" y="10" class="st0" width="430" height="290"/>
	<rect x="10" y="10" class="st0" width="430" height="290"/>
	<rect x="10" y="10" class="st0" width="430" height="290"/>
	<rect x="10" y="10" class="st0" width="430" height="290"/>
	<rect x="10" y="10" class="st0" width="430" height="290"/>
	<rect x="10" y="10" class="st0" width="430" height="290"/>
	<rect x="10" y="10" class="st0" width="430" height="290"/>
	<rect x="10" y="10" class="st0" width="430" height="290"/>
	<rect x="10" y="10" class="st0" width="430" height="290"/>
	<rect x="10" y="10" class="st0" width="430" height="290"/>
	<rect x="10" y="10" class="st0" width="430" height="290"/>
	<rect x="10" y="10" class="st0" width="430" height="290"/>
	<rect x="10" y="10" class="st0" width="430" height="290"/>
	<rect x="10" y="10" class="st0" width="430" height="290"/>
	<rect x="10" y="10" class="st0" width="430" height="290"/>
	<rect x="10" y="10" class="st0" width="430" height="290"/>
	<rect x="10" y="10" class="st0" width="430" height="290"/>
	<rect x="10" y="10" class="st0" width="430" height="290"/>
	<rect x="10" y="10" class="st0" width="430" height="290"/>
	<rect x="10" y="10" class="st0" width="430" height="290"/>
	<rect x="10" y="10" class="st0" width="430" height="290"/>
	<rect x="10" y="10" class="st0" width="430" height="290"/>
	<rect x="10" y="10" class="st0" width="430" height="290"/>
	<rect x="10" y="10" class="st0" width="430" height="290"/>
	<rect x="10" y="10" class="st0" width="430" height="290"/>
	<rect x="10" y="10" class="st0" width="430" height="290"/>
	<rect x="10" y="10" class="st0" width="430" height="290"/>
	<rect x="10" y="10" class="st0" width="430" height="290"/>
	<rect x="10" y="10" class="st0" width="430" height="290"/>
	<rect x="10" y="10" class="st0" width="430" height="290"/>
	<rect x="10" y="10" class="st0" width="430" height="290"/>
	<rect x="10" y="10" class="st0" width="430" height="290"/>
	<rect x="10" y="10" class="st0" width="430" height="290"/>
	<rect x="10" y="10" class="st0" width="430" height="290"/>
	<rect x="10" y="10" class="st0" width="430" height="290"/>
	<rect x="10" y="10" class="st0" width="430" height="290"/>
	<rect x="10" y="10" class="st0" width="430" height="290"/>
	<rect x="10" y="10" class="st0" width="430" height="290"/>
	<rect x="10" y="10" class="st0" width="430" height="290"/>
	<rect x="10" y="10" class="st0" width="430" height="290"/>
	<rect x="10" y="10" class="st0" width="430" height="290"/>
	<rect x="10" y="10" class="st0" width="430" height="290"/>
	<rect x="10" y="10" class="st0" width="430" height="290"/>
	<rect x="10" y="10" class="st0" width="430" height="290"/>
	<rect x="10" y="10" class="st0" width="430" height="290"/>
	<rect x="82" y="123" class="st0" width="40" height="63"/>
	<g transform="matrix(1,0,0,1,75,147)">
		<text transform="matrix(1 0 0 1 9.9995 12.3601)" class="st1 st2">dc</text>
	</g>
	<rect x="82" y="123" class="st0" width="40" height="63"/>
	<g transform="matrix(1,0,0,1,109,122)">
		<text transform="matrix(1 0 0 1 -0.5005 12.3601)" class="st1 st2">Vo</text>
	</g>
	<rect x="82" y="123" class="st0" width="40" height="63"/>
	<rect x="82" y="123" class="st0" width="40" height="63"/>
	<g transform="matrix(1,0,0,1,109,152)">
		<text transform="matrix(1 0 0 1 -6.9849 12.36)" class="st1 st2">Vsw</text>
	</g>
	<rect x="82" y="123" class="st0" width="40" height="63"/>
	<g transform="matrix(1,0,0,1,109,167)">
		<text transform="matrix(1 0 0 1 -8.9693 12.36)" class="st1 st2">pwm</text>
	</g>
	<rect x="10" y="10" class="st0" width="430" height="290"/>
	<g transform="matrix(1,0,0,1,72.5,113.5)">
		<path vector-effect="none" class="st3" d="M10,10h40v63H10V10z"/>
	</g>
	<rect x="10" y="10" class="st0" width="430" height="290"/>
	<g transform="matrix(1,0,0,1,2,132)">
		<path vector-effect="none" class="st4" d="M10,10h30v30H10V10z"/>
	</g>
	<rect x="12" y="142" class="st0" width="31" height="31"/>
	<g transform="matrix(1,0,0,1,2,132)">
		<path vector-effect="none" class="st0" d="M10,10h31v31H10V10z"/>
	</g>
	<rect x="11" y="141" class="st0" width="34" height="34"/>
	<g transform="matrix(1,0,0,1,2,132)">
		<path vector-effect="none" d="M19.4,26.8c0.3,0,0.6,0,0.8-0.1c0.4-0.1,0.7-0.4,0.9-0.7c0.2-0.3,0.3-0.7,0.4-1.1
			c0-0.3,0.1-0.5,0.1-0.8c0-0.9-0.2-1.6-0.5-2.1c-0.4-0.5-0.9-0.7-1.7-0.7h-1.7v5.5L19.4,26.8 M16.6,20.4h2.9c1,0,1.8,0.4,2.3,1
			s0.7,1.4,0.7,2.4c0,0.8-0.1,1.5-0.4,2.1c-0.5,1.1-1.4,1.6-2.6,1.6h-2.9V20.4 M25.8,27c0.6,0,1-0.2,1.2-0.7
			c0.2-0.4,0.3-0.9,0.3-1.5c0-0.5-0.1-0.9-0.2-1.2c-0.2-0.5-0.7-0.7-1.3-0.7c-0.5,0-0.9,0.2-1.2,0.6c-0.2,0.4-0.4,0.9-0.4,1.5
			s0.1,1,0.4,1.4C24.9,26.9,25.3,27,25.8,27 M25.8,22.2c0.7,0,1.2,0.2,1.7,0.7c0.5,0.4,0.7,1.1,0.7,2c0,0.8-0.2,1.5-0.6,2.1
			s-1,0.8-1.9,0.8c-0.7,0-1.3-0.2-1.7-0.7c-0.4-0.5-0.6-1.1-0.6-2s0.2-1.6,0.7-2.1C24.5,22.5,25.1,22.2,25.8,22.2 M29.3,22.4h0.8
			v0.7c0.2-0.3,0.5-0.5,0.8-0.7c0.3-0.1,0.6-0.2,0.9-0.2c0.7,0,1.2,0.3,1.5,0.8c0.1,0.3,0.2,0.7,0.2,1.2v3.4h-0.9v-3.3
			c0-0.3,0-0.6-0.1-0.8c-0.2-0.3-0.4-0.5-0.8-0.5c-0.2,0-0.4,0-0.5,0.1c-0.2,0.1-0.5,0.2-0.6,0.4c-0.1,0.2-0.2,0.4-0.3,0.5
			c0,0.2-0.1,0.4-0.1,0.8v2.7h-0.9L29.3,22.4"/>
	</g>
	<rect x="10" y="10" class="st0" width="430" height="290"/>
	<g transform="matrix(1,0,0,1,2.5,132.5)">
		<path vector-effect="none" class="st3" d="M10,10h30v30H10V10z"/>
	</g>
	<rect x="10" y="10" class="st0" width="430" height="290"/>
	<g transform="matrix(1,0,0,1,337,2)">
		<path vector-effect="none" class="st4" d="M10,10h90v30H10V10z"/>
	</g>
	<rect x="347" y="12" class="st0" width="91" height="31"/>
	<g transform="matrix(1,0,0,1,337,2)">
		<path vector-effect="none" class="st0" d="M10,10h91v31H10V10z"/>
	</g>
	<rect x="361" y="14" class="st0" width="64" height="28"/>
	<g transform="matrix(1,0,0,1,352,5)">
		<path vector-effect="none" d="M26.2,24.4c0.7,0,1.2-0.3,1.4-0.8c0.3-0.5,0.4-1.1,0.4-1.8c0-0.6-0.1-1.1-0.3-1.4
			c-0.3-0.6-0.8-0.9-1.5-0.9c-0.6,0-1.1,0.2-1.4,0.7s-0.4,1.1-0.4,1.8c0,0.7,0.1,1.2,0.4,1.7C25.1,24.2,25.6,24.4,26.2,24.4
			 M26.3,18.7c0.8,0,1.5,0.3,2.1,0.8s0.8,1.3,0.8,2.4c0,1-0.2,1.8-0.7,2.5s-1.3,1-2.3,1c-0.9,0-1.5-0.3-2.1-0.9
			c-0.5-0.6-0.8-1.4-0.8-2.4c0-1.1,0.3-1.9,0.8-2.5C24.7,19,25.4,18.7,26.3,18.7 M31.5,18.9V23c0,0.3,0.1,0.6,0.2,0.8
			c0.2,0.4,0.5,0.6,1,0.6c0.7,0,1.2-0.3,1.5-1c0.1-0.4,0.2-0.8,0.2-1.4v-3.1h1.1v6.3h-1v-0.9c-0.1,0.2-0.3,0.4-0.5,0.6
			c-0.4,0.3-0.9,0.5-1.5,0.5c-0.9,0-1.5-0.3-1.8-0.9c-0.2-0.3-0.3-0.7-0.3-1.3v-4.3L31.5,18.9 M37.3,17.1h1.1v1.8h1v0.9h-1v4.1
			c0,0.2,0.1,0.4,0.2,0.4c0.1,0,0.2,0.1,0.4,0.1c0.1,0,0.1,0,0.2,0c0.1,0,0.1,0,0.2,0v0.8c-0.1,0-0.2,0.1-0.4,0.1
			c-0.1,0-0.3,0-0.4,0c-0.5,0-0.8-0.1-1-0.4s-0.3-0.6-0.3-1v-4.2h-0.8v-0.9h0.8V17.1 M40.7,23.8h1.2v1.3h-1.2V23.8 M44.6,16.5
			l2.5,7.3l2.4-7.3h1.3l-3.1,8.6h-1.2l-3.1-8.6H44.6 M53.6,24.4c0.7,0,1.2-0.3,1.4-0.8c0.3-0.5,0.4-1.1,0.4-1.8
			c0-0.6-0.1-1.1-0.3-1.4c-0.3-0.6-0.8-0.9-1.5-0.9c-0.6,0-1.1,0.2-1.4,0.7c-0.3,0.5-0.4,1.1-0.4,1.8c0,0.7,0.1,1.2,0.4,1.7
			C52.5,24.2,53,24.4,53.6,24.4 M53.6,18.7c0.8,0,1.5,0.3,2.1,0.8s0.8,1.3,0.8,2.4c0,1-0.2,1.8-0.7,2.5s-1.3,1-2.3,1
			c-0.9,0-1.5-0.3-2.1-0.9c-0.5-0.6-0.8-1.4-0.8-2.4c0-1.1,0.3-1.9,0.8-2.5C52,19,52.7,18.7,53.6,18.7"/>
	</g>
	<rect x="10" y="10" class="st0" width="430" height="290"/>
	<g transform="matrix(1,0,0,1,337.5,2.5)">
		<path vector-effect="none" class="st3" d="M10,10h90v30H10V10z"/>
	</g>
	<rect x="10" y="10" class="st0" width="430" height="290"/>
	<g transform="matrix(1,0,0,1,337,107)">
		<path vector-effect="none" class="st4" d="M10,10h90v30H10V10z"/>
	</g>
	<rect x="347" y="117" class="st0" width="91" height="31"/>
	<g transform="matrix(1,0,0,1,337,107)">
		<path vector-effect="none" class="st0" d="M10,10h91v31H10V10z"/>
	</g>
	<rect x="361" y="119" class="st0" width="64" height="28"/>
	<g transform="matrix(1,0,0,1,352,110)">
		<path vector-effect="none" d="M25.3,24.4c0.7,0,1.2-0.3,1.4-0.8c0.3-0.5,0.4-1.1,0.4-1.8c0-0.6-0.1-1.1-0.3-1.4
			c-0.3-0.6-0.8-0.9-1.5-0.9c-0.6,0-1.1,0.2-1.4,0.7s-0.4,1.1-0.4,1.8c0,0.7,0.1,1.2,0.4,1.7C24.2,24.2,24.6,24.4,25.3,24.4
			 M25.3,18.7c0.8,0,1.5,0.3,2.1,0.8s0.8,1.3,0.8,2.4c0,1-0.2,1.8-0.7,2.5s-1.3,1-2.3,1c-0.9,0-1.5-0.3-2.1-0.9
			c-0.5-0.6-0.8-1.4-0.8-2.4c0-1.1,0.3-1.9,0.8-2.5C23.7,19,24.4,18.7,25.3,18.7 M30.5,18.9V23c0,0.3,0.1,0.6,0.2,0.8
			c0.2,0.4,0.5,0.6,1,0.6c0.7,0,1.2-0.3,1.5-1c0.1-0.4,0.2-0.8,0.2-1.4v-3.1h1.1v6.3h-1v-0.9c-0.1,0.2-0.3,0.4-0.5,0.6
			c-0.4,0.3-0.9,0.5-1.5,0.5c-0.9,0-1.5-0.3-1.8-0.9c-0.2-0.3-0.3-0.7-0.3-1.3v-4.3L30.5,18.9 M36.3,17.1h1.1v1.8h1v0.9h-1v4.1
			c0,0.2,0.1,0.4,0.2,0.4c0.1,0,0.2,0.1,0.4,0.1c0.1,0,0.1,0,0.2,0c0.1,0,0.1,0,0.2,0v0.8c-0.1,0-0.2,0.1-0.4,0.1
			c-0.1,0-0.3,0-0.4,0c-0.5,0-0.8-0.1-1-0.4s-0.3-0.6-0.3-1v-4.2h-0.8v-0.9h0.8V17.1 M39.7,23.8h1.2v1.3h-1.2V23.8 M42.8,18.9h1.1
			v6.2h-1.1V18.9 M42.8,16.5h1.1v1.2h-1.1V16.5 M44.7,26.6V26h6.7v0.6H44.7 M52.2,16.5h1.2v7.6h4.4v1h-5.5v-8.6"/>
	</g>
	<rect x="10" y="10" class="st0" width="430" height="290"/>
	<g transform="matrix(1,0,0,1,337.5,107.5)">
		<path vector-effect="none" class="st3" d="M10,10h90v30H10V10z"/>
	</g>
	<rect x="10" y="10" class="st0" width="430" height="290"/>
	<g transform="matrix(1,0,0,1,337,212)">
		<path vector-effect="none" class="st4" d="M10,10h90v30H10V10z"/>
	</g>
	<rect x="347" y="222" class="st0" width="91" height="31"/>
	<g transform="matrix(1,0,0,1,337,212)">
		<path vector-effect="none" class="st0" d="M10,10h91v31H10V10z"/>
	</g>
	<rect x="361" y="224" class="st0" width="64" height="28"/>
	<g transform="matrix(1,0,0,1,352,215)">
		<path vector-effect="none" d="M21.9,24.4c0.7,0,1.2-0.3,1.4-0.8c0.3-0.5,0.4-1.1,0.4-1.8c0-0.6-0.1-1.1-0.3-1.4
			c-0.3-0.6-0.8-0.9-1.5-0.9c-0.6,0-1.1,0.2-1.4,0.7s-0.4,1.1-0.4,1.8c0,0.7,0.1,1.2,0.4,1.7C20.8,24.2,21.3,24.4,21.9,24.4
			 M22,18.7c0.8,0,1.5,0.3,2.1,0.8s0.8,1.3,0.8,2.4c0,1-0.2,1.8-0.7,2.5s-1.3,1-2.3,1c-0.9,0-1.5-0.3-2.1-0.9
			c-0.5-0.6-0.8-1.4-0.8-2.4c0-1.1,0.3-1.9,0.8-2.5C20.4,19,21.1,18.7,22,18.7 M27.2,18.9V23c0,0.3,0.1,0.6,0.2,0.8
			c0.2,0.4,0.5,0.6,1,0.6c0.7,0,1.2-0.3,1.5-1c0.1-0.4,0.2-0.8,0.2-1.4v-3.1h1.1v6.3h-1v-0.9c-0.1,0.2-0.3,0.4-0.5,0.6
			c-0.4,0.3-0.9,0.5-1.5,0.5c-0.9,0-1.5-0.3-1.8-0.9c-0.2-0.3-0.3-0.7-0.3-1.3v-4.3L27.2,18.9 M33,17.1h1.1v1.8h1v0.9h-1v4.1
			c0,0.2,0.1,0.4,0.2,0.4c0.1,0,0.2,0.1,0.4,0.1c0.1,0,0.1,0,0.2,0c0.1,0,0.1,0,0.2,0v0.8c-0.1,0-0.2,0.1-0.4,0.1
			c-0.1,0-0.3,0-0.4,0c-0.5,0-0.8-0.1-1-0.4s-0.3-0.6-0.3-1v-4.2h-0.8v-0.9H33V17.1 M36.4,23.8h1.2v1.3h-1.2V23.8 M40.3,16.5
			l2.5,7.3l2.4-7.3h1.3l-3.1,8.6h-1.2L39,16.5H40.3 M48.1,23.2c0,0.4,0.1,0.6,0.3,0.8c0.3,0.3,0.7,0.5,1.4,0.5c0.4,0,0.7-0.1,1-0.3
			c0.3-0.2,0.4-0.4,0.4-0.8c0-0.3-0.1-0.5-0.4-0.6c-0.2-0.1-0.5-0.2-0.9-0.3l-0.8-0.2c-0.5-0.1-0.9-0.3-1.2-0.4
			c-0.5-0.3-0.7-0.7-0.7-1.2c0-0.6,0.2-1.1,0.6-1.4c0.4-0.4,1-0.6,1.7-0.6c0.9,0,1.6,0.3,2,0.8c0.3,0.4,0.4,0.7,0.4,1.1h-1
			c0-0.2-0.1-0.5-0.3-0.7c-0.2-0.3-0.7-0.4-1.3-0.4c-0.4,0-0.7,0.1-0.9,0.2c-0.2,0.2-0.3,0.4-0.3,0.6c0,0.3,0.1,0.5,0.4,0.7
			c0.2,0.1,0.4,0.2,0.7,0.3l0.7,0.2c0.8,0.2,1.3,0.4,1.5,0.5c0.4,0.3,0.6,0.7,0.6,1.3c0,0.6-0.2,1-0.6,1.4c-0.4,0.4-1.1,0.6-1.9,0.6
			c-0.9,0-1.6-0.2-2-0.6s-0.6-0.9-0.6-1.6h1.2 M53.9,18.9l1.2,4.9l1.2-4.9h1.2l1.2,4.9l1.3-4.9h1.1l-1.8,6.3h-1.1l-1.3-4.9l-1.2,4.9
			h-1.1l-1.8-6.3L53.9,18.9"/>
	</g>
	<rect x="10" y="10" class="st0" width="430" height="290"/>
	<g transform="matrix(1,0,0,1,337.5,212.5)">
		<path vector-effect="none" class="st3" d="M10,10h90v30H10V10z"/>
	</g>
	<rect x="10" y="10" class="st0" width="430" height="290"/>
	<g transform="matrix(1,0,0,1,337,152)">
		<path vector-effect="none" class="st4" d="M10,10h90v30H10V10z"/>
	</g>
	<rect x="347" y="162" class="st0" width="91" height="31"/>
	<g transform="matrix(1,0,0,1,337,152)">
		<path vector-effect="none" class="st0" d="M10,10h91v31H10V10z"/>
	</g>
	<rect x="361" y="164" class="st0" width="64" height="28"/>
	<g transform="matrix(1,0,0,1,352,155)">
		<path vector-effect="none" d="M22.6,24.4c0.7,0,1.2-0.3,1.4-0.8c0.3-0.5,0.4-1.1,0.4-1.8c0-0.6-0.1-1.1-0.3-1.4
			c-0.3-0.6-0.8-0.9-1.5-0.9c-0.6,0-1.1,0.2-1.4,0.7s-0.4,1.1-0.4,1.8c0,0.7,0.1,1.2,0.4,1.7C21.5,24.2,22,24.4,22.6,24.4
			 M22.6,18.7c0.8,0,1.5,0.3,2.1,0.8s0.8,1.3,0.8,2.4c0,1-0.2,1.8-0.7,2.5s-1.3,1-2.3,1c-0.9,0-1.5-0.3-2.1-0.9
			c-0.5-0.6-0.8-1.4-0.8-2.4c0-1.1,0.3-1.9,0.8-2.5C21,19,21.7,18.7,22.6,18.7 M27.8,18.9V23c0,0.3,0.1,0.6,0.2,0.8
			c0.2,0.4,0.5,0.6,1,0.6c0.7,0,1.2-0.3,1.5-1c0.1-0.4,0.2-0.8,0.2-1.4v-3.1h1.1v6.3h-1v-0.9c-0.1,0.2-0.3,0.4-0.5,0.6
			c-0.4,0.3-0.9,0.5-1.5,0.5c-0.9,0-1.5-0.3-1.8-0.9c-0.2-0.3-0.3-0.7-0.3-1.3v-4.3L27.8,18.9 M33.7,17.1h1.1v1.8h1v0.9h-1v4.1
			c0,0.2,0.1,0.4,0.2,0.4c0.1,0,0.2,0.1,0.4,0.1c0.1,0,0.1,0,0.2,0c0.1,0,0.1,0,0.2,0v0.8c-0.1,0-0.2,0.1-0.4,0.1
			c-0.1,0-0.3,0-0.4,0c-0.5,0-0.8-0.1-1-0.4s-0.3-0.6-0.3-1v-4.2h-0.8v-0.9h0.8V17.1 M37,23.8h1.2v1.3H37V23.8 M40.9,16.5l2.5,7.3
			l2.4-7.3h1.3L44,25.1h-1.2l-3.1-8.6H40.9 M47.3,26.6V26H54v0.6H47.3 M54.9,16.5h1.2v7.6h4.4v1H55v-8.6"/>
	</g>
	<rect x="10" y="10" class="st0" width="430" height="290"/>
	<g transform="matrix(1,0,0,1,337.5,152.5)">
		<path vector-effect="none" class="st3" d="M10,10h90v30H10V10z"/>
	</g>
	<rect x="10" y="10" class="st0" width="430" height="290"/>
	<g transform="matrix(1,0,0,1,337,257)">
		<path vector-effect="none" class="st4" d="M10,10h90v30H10V10z"/>
	</g>
	<rect x="347" y="267" class="st0" width="91" height="31"/>
	<g transform="matrix(1,0,0,1,337,257)">
		<path vector-effect="none" class="st0" d="M10,10h91v31H10V10z"/>
	</g>
	<rect x="361" y="269" class="st0" width="64" height="28"/>
	<g transform="matrix(1,0,0,1,352,260)">
		<path vector-effect="none" d="M20.6,24.4c0.7,0,1.2-0.3,1.4-0.8s0.4-1.1,0.4-1.8c0-0.6-0.1-1.1-0.3-1.4c-0.3-0.6-0.8-0.9-1.5-0.9
			c-0.6,0-1.1,0.2-1.4,0.7s-0.4,1.1-0.4,1.8c0,0.7,0.1,1.2,0.4,1.7C19.5,24.2,20,24.4,20.6,24.4 M20.6,18.7c0.8,0,1.5,0.3,2.1,0.8
			s0.8,1.3,0.8,2.4c0,1-0.2,1.8-0.7,2.5s-1.3,1-2.3,1c-0.9,0-1.5-0.3-2.1-0.9c-0.5-0.6-0.8-1.4-0.8-2.4c0-1.1,0.3-1.9,0.8-2.5
			C19,19,19.7,18.7,20.6,18.7 M25.8,18.9V23c0,0.3,0.1,0.6,0.2,0.8c0.2,0.4,0.5,0.6,1,0.6c0.7,0,1.2-0.3,1.5-1
			c0.1-0.4,0.2-0.8,0.2-1.4v-3.1h1.1v6.3h-1v-0.9c-0.1,0.2-0.3,0.4-0.5,0.6c-0.4,0.3-0.9,0.5-1.5,0.5c-0.9,0-1.5-0.3-1.8-0.9
			c-0.2-0.3-0.3-0.7-0.3-1.3v-4.3L25.8,18.9 M31.7,17.1h1.1v1.8h1v0.9h-1v4.1c0,0.2,0.1,0.4,0.2,0.4c0.1,0,0.2,0.1,0.4,0.1
			c0.1,0,0.1,0,0.2,0c0.1,0,0.1,0,0.2,0v0.8c-0.1,0-0.2,0.1-0.4,0.1c-0.1,0-0.3,0-0.4,0c-0.5,0-0.8-0.1-1-0.4s-0.3-0.6-0.3-1v-4.2
			h-0.8v-0.9h0.8V17.1 M35,23.8h1.2v1.3H35V23.8 M40.8,24.4c0.5,0,0.9-0.2,1.2-0.6s0.5-1,0.5-1.8c0-0.5-0.1-0.9-0.2-1.3
			c-0.3-0.7-0.8-1-1.5-1s-1.2,0.4-1.5,1.1c-0.1,0.4-0.2,0.9-0.2,1.5c0,0.5,0.1,0.9,0.2,1.2C39.5,24.1,40,24.4,40.8,24.4 M38,18.9h1
			v0.8c0.2-0.3,0.4-0.5,0.7-0.7c0.4-0.2,0.8-0.4,1.3-0.4c0.7,0,1.3,0.3,1.8,0.8s0.7,1.3,0.7,2.3c0,1.4-0.4,2.3-1.1,2.9
			c-0.5,0.4-1,0.6-1.6,0.6c-0.5,0-0.9-0.1-1.2-0.3c-0.2-0.1-0.4-0.3-0.6-0.6v3.2h-1V18.9 M45.3,18.9l1.2,4.9l1.2-4.9h1.2l1.2,4.9
			l1.3-4.9h1.1l-1.8,6.3h-1.1l-1.3-4.9L47,25.1h-1.1l-1.8-6.3h1.2 M53.4,18.9h1v0.9c0.2-0.3,0.5-0.5,0.7-0.7
			c0.3-0.2,0.7-0.4,1.2-0.4s0.9,0.1,1.2,0.4c0.2,0.1,0.3,0.3,0.5,0.6c0.2-0.3,0.5-0.6,0.8-0.7c0.3-0.2,0.7-0.2,1.1-0.2
			c0.8,0,1.4,0.3,1.7,0.9c0.2,0.3,0.2,0.8,0.2,1.3v4.2h-1.1v-4.4c0-0.4-0.1-0.7-0.3-0.9c-0.2-0.2-0.5-0.2-0.8-0.2
			c-0.4,0-0.8,0.1-1.1,0.4s-0.4,0.7-0.4,1.4v3.7H57V21c0-0.4-0.1-0.7-0.2-0.9c-0.2-0.3-0.5-0.4-0.9-0.4s-0.8,0.2-1.1,0.5
			s-0.5,0.9-0.5,1.7v3.3h-1.1v-6.3"/>
	</g>
	<rect x="10" y="10" class="st0" width="430" height="290"/>
	<g transform="matrix(1,0,0,1,337.5,257.5)">
		<path vector-effect="none" class="st3" d="M10,10h90v30H10V10z"/>
	</g>
	<rect x="10" y="10" class="st0" width="430" height="290"/>
	<g transform="matrix(1,0,0,1,337,47)">
		<path vector-effect="none" class="st4" d="M10,10h90v30H10V10z"/>
	</g>
	<rect x="347" y="57" class="st0" width="91" height="31"/>
	<g transform="matrix(1,0,0,1,337,47)">
		<path vector-effect="none" class="st0" d="M10,10h91v31H10V10z"/>
	</g>
	<rect x="361" y="59" class="st0" width="64" height="28"/>
	<g transform="matrix(1,0,0,1,352,50)">
		<path vector-effect="none" d="M22.3,24.4c0.7,0,1.2-0.3,1.4-0.8c0.3-0.5,0.4-1.1,0.4-1.8c0-0.6-0.1-1.1-0.3-1.4
			c-0.3-0.6-0.8-0.9-1.5-0.9c-0.6,0-1.1,0.2-1.4,0.7s-0.4,1.1-0.4,1.8c0,0.7,0.1,1.2,0.4,1.7C21.2,24.2,21.6,24.4,22.3,24.4
			 M22.3,18.7c0.8,0,1.5,0.3,2.1,0.8s0.8,1.3,0.8,2.4c0,1-0.2,1.8-0.7,2.5s-1.3,1-2.3,1c-0.9,0-1.5-0.3-2.1-0.9
			c-0.5-0.6-0.8-1.4-0.8-2.4c0-1.1,0.3-1.9,0.8-2.5C20.7,19,21.4,18.7,22.3,18.7 M27.5,18.9V23c0,0.3,0.1,0.6,0.2,0.8
			c0.2,0.4,0.5,0.6,1,0.6c0.7,0,1.2-0.3,1.5-1c0.1-0.4,0.2-0.8,0.2-1.4v-3.1h1.1v6.3h-1v-0.9c-0.1,0.2-0.3,0.4-0.5,0.6
			c-0.4,0.3-0.9,0.5-1.5,0.5c-0.9,0-1.5-0.3-1.8-0.9c-0.2-0.3-0.3-0.7-0.3-1.3v-4.3L27.5,18.9 M33.3,17.1h1.1v1.8h1v0.9h-1v4.1
			c0,0.2,0.1,0.4,0.2,0.4c0.1,0,0.2,0.1,0.4,0.1c0.1,0,0.1,0,0.2,0c0.1,0,0.1,0,0.2,0v0.8c-0.1,0-0.2,0.1-0.4,0.1
			c-0.1,0-0.3,0-0.4,0c-0.5,0-0.8-0.1-1-0.4s-0.3-0.6-0.3-1v-4.2h-0.8v-0.9h0.8V17.1 M36.7,23.8h1.2v1.3h-1.2V23.8 M39.8,18.9h1.1
			v6.2h-1.1V18.9 M39.8,16.5h1.1v1.2h-1.1V16.5 M41.7,26.6V26h6.7v0.6H41.7 M51.5,18.7c0.7,0,1.3,0.2,1.7,0.5s0.7,0.9,0.8,1.8h-1
			c-0.1-0.4-0.2-0.7-0.4-1s-0.6-0.4-1.1-0.4c-0.7,0-1.2,0.3-1.4,1c-0.2,0.4-0.3,1-0.3,1.6s0.1,1.2,0.4,1.6c0.3,0.4,0.7,0.6,1.3,0.6
			c0.4,0,0.8-0.1,1-0.4c0.3-0.3,0.4-0.6,0.5-1.1h1c-0.1,0.8-0.4,1.4-0.9,1.8s-1.1,0.6-1.8,0.6c-0.8,0-1.5-0.3-2-0.9
			s-0.7-1.3-0.7-2.2c0-1.1,0.3-2,0.8-2.6C50,19,50.7,18.7,51.5,18.7 M57.6,24.4c0.7,0,1.2-0.3,1.4-0.8c0.3-0.5,0.4-1.1,0.4-1.8
			c0-0.6-0.1-1.1-0.3-1.4c-0.3-0.6-0.8-0.9-1.5-0.9c-0.6,0-1.1,0.2-1.4,0.7c-0.3,0.5-0.4,1.1-0.4,1.8c0,0.7,0.1,1.2,0.4,1.7
			C56.5,24.2,57,24.4,57.6,24.4 M57.6,18.7c0.8,0,1.5,0.3,2.1,0.8s0.8,1.3,0.8,2.4c0,1-0.2,1.8-0.7,2.5s-1.3,1-2.3,1
			c-0.9,0-1.5-0.3-2.1-0.9c-0.5-0.6-0.8-1.4-0.8-2.4c0-1.1,0.3-1.9,0.8-2.5C56,19,56.7,18.7,57.6,18.7"/>
	</g>
	<rect x="10" y="10" class="st0" width="430" height="290"/>
	<g transform="matrix(1,0,0,1,337.5,47.5)">
		<path vector-effect="none" class="st3" d="M10,10h90v30H10V10z"/>
	</g>
	<rect x="10" y="10" class="st0" width="430" height="290"/>
	<g transform="matrix(1,0,0,1,187,149)">
		<path vector-effect="none" class="st4" d="M10,10h60v36H10V10z"/>
	</g>
	<rect x="197" y="159" class="st0" width="60" height="36"/>
	<g transform="matrix(1,0,0,1,210,163)">
		<text transform="matrix(1 0 0 1 9.9995 10.3913)" class="st1 st5">z-1</text>
	</g>
	<rect x="197" y="159" class="st0" width="60" height="36"/>
	<g transform="matrix(1,0,0,1,215,177)">
		<rect x="10" y="1.8" class="st0" width="5" height="13.4"/>
		<text transform="matrix(1 0 0 1 9.9995 10.3913)" class="st1 st5">z</text>
	</g>
	<rect x="197.5" y="159.5" class="st0" width="60" height="36"/>
	<g transform="matrix(1,0,0,1,-417.5,-127.5)">
		<line vector-effect="none" class="st3" x1="638" y1="305" x2="652" y2="305"/>
	</g>
	<rect x="10" y="10" class="st0" width="430" height="290"/>
	<g transform="matrix(1,0,0,1,187.5,149.5)">
		<path vector-effect="none" class="st3" d="M10,10h60v36H10V10z"/>
	</g>
	<rect x="10" y="10" class="st0" width="430" height="290"/>
	<g transform="matrix(1,0,0,1,272,152)">
		<path vector-effect="none" class="st6" d="M10,10l30,15L10,40V10z"/>
	</g>
	<rect x="282" y="162" class="st0" width="30" height="30"/>
	<g transform="matrix(1,0,0,1,272,152)">
		<path vector-effect="none" class="st0" d="M10,10l30,15L10,40V10z"/>
	</g>
	<rect x="281" y="161.1" class="st0" width="34" height="34"/>
	<g transform="matrix(1,0,0,1,267.008,152.086)">
		<path vector-effect="none" d="M23,20.4h1v6.3h3.6v0.9H23V20.4z"/>
	</g>
	<rect x="10" y="10" class="st0" width="430" height="290"/>
	<g transform="matrix(1,0,0,1,272.5,152.5)">
		<path vector-effect="none" class="st3" d="M10,10l30,15L10,40V10z"/>
	</g>
	<rect x="10" y="10" class="st0" width="430" height="290"/>
	<g transform="matrix(1,0,0,1,187,44)">
		<path vector-effect="none" class="st4" d="M10,10h60v36H10V10z"/>
	</g>
	<rect x="197" y="54" class="st0" width="60" height="36"/>
	<g transform="matrix(1,0,0,1,210,58)">
		<text transform="matrix(1 0 0 1 9.9995 10.3914)" class="st1 st5">z-1</text>
	</g>
	<rect x="197" y="54" class="st0" width="60" height="36"/>
	<g transform="matrix(1,0,0,1,215,72)">
		<rect x="10" y="1.8" class="st0" width="5" height="13.4"/>
		<text transform="matrix(1 0 0 1 9.9995 10.3914)" class="st1 st5">z</text>
	</g>
	<rect x="197.5" y="54.5" class="st0" width="60" height="36"/>
	<g transform="matrix(1,0,0,1,-417.5,-127.5)">
		<line vector-effect="none" class="st3" x1="638" y1="200" x2="652" y2="200"/>
	</g>
	<rect x="10" y="10" class="st0" width="430" height="290"/>
	<g transform="matrix(1,0,0,1,187.5,44.5)">
		<path vector-effect="none" class="st3" d="M10,10h60v36H10V10z"/>
	</g>
	<rect x="10" y="10" class="st0" width="430" height="290"/>
	<g transform="matrix(1,0,0,1,272,47)">
		<path vector-effect="none" class="st6" d="M10,10l30,15L10,40V10z"/>
	</g>
	<rect x="282" y="57" class="st0" width="30" height="30"/>
	<g transform="matrix(1,0,0,1,272,47)">
		<path vector-effect="none" class="st0" d="M10,10l30,15L10,40V10z"/>
	</g>
	<rect x="281" y="56.1" class="st0" width="34" height="34"/>
	<g transform="matrix(1,0,0,1,267.008,47.0859)">
		<path vector-effect="none" d="M25.2,20.2c0.9,0,1.6,0.2,2.1,0.7s0.8,1,0.8,1.6h-0.9c-0.1-0.5-0.3-0.8-0.6-1.1
			c-0.3-0.3-0.8-0.4-1.4-0.4c-0.7,0-1.3,0.2-1.7,0.7c-0.4,0.5-0.7,1.3-0.7,2.3c0,0.8,0.2,1.5,0.6,2s1,0.8,1.8,0.8
			c0.7,0,1.3-0.3,1.6-0.8c0.2-0.3,0.3-0.7,0.4-1.1h0.9c-0.1,0.8-0.4,1.4-0.8,1.9c-0.6,0.6-1.3,0.9-2.3,0.9c-0.8,0-1.5-0.3-2.1-0.8
			c-0.7-0.7-1.1-1.7-1.1-3.1c0-1.1,0.3-1.9,0.8-2.6C23.3,20.6,24.1,20.2,25.2,20.2z"/>
	</g>
	<rect x="10" y="10" class="st0" width="430" height="290"/>
	<g transform="matrix(1,0,0,1,272.5,47.5)">
		<path vector-effect="none" class="st3" d="M10,10l30,15L10,40V10z"/>
	</g>
	<rect x="10" y="10" class="st0" width="430" height="290"/>
	<g transform="matrix(1,0,0,1,72,147)">
		<path vector-effect="none" d="M10,10L2,6v8L10,10z"/>
	</g>
	<rect x="10" y="10" class="st0" width="430" height="290"/>
	<g transform="matrix(1,0,0,1,-418,-128)">
		<path vector-effect="none" class="st3" d="M460.5,285.5h32"/>
	</g>
	<rect x="10" y="10" class="st0" width="430" height="290"/>
	<g transform="matrix(1,0,0,1,-418,-128)">
		<path vector-effect="none" class="st3" d="M540.5,260.5h42v-60"/>
	</g>
	<rect x="10" y="10" class="st0" width="430" height="290"/>
	<g transform="matrix(1,0,0,1,187,62)">
		<path vector-effect="none" d="M10,10L2,6v8L10,10z"/>
	</g>
	<rect x="10" y="10" class="st0" width="430" height="290"/>
	<g transform="matrix(1,0,0,1,-418,-128)">
		<path vector-effect="none" class="st3" d="M582.5,200.5h25"/>
	</g>
	<rect x="10" y="10" class="st0" width="430" height="290"/>
	<g transform="matrix(1,0,0,1,337,17)">
		<path vector-effect="none" d="M10,10L2,6v8L10,10z"/>
	</g>
	<rect x="10" y="10" class="st0" width="430" height="290"/>
	<g transform="matrix(1,0,0,1,-418,-128)">
		<path vector-effect="none" class="st3" d="M582.5,200.5v-45h175"/>
	</g>
	<rect x="10" y="10" class="st0" width="430" height="290"/>
	<g transform="matrix(1,0,0,1,154,62)">
		<path vector-effect="none" class="st7" d="M13,10.5c0,1.4-1.1,2.5-2.5,2.5S8,11.9,8,10.5S9.1,8,10.5,8S13,9.1,13,10.5z"/>
	</g>
	<rect x="10" y="10" class="st0" width="430" height="290"/>
	<g transform="matrix(1,0,0,1,-418,-128)">
		<path vector-effect="none" class="st3" d="M540.5,275.5h56"/>
	</g>
	<rect x="10" y="10" class="st0" width="430" height="290"/>
	<g transform="matrix(1,0,0,1,337,122)">
		<path vector-effect="none" d="M10,10L2,6v8L10,10z"/>
	</g>
	<rect x="10" y="10" class="st0" width="430" height="290"/>
	<g transform="matrix(1,0,0,1,-418,-128)">
		<path vector-effect="none" class="st3" d="M596.5,275.5v-15h161"/>
	</g>
	<rect x="10" y="10" class="st0" width="430" height="290"/>
	<g transform="matrix(1,0,0,1,187,167)">
		<path vector-effect="none" d="M10,10L2,6v8L10,10z"/>
	</g>
	<rect x="10" y="10" class="st0" width="430" height="290"/>
	<g transform="matrix(1,0,0,1,-418,-128)">
		<path vector-effect="none" class="st3" d="M596.5,275.5v30h11"/>
	</g>
	<rect x="10" y="10" class="st0" width="430" height="290"/>
	<g transform="matrix(1,0,0,1,168,137)">
		<path vector-effect="none" class="st7" d="M13,10.5c0,1.4-1.1,2.5-2.5,2.5S8,11.9,8,10.5S9.1,8,10.5,8S13,9.1,13,10.5z"/>
	</g>
	<rect x="10" y="10" class="st0" width="430" height="290"/>
	<g transform="matrix(1,0,0,1,337,227)">
		<path vector-effect="none" d="M10,10L2,6v8L10,10z"/>
	</g>
	<rect x="10" y="10" class="st0" width="430" height="290"/>
	<g transform="matrix(1,0,0,1,-418,-128)">
		<path vector-effect="none" class="st3" d="M540.5,290.5h41v75h176"/>
	</g>
	<rect x="10" y="10" class="st0" width="430" height="290"/>
	<g transform="matrix(1,0,0,1,337,272)">
		<path vector-effect="none" d="M10,10L2,6v8L10,10z"/>
	</g>
	<rect x="10" y="10" class="st0" width="430" height="290"/>
	<g transform="matrix(1,0,0,1,-418,-128)">
		<path vector-effect="none" class="st3" d="M540.5,305.5h27v105h190"/>
	</g>
	<rect x="10" y="10" class="st0" width="430" height="290"/>
	<g transform="matrix(1,0,0,1,272,62)">
		<path vector-effect="none" d="M10,10L2,6v8L10,10z"/>
	</g>
	<rect x="10" y="10" class="st0" width="430" height="290"/>
	<g transform="matrix(1,0,0,1,-418,-128)">
		<path vector-effect="none" class="st3" d="M675.5,200.5h17"/>
	</g>
	<rect x="10" y="10" class="st0" width="430" height="290"/>
	<g transform="matrix(1,0,0,1,272,167)">
		<path vector-effect="none" d="M10,10L2,6v8L10,10z"/>
	</g>
	<rect x="10" y="10" class="st0" width="430" height="290"/>
	<g transform="matrix(1,0,0,1,-418,-128)">
		<path vector-effect="none" class="st3" d="M675.5,305.5h17"/>
	</g>
	<rect x="10" y="10" class="st0" width="430" height="290"/>
	<g transform="matrix(1,0,0,1,337,62)">
		<path vector-effect="none" d="M10,10L2,6v8L10,10z"/>
	</g>
	<rect x="10" y="10" class="st0" width="430" height="290"/>
	<g transform="matrix(1,0,0,1,-418,-128)">
		<path vector-effect="none" class="st3" d="M730.5,200.5h27"/>
	</g>
	<rect x="10" y="10" class="st0" width="430" height="290"/>
	<g transform="matrix(1,0,0,1,337,167)">
		<path vector-effect="none" d="M10,10L2,6v8L10,10z"/>
	</g>
	<rect x="10" y="10" class="st0" width="430" height="290"/>
	<g transform="matrix(1,0,0,1,-418,-128)">
		<path vector-effect="none" class="st3" d="M730.5,305.5h27"/>
	</g>
	<g>
		<text transform="matrix(1 0 0 1 105.9695 150)" class="st1 st5">i_L</text>
	</g>
</g>
</svg>
