<?xml version="1.0" encoding="utf-8"?>
<!-- Generator: Adobe Illustrator 27.3.0, SVG Export Plug-In . SVG Version: 6.00 Build 0)  -->
<svg version="1.1" id="Layer_1" xmlns="http://www.w3.org/2000/svg" xmlns:xlink="http://www.w3.org/1999/xlink" x="0px" y="0px"
	 width="672.7px" height="366.6px" viewBox="0 0 672.7 366.6" style="enable-background:new 0 0 672.7 366.6;" xml:space="preserve"
	>
<g>
	<g>
		<polyline style="fill:none;stroke:#000000;stroke-width:2;stroke-miterlimit:10;" points="599,333.6 131.3,333.6 131.3,57.5 		"/>
		<g>
			<polygon points="596.6,330.2 609.6,333.6 596.6,337.1 			"/>
		</g>
		<g>
			<polygon points="134.8,59.9 131.3,46.9 127.8,59.9 			"/>
		</g>
	</g>
</g>
<g style="opacity:0.7;">
	<g>
		<line style="fill:none;stroke:#000000;stroke-miterlimit:10;" x1="217.9" y1="90.8" x2="136.6" y2="90.8"/>
		<g>
			<polygon points="216.7,89 223.2,90.8 216.7,92.5 			"/>
		</g>
		<g>
			<polygon points="137.8,89 131.3,90.8 137.8,92.5 			"/>
		</g>
	</g>
</g>
<g style="opacity:0.7;">
	<g>
		<line style="fill:none;stroke:#000000;stroke-miterlimit:10;" x1="332.7" y1="90.8" x2="228.6" y2="90.8"/>
		<g>
			<polygon points="331.5,89 338,90.8 331.5,92.5 			"/>
		</g>
		<g>
			<polygon points="229.7,89 223.2,90.8 229.7,92.5 			"/>
		</g>
	</g>
</g>
<g style="opacity:0.7;">
	<g>
		<line style="fill:none;stroke:#000000;stroke-miterlimit:10;" x1="424.6" y1="90.8" x2="343.3" y2="90.8"/>
		<g>
			<polygon points="423.5,89 430,90.8 423.5,92.5 			"/>
		</g>
		<g>
			<polygon points="344.5,89 338,90.8 344.5,92.5 			"/>
		</g>
	</g>
</g>
<g style="opacity:0.7;">
	<g>
		<line style="fill:none;stroke:#000000;stroke-miterlimit:10;" x1="539.4" y1="90.8" x2="435.3" y2="90.8"/>
		<g>
			<polygon points="538.2,89 544.7,90.8 538.2,92.5 			"/>
		</g>
		<g>
			<polygon points="436.5,89 430,90.8 436.5,92.5 			"/>
		</g>
	</g>
</g>
<g style="opacity:0.7;">
	<g>
		<line style="fill:none;stroke:#3566EF;stroke-miterlimit:10;" x1="594.5" y1="149.1" x2="594.5" y2="173.2"/>
		<g>
			<polygon style="fill:#3566EF;" points="592.7,150.3 594.5,143.8 596.2,150.3 			"/>
		</g>
		<g>
			<polygon style="fill:#3566EF;" points="592.7,172.1 594.5,178.6 596.2,172.1 			"/>
		</g>
	</g>
</g>
<text transform="matrix(1 0 0 1 101.6869 49.7501)" style="font-family:'TimesNewRomanPS-ItalicMT'; font-size:33px;">i</text>
<text transform="matrix(0.583 0 0 0.583 110.8553 60.7389)" style="font-family:'TimesNewRomanPS-ItalicMT'; font-size:33px;">L</text>
<text transform="matrix(1 0 0 1 616.0754 350.9658)" style="font-family:'TimesNewRomanPS-ItalicMT'; font-size:33px;">t</text>
<g style="opacity:0.7;">
	<g>
		<line style="fill:none;stroke:#000000;stroke-miterlimit:10;" x1="430" y1="68.8" x2="430" y2="74.3"/>
		
			<line style="fill:none;stroke:#000000;stroke-miterlimit:10;stroke-dasharray:11.053,11.053;" x1="430" y1="85.3" x2="430" y2="345.1"/>
		<line style="fill:none;stroke:#000000;stroke-miterlimit:10;" x1="430" y1="350.6" x2="430" y2="356.1"/>
	</g>
</g>
<g style="opacity:0.7;">
	<g>
		<line style="fill:none;stroke:#000000;stroke-miterlimit:10;" x1="338" y1="68.8" x2="338" y2="74.3"/>
		
			<line style="fill:none;stroke:#000000;stroke-miterlimit:10;stroke-dasharray:11.053,11.053;" x1="338" y1="85.3" x2="338" y2="345.1"/>
		<line style="fill:none;stroke:#000000;stroke-miterlimit:10;" x1="338" y1="350.6" x2="338" y2="356.1"/>
	</g>
</g>
<g style="opacity:0.7;">
	<g>
		<line style="fill:none;stroke:#000000;stroke-miterlimit:10;" x1="223.2" y1="68.8" x2="223.2" y2="74.3"/>
		
			<line style="fill:none;stroke:#000000;stroke-miterlimit:10;stroke-dasharray:11.053,11.053;" x1="223.2" y1="85.3" x2="223.2" y2="345.1"/>
		<line style="fill:none;stroke:#000000;stroke-miterlimit:10;" x1="223.2" y1="350.6" x2="223.2" y2="356.1"/>
	</g>
</g>
<g style="opacity:0.7;">
	<g>
		<line style="fill:none;stroke:#000000;stroke-miterlimit:10;" x1="544.7" y1="68.8" x2="544.7" y2="74.3"/>
		
			<line style="fill:none;stroke:#000000;stroke-miterlimit:10;stroke-dasharray:11.053,11.053;" x1="544.7" y1="85.3" x2="544.7" y2="345.1"/>
		<line style="fill:none;stroke:#000000;stroke-miterlimit:10;" x1="544.7" y1="350.6" x2="544.7" y2="356.1"/>
	</g>
</g>
<polyline style="fill:none;stroke:#000000;stroke-width:2;stroke-miterlimit:10;" points="544.7,178.6 430,143.8 338,178.6 
	223.2,143.8 131.3,178.6 "/>
<g style="opacity:0.7;">
	<text transform="matrix(1 0 0 1 158.5315 71.629)" style="font-family:'TimesNewRomanPS-ItalicMT'; font-size:33px;">T</text>
	<text transform="matrix(0.583 0 0 0.583 176.8846 82.6178)" style="font-family:'TimesNewRomanPSMT'; font-size:33px;">on</text>
</g>
<g style="opacity:0.7;">
	<text transform="matrix(1 0 0 1 248.9644 71.629)" style="font-family:'TimesNewRomanPS-ItalicMT'; font-size:33px;">T</text>
	<text transform="matrix(0.583 0 0 0.583 267.3174 82.6178)" style="font-family:'TimesNewRomanPSMT'; font-size:33px;">down</text>
</g>
<g style="opacity:0.7;">
	<text transform="matrix(1 0 0 1 363.4185 71.629)" style="font-family:'TimesNewRomanPS-ItalicMT'; font-size:33px;">T</text>
	<text transform="matrix(0.583 0 0 0.583 381.7715 82.6178)" style="font-family:'TimesNewRomanPSMT'; font-size:33px;">on</text>
</g>
<g style="opacity:0.7;">
	<text transform="matrix(1 0 0 1 453.8514 71.629)" style="font-family:'TimesNewRomanPS-ItalicMT'; font-size:33px;">T</text>
	<text transform="matrix(0.583 0 0 0.583 472.2045 82.6178)" style="font-family:'TimesNewRomanPSMT'; font-size:33px;">down</text>
</g>
<line style="opacity:0.8;fill:none;stroke:#A01F0E;stroke-miterlimit:10;stroke-dasharray:11;" x1="131.3" y1="161.2" x2="544.7" y2="161.2"/>
<g style="opacity:0.8;">
	<text transform="matrix(1 0 0 1 15.3438 170.2591)" style="fill:#A01F0E; font-family:'TimesNewRomanPSMT'; font-size:33px;">AVG</text>
	
		<text transform="matrix(1 0 0 1 86.8384 170.2591)" style="fill:#A01F0E; font-family:'TimesNewRomanPS-ItalicMT'; font-size:33px;">(i</text>
	
		<text transform="matrix(0.583 0 0 0.583 106.9961 181.2479)" style="fill:#A01F0E; font-family:'TimesNewRomanPS-ItalicMT'; font-size:33px;">L</text>
	
		<text transform="matrix(1 0 0 1 117.6958 170.2591)" style="fill:#A01F0E; font-family:'TimesNewRomanPS-ItalicMT'; font-size:33px;">)</text>
</g>
<line style="opacity:0.7;fill:none;stroke:#3566EF;stroke-miterlimit:10;stroke-dasharray:11;" x1="434.5" y1="143.8" x2="606.4" y2="143.8"/>
<line style="opacity:0.7;fill:none;stroke:#3566EF;stroke-miterlimit:10;stroke-dasharray:11;" x1="544.7" y1="178.6" x2="604.9" y2="178.6"/>
<g style="opacity:0.7;">
	
		<text transform="matrix(1 0 0 1 601.4477 170.2591)" style="fill:#3566EF; font-family:'TimesNewRomanPS-ItalicMT'; font-size:33px;">ΔI</text>
	
		<text transform="matrix(0.583 0 0 0.583 631.8051 181.2478)" style="fill:#3566EF; font-family:'TimesNewRomanPS-ItalicMT'; font-size:33px;">L</text>
</g>
</svg>
