<?xml version="1.0" encoding="utf-8"?>
<!-- Generator: Adobe Illustrator 27.3.0, SVG Export Plug-In . SVG Version: 6.00 Build 0)  -->
<svg version="1.1" id="Layer_1" xmlns="http://www.w3.org/2000/svg" xmlns:xlink="http://www.w3.org/1999/xlink" x="0px" y="0px"
	 width="803.6px" height="404.3px" viewBox="0 0 803.6 404.3" style="enable-background:new 0 0 803.6 404.3;" xml:space="preserve"
	>
<g>
	<g>
		<path style="fill:none;stroke:#000000;stroke-miterlimit:10;" d="M237.2,143.3c18.2-11.4,4.1-22.1,4.1-40.9"/>
		<g>
			<polygon points="239.1,144.1 232.6,145.8 237.4,141.1 			"/>
		</g>
	</g>
</g>
<line style="opacity:0.5;fill:none;stroke:#000000;stroke-miterlimit:10;stroke-dasharray:11;" x1="228.1" y1="68.3" x2="228.1" y2="350.3"/>
<g style="opacity:0.5;">
	<text transform="matrix(1 0 0 1 231.1564 376.0991)" style="font-family:'TimesNewRomanPS-ItalicMT'; font-size:33px;">T</text>
	<text transform="matrix(0.583 0 0 0.583 249.5095 387.0879)" style="font-family:'TimesNewRomanPSMT'; font-size:33px;">on</text>
</g>
<line style="fill:none;stroke:#000000;stroke-width:2;stroke-miterlimit:10;" x1="228.1" y1="148.1" x2="136.2" y2="182.9"/>
<line style="opacity:0.8;fill:none;stroke:#A01F0E;stroke-miterlimit:10;stroke-dasharray:11;" x1="136.2" y1="165.5" x2="464.5" y2="165.5"/>
<g style="opacity:0.8;">
	<text transform="matrix(1 0 0 1 20.5162 175.8314)" style="fill:#A01F0E; font-family:'TimesNewRomanPSMT'; font-size:33px;">AVG</text>
	
		<text transform="matrix(1 0 0 1 92.0108 175.8314)" style="fill:#A01F0E; font-family:'TimesNewRomanPS-ItalicMT'; font-size:33px;">(i</text>
	
		<text transform="matrix(0.583 0 0 0.583 112.1686 186.8201)" style="fill:#A01F0E; font-family:'TimesNewRomanPS-ItalicMT'; font-size:33px;">L</text>
	
		<text transform="matrix(1 0 0 1 122.8683 175.8314)" style="fill:#A01F0E; font-family:'TimesNewRomanPS-ItalicMT'; font-size:33px;">)</text>
</g>
<g style="opacity:0.7;">
	<g>
		<line style="fill:none;stroke:#3566EF;stroke-miterlimit:10;" x1="625.8" y1="153.4" x2="625.8" y2="177.6"/>
		<g>
			<polygon style="fill:#3566EF;" points="624.1,154.6 625.8,148.1 627.5,154.6 			"/>
		</g>
		<g>
			<polygon style="fill:#3566EF;" points="624.1,176.4 625.8,182.9 627.5,176.4 			"/>
		</g>
	</g>
</g>
<line style="opacity:0.7;fill:none;stroke:#3566EF;stroke-miterlimit:10;stroke-dasharray:11;" x1="136.2" y1="148.1" x2="641.3" y2="148.1"/>
<line style="opacity:0.7;fill:none;stroke:#3566EF;stroke-miterlimit:10;stroke-dasharray:11;" x1="136.2" y1="182.9" x2="639.7" y2="182.9"/>
<g style="opacity:0.7;">
	
		<text transform="matrix(1 0 0 1 633.3165 175.8316)" style="fill:#3566EF; font-family:'TimesNewRomanPS-ItalicMT'; font-size:33px;">ΔI</text>
	
		<text transform="matrix(0.583 0 0 0.583 663.674 186.8204)" style="fill:#3566EF; font-family:'TimesNewRomanPS-ItalicMT'; font-size:33px;">L</text>
</g>
<g>
	<g>
		<g>
			<polyline style="fill:none;stroke:#000000;stroke-width:2;stroke-miterlimit:10;" points="283.7,338 136.2,338 136.2,61.9 			"/>
			<g>
				<polygon points="281.3,334.5 294.3,338 281.3,341.5 				"/>
			</g>
			<g>
				<polygon points="139.7,64.3 136.2,51.2 132.7,64.3 				"/>
			</g>
		</g>
	</g>
	<text transform="matrix(1 0 0 1 106.5971 54.0831)" style="font-family:'TimesNewRomanPS-ItalicMT'; font-size:33px;">i</text>
	<text transform="matrix(0.583 0 0 0.583 115.7655 65.0719)" style="font-family:'TimesNewRomanPS-ItalicMT'; font-size:33px;">L</text>
	<text transform="matrix(1 0 0 1 300.7542 355.2989)" style="font-family:'TimesNewRomanPS-ItalicMT'; font-size:33px;">t</text>
</g>
<text transform="matrix(1 0 0 1 238.722 97.6858)" style="font-family:'TimesNewRomanPS-ItalicMT'; font-size:33px;">I</text>
<text transform="matrix(0.583 0 0 0.583 249.7113 108.675)" style="font-family:'TimesNewRomanPS-ItalicMT'; font-size:33px;">1 </text>
<text transform="matrix(1 0 0 1 264.1405 97.6858)" style="font-family:'TimesNewRomanPS-ItalicMT'; font-size:33px;">= a</text>
<text transform="matrix(0.583 0 0 0.583 311.1591 108.675)" style="font-family:'TimesNewRomanPS-ItalicMT'; font-size:33px;">1</text>
<text transform="matrix(1 0 0 1 320.7787 97.6858)" style="font-family:'TimesNewRomanPS-ItalicMT'; font-size:33px;"> + b</text>
<text transform="matrix(0.583 0 0 0.583 376.0472 108.675)" style="font-family:'TimesNewRomanPS-ItalicMT'; font-size:33px;">1</text>
<text transform="matrix(1 0 0 1 385.6664 97.6858)" style="font-family:'TimesNewRomanPS-ItalicMT'; font-size:33px;">t</text>
<text transform="matrix(1 0 0 1 629.3309 240.4317)" style="font-family:'TimesNewRomanPS-ItalicMT'; font-size:33px;">I</text>
<text transform="matrix(0.583 0 0 0.583 640.3201 251.421)" style="font-family:'TimesNewRomanPS-ItalicMT'; font-size:33px;">2 </text>
<text transform="matrix(1 0 0 1 654.7493 240.4317)" style="font-family:'TimesNewRomanPS-ItalicMT'; font-size:33px;">= a</text>
<text transform="matrix(0.583 0 0 0.583 701.7679 251.421)" style="font-family:'TimesNewRomanPS-ItalicMT'; font-size:33px;">2</text>
<text transform="matrix(1 0 0 1 711.3875 240.4317)" style="font-family:'TimesNewRomanPS-ItalicMT'; font-size:33px;"> + b</text>
<text transform="matrix(0.583 0 0 0.583 766.6561 251.421)" style="font-family:'TimesNewRomanPS-ItalicMT'; font-size:33px;">2</text>
<text transform="matrix(1 0 0 1 776.2752 240.4317)" style="font-family:'TimesNewRomanPS-ItalicMT'; font-size:33px;">t</text>
<g>
	<g>
		<g>
			<path style="fill:none;stroke:#000000;stroke-miterlimit:10;" d="M588.9,187.3c26.3,14.2,5.7,38.9,35,38.9"/>
			<g>
				<polygon points="589.2,189.4 584,185 590.7,186.3 				"/>
			</g>
		</g>
	</g>
	<line style="fill:none;stroke:#000000;stroke-width:2;stroke-miterlimit:10;" x1="579.2" y1="182.9" x2="464.5" y2="148.1"/>
	<g style="opacity:0.5;">
		<text transform="matrix(1 0 0 1 582.1458 376.7202)" style="font-family:'TimesNewRomanPS-ItalicMT'; font-size:33px;">T</text>
		<text transform="matrix(0.583 0 0 0.583 600.4988 387.709)" style="font-family:'TimesNewRomanPSMT'; font-size:33px;">down</text>
	</g>
	
		<line style="opacity:0.8;fill:none;stroke:#A01F0E;stroke-miterlimit:10;stroke-dasharray:11;" x1="464.5" y1="165.5" x2="582.1" y2="165.5"/>
	<g>
		<g>
			<g>
				<polyline style="fill:none;stroke:#000000;stroke-width:2;stroke-miterlimit:10;" points="612,338 464.5,338 464.5,61.9 				"/>
				<g>
					<polygon points="609.6,334.5 622.6,338 609.6,341.5 					"/>
				</g>
				<g>
					<polygon points="467.9,64.3 464.5,51.2 461,64.3 					"/>
				</g>
			</g>
		</g>
		<text transform="matrix(1 0 0 1 434.8685 54.0831)" style="font-family:'TimesNewRomanPS-ItalicMT'; font-size:33px;">i</text>
		<text transform="matrix(0.583 0 0 0.583 444.037 65.0719)" style="font-family:'TimesNewRomanPS-ItalicMT'; font-size:33px;">L</text>
		<text transform="matrix(1 0 0 1 629.0257 355.2989)" style="font-family:'TimesNewRomanPS-ItalicMT'; font-size:33px;">t</text>
	</g>
	
		<line style="opacity:0.5;fill:none;stroke:#000000;stroke-miterlimit:10;stroke-dasharray:11;" x1="579.2" y1="68.3" x2="579.2" y2="350.3"/>
</g>
</svg>
